<?xml version="1.0" encoding="utf-8"?>
<!-- Generator: Adobe Illustrator 17.1.0, SVG Export Plug-In . SVG Version: 6.00 Build 0)  -->
<!DOCTYPE svg PUBLIC "-//W3C//DTD SVG 1.1//EN" "http://www.w3.org/Graphics/SVG/1.1/DTD/svg11.dtd">
<svg version="1.1" id="Слой_1" xmlns="http://www.w3.org/2000/svg" xmlns:xlink="http://www.w3.org/1999/xlink" x="0px" y="0px"
	 viewBox="0 0 61.2 55" enable-background="new 0 0 61.2 55" xml:space="preserve">
<g>
	<path fill="#E20613" d="M54,18.7c-0.6,0-1,0.5-1,1v33.2H2.1V2.1h50.8v1c0,0.6,0.5,1,1,1c0.6,0,1-0.5,1-1V0H0v55h55V19.7
		C55,19.1,54.5,18.7,54,18.7L54,18.7z M54,18.7"/>
	<path fill="#E20613" d="M60.9,4.5c-0.4-0.4-1.1-0.4-1.5,0L28,35.9L14.5,22.3c-0.4-0.4-1.1-0.4-1.5,0c-0.4,0.4-0.4,1.1,0,1.5
		l14.3,14.3c0.2,0.2,0.5,0.3,0.7,0.3c0.3,0,0.5-0.1,0.7-0.3L60.9,5.9C61.3,5.5,61.3,4.9,60.9,4.5L60.9,4.5z M60.9,4.5"/>
</g>
</svg>
