<svg xmlns="http://www.w3.org/2000/svg" viewBox="0 0 96 96"><path fill="#878787" d="M94.2 48c0 25.5-20.7 46.2-46.2 46.2C22.5 94.2 1.8 73.5 1.8 48 1.8 22.5 22.5 1.8 48 1.8c25.5 0 46.2 20.7 46.2 46.2zm0 0"/><path fill="#878787" d="M96 48c0 26.5-21.5 48-48 48S0 74.5 0 48 21.5 0 48 0s48 21.5 48 48zM3.6 48c0 24.5 19.9 44.4 44.4 44.4S92.4 72.5 92.4 48 72.5 3.5 48 3.5 3.6 23.5 3.6 48zm0 0"/><path fill="#FFF" d="M71.1 56.4c0 .5-.2.9-.5 1.3-.7.7-1.8.7-2.5 0L48 37.5 27.9 57.6c-.7.7-1.8.7-2.5 0s-.7-1.8 0-2.5l20.4-20.4c1.2-1.2 3.1-1.2 4.3 0l20.4 20.4c.4.4.6.8.6 1.3zm0 0"/></svg>