<svg xmlns="http://www.w3.org/2000/svg" viewBox="0 0 120 120"><g opacity=".1"><path fill="#FFF" d="M30 27.2L57.2 0H2.8z"/><path fill="#FFF" d="M60 15l30 30 30-30V2.8l-30 30-30-30-30 30-30-30V15l30 30zM15 60l12.2-12.2L0 20.7v78.6l27.2-27.1z"/><path fill="#FFF" d="M90 27.2L117.2 0H62.8zM105 60L92.8 72.2 120 99.3V20.7L92.8 47.8zM60 105L30 75 0 105v12.2l30-30 30 30 30-30 30 30V105L90 75zM20.666 60l9.333-9.334L39.333 60l-9.334 9.334z"/><path fill="#FFF" d="M87.2 47.8L60 20.7 32.8 47.8 45 60 32.8 72.2 60 99.3l27.2-27.1L75 60zM62.8 120h54.4L90 92.8zM2.8 120h54.4L30 92.8z"/><path fill="#FFF" d="M99.335 60L90 69.333 80.667 60l9.334-9.334z"/><path fill="#e6e6e6" d="M120 99.3v5.7L90 75l-30 30-30-30-30 30v-5.7l27.2-27.2L15 60l12.2-12.2L0 20.7V15l30 30 30-30 30 30 30-30v5.7L92.8 47.8 105 60 92.8 72.2 120 99.3zM90 50.7L80.7 60l9.3 9.3 9.3-9.3-9.3-9.3zM30 69.3l9.3-9.3-9.3-9.3-9.3 9.3 9.3 9.3zm57.2 2.9L75 60l12.2-12.2L60 20.7 32.8 47.8 45 60 32.8 72.2 60 99.3l27.2-27.1z"/><path fill="#e6e6e6" d="M60 2.8l30 30 30-30V0h-2.8L90 27.2 62.8 0h-5.6L30 27.2 2.8 0H0v2.8l30 30zM60 117.2l-30-30-30 30v2.8h2.8L30 92.8 57.2 120h5.6L90 92.8l27.2 27.2h2.8v-2.8l-30-30z"/></g></svg>
