<svg xmlns="http://www.w3.org/2000/svg" viewBox="0 0 55.8 72"><path fill="#E3042A" d="M27.9 12.2L.6 0v16.6S18.5 22.7 19.3 27c.7 4.3-.1 41-.1 41l8.7 4 8.7-4s-.8-36.7-.1-41 18.7-10.4 18.7-10.4V0L27.9 12.2z"/><path fill="#282D3A" d="M0 23.4s13.8 5.8 13.8 8.6v33.7L0 59.6V23.4zM55.8 24.2S42 30 42 32.8v33.7l13.8-6.1V24.2z"/></svg>www.w3.org/1999/xlink" x="0px" y="0px"
	 viewBox="0 0 55.8 72" enable-background="new 0 0 55.8 72" xml:space="preserve">
<g>
	<path fill="#E3042A" d="M27.9,12.2L0.6,0v16.6c0,0,17.9,6.1,18.7,10.4c0.7,4.3-0.1,41-0.1,41l8.7,4l8.7-4c0,0-0.8-36.7-0.1-41
		s18.7-10.4,18.7-10.4V0L27.9,12.2z"/>
	<path fill="#282D3A" d="M0,23.4c0,0,13.8,5.8,13.8,8.6s0,33.7,0,33.7L0,59.6V23.4z"/>
	<path fill="#282D3A" d="M55.8,24.2c0,0-13.8,5.8-13.8,8.6s0,33.7,0,33.7l13.8-6.1V24.2z"/>
</g>
</svg>
