<svg version="1.1" id="Слой_1" xmlns="http://www.w3.org/2000/svg" xmlns:xlink="http://www.w3.org/1999/xlink" width="25" height="45" x="0px" y="0px" viewBox="0 0 44 73" enable-background="new 0 0 44 73" xml:space="preserve">
<g>
	<g>
		<path fill="#FF3000" d="M44,22c0,12.1-22,51-22,51S0,34.1,0,22S9.8,0,22,0S44,9.8,44,22L44,22z M44,22"/>
		<path fill="#BC0B00" d="M22,0v73c0,0,22-38.8,22-51S34.1,0,22,0L22,0z M22,0"/>
		<path fill="#FFFFF5" d="M36.4,22c0,8-6.5,14.4-14.4,14.4C14,36.4,7.6,30,7.6,22C7.6,14,14,7.6,22,7.6C30,7.6,36.4,14,36.4,22
			L36.4,22z M36.4,22"/>
	</g>
	<path fill="#F4F3E1" d="M22,7.6v28.8c8,0,14.4-6.5,14.4-14.4C36.4,14,30,7.6,22,7.6L22,7.6z M22,7.6"/>
</g>
</svg>
