<svg xmlns="http://www.w3.org/2000/svg" viewBox="0 0 191.3 191.3"><linearGradient id="a" gradientUnits="userSpaceOnUse" x1="-561.804" y1="589.023" x2="-389.128" y2="761.699" gradientTransform="scale(1 -1) rotate(-89.984 -575.522 0)"><stop offset="0" stop-color="#c6c6c6"/><stop offset=".003" stop-color="#bebebe"/><stop offset=".021" stop-color="#999898"/><stop offset=".039" stop-color="#797777"/><stop offset=".06" stop-color="#5e5c5c"/><stop offset=".081" stop-color="#4a4848"/><stop offset=".106" stop-color="#3c3939"/><stop offset=".135" stop-color="#343131"/><stop offset=".183" stop-color="#312e2e"/><stop offset=".226" stop-color="#373434"/><stop offset=".284" stop-color="#474545"/><stop offset=".349" stop-color="#636161"/><stop offset=".421" stop-color="#888787"/><stop offset=".497" stop-color="#b8b8b8"/><stop offset=".516" stop-color="#c6c6c6"/><stop offset=".774" stop-color="#5b5a5a"/><stop offset="1" stop-color="#908e8e"/></linearGradient><linearGradient id="b" gradientUnits="userSpaceOnUse" x1="-575.333" y1="671.137" x2="-384.048" y2="671.137" gradientTransform="scale(1 -1) rotate(-89.984 -575.522 0)"><stop offset="0" stop-color="#c6c6c6"/><stop offset=".003" stop-color="#bebebe"/><stop offset=".021" stop-color="#999898"/><stop offset=".039" stop-color="#797777"/><stop offset=".06" stop-color="#5e5c5c"/><stop offset=".081" stop-color="#4a4848"/><stop offset=".106" stop-color="#3c3939"/><stop offset=".135" stop-color="#343131"/><stop offset=".183" stop-color="#312e2e"/><stop offset=".226" stop-color="#373434"/><stop offset=".284" stop-color="#474545"/><stop offset=".349" stop-color="#636161"/><stop offset=".421" stop-color="#888787"/><stop offset=".497" stop-color="#b8b8b8"/><stop offset=".516" stop-color="#c6c6c6"/><stop offset=".774" stop-color="#5b5a5a"/><stop offset="1" stop-color="#908e8e"/></linearGradient><path opacity=".54" fill="url(#a)" stroke="url(#b)" stroke-width=".992" stroke-miterlimit="10" d="M154 162.9l6 2.9 4.2-4.1-2.8-6.1-3.4-3.5c1-1.1 1.9-2.2 2.9-3.3l4 2.9 6.4 1.9 3.4-4.7-3.8-5.5-4-2.9c.8-1.2 1.5-2.5 2.2-3.8l4.4 2.1 6.6.7 2.5-5.3-4.7-4.7-4.4-2.1c.6-1.4 1.1-2.7 1.6-4.1l4.7 1.3 6.6-.4 1.6-5.6-5.4-3.9-4.7-1.3c.3-1.4.6-2.9.8-4.3l4.9.5 6.5-1.6.6-5.8-6-2.8-4.9-.5c.1-1.5.1-2.9.1-4.4l4.9-.4 6.1-2.7-.4-5.8-6.4-1.8-4.9.4c-.2-1.4-.4-2.9-.7-4.3l4.7-1.2 5.5-3.7-1.4-5.6-6.6-.6L176 70c-.4-1.4-.9-2.8-1.4-4.1l4.5-2 4.8-4.6-2.4-5.3-6.6.5-4.5 2c-.7-1.3-1.4-2.6-2.1-3.8l4-2.7 3.9-5.4-3.3-4.8-6.4 1.7-4 2.8c-.9-1.2-1.8-2.3-2.8-3.4l3.5-3.4 2.9-6-4.1-4.2-6.1 2.8-3.5 3.4c-1.1-1-2.2-1.9-3.3-2.9l2.9-4 1.9-6.4-4.7-3.4-5.5 3.8-2.9 4c-1.2-.8-2.5-1.5-3.8-2.2l2.1-4.4.7-6.6-5.2-2.5-4.7 4.7-2.1 4.4c-1.4-.6-2.7-1.1-4.1-1.6l1.3-4.7-.4-6.7-5.6-1.6-3.9 5.4-1.3 4.7c-1.4-.3-2.9-.6-4.3-.8l.5-4.9-1.6-6.5-5.8-.6-2.8 6-.5 4.9c-1.5-.1-2.9-.1-4.4-.1l-.4-4.9L91.8.5l-6.1.5-1.8 6.4.4 4.9c-1.4.2-2.9.4-4.3.7l-1.2-4.7L75 2.7l-5.6 1.4-.6 6.6 1.2 4.7c-1.4.4-2.8.9-4.1 1.4l-2-4.5-4.6-4.8L54 9.9l.5 6.6 2 4.5c-1.3.7-2.6 1.4-3.8 2.1l-2.8-4-5.4-3.9-4.8 3.3 1.7 6.4 2.8 4c-1.1.9-2.3 1.8-3.4 2.8l-3.4-3.5-6-2.9-4.2 4.1 2.8 6.1 3.4 3.5c-1 1.1-1.9 2.2-2.9 3.3l-4-2.9-6.4-1.9-3.4 4.7 3.8 5.5 4 2.9c-.8 1.2-1.5 2.5-2.2 3.8l-4.4-2.1-6.6-.7-2.5 5.2 4.7 4.7 4.4 2.1c-.6 1.4-1.1 2.7-1.6 4.1l-4.7-1.3-6.8.6-1.6 5.6 5.4 3.9 4.7 1.3c-.3 1.4-.6 2.9-.8 4.3l-4.9-.5-6.5 1.6L.7 89l6 2.8 4.9.5c-.1 1.5-.1 2.9-.1 4.4l-4.9.4-6.1 2.7.4 5.8 6.4 1.8 4.9-.4c.2 1.4.4 2.9.7 4.3l-4.7 1.2-5.5 3.7 1.4 5.6 6.6.6 4.7-1.2c.4 1.4.9 2.8 1.4 4.1l-4.5 2-4.8 4.6 2.4 5.3 6.6-.5 4.5-2c.7 1.3 1.4 2.6 2.1 3.8l-4 2.8-3.9 5.4 3.3 4.8 6.4-1.7 4-2.8c.9 1.2 1.8 2.3 2.8 3.4l-3.5 3.4-2.9 6 4.1 4.2 6.1-2.8 3.5-3.4c1.1 1 2.2 1.9 3.3 2.9l-2.9 4-1.9 6.4 4.7 3.4 5.5-3.8 2.9-4c1.2.8 2.5 1.5 3.8 2.2l-2.1 4.4-.7 6.6 5.2 2.5 4.7-4.7 2.1-4.4c1.4.6 2.7 1.1 4.1 1.6l-1.3 4.7.4 6.7 5.6 1.6 3.9-5.4 1.3-4.7c1.4.3 2.9.6 4.3.8l-.5 4.9L83 190l5.8.6 2.8-6 .5-4.9c1.5.1 2.9.1 4.4.1l.4 4.9 2.7 6.1 5.8-.4 1.8-6.4-.2-5c1.5-.2 2.9-.4 4.3-.7l1.2 4.7 3.7 5.5 5.6-1.4.6-6.6-1.2-4.7c1.4-.4 2.8-.9 4.1-1.4l2 4.5 4.6 4.8 5.3-2.4-.5-6.6-2-4.5c1.3-.7 2.6-1.4 3.8-2.1l2.8 4 5.4 3.9 4.8-3.3-1.7-6.4-2.8-4c1.2-.9 2.3-1.8 3.4-2.8l3.6 3.4zm-66.1-59.8c-4.2-4.3-4.1-11.2.2-15.5 4.3-4.2 11.2-4.1 15.5.2 4.2 4.3 4.1 11.2-.2 15.5-4.4 4.3-11.3 4.2-15.5-.2zm36.9-2.7c.5-2.9.5-5.9.2-8.8l8.2-8c2.6 8.1 2.4 16.9-.4 25l-8-8.2zm-24.3-34c-1.4-.2-2.9-.4-4.4-.4-1.5 0-3 .1-4.5.3l-8-8.2c4-1.3 8.3-2 12.6-1.9 4.3.1 8.5.8 12.5 2.2l-8.2 8zM66.6 90.9c-.2 1.4-.3 2.8-.4 4.2 0 1.5.1 3 .3 4.4l-8.2 8c-1.3-4-1.9-8.2-1.9-12.5.1-4.3.8-8.4 2.1-12.3l8.1 8.2zM91 124.6c2.8.4 5.7.5 8.5.1l8 8.2c-8 2.5-16.7 2.4-24.7-.4l8.2-7.9zm61.7 4.5l-7.6-7.8c8-15.6 8.3-34.2.7-50l7.8-7.6c11.2 20.3 10.9 45.3-.9 65.4zm-23.6-90.5l-7.8 7.6c-15.6-8-34.2-8.3-50-.7l-7.6-7.8c20.3-11.2 45.3-10.9 65.4.9zM38.6 62.2l7.6 7.8c-8 15.6-8.3 34.2-.7 50l-7.8 7.6c-11.2-20.4-10.9-45.4.9-65.4zm23.6 90.5l7.8-7.6c15.6 8 34.2 8.3 50 .7l7.6 7.8c-20.4 11.2-45.4 10.9-65.4-.9z"/></svg>