<svg xmlns="http://www.w3.org/2000/svg" xmlns:xlink="http://www.w3.org/1999/xlink" viewBox="0 0 166.6 166.6"><g opacity=".54"><linearGradient id="a" gradientUnits="userSpaceOnUse" x1="-575.235" y1="659.206" x2="-409.606" y2="659.206" gradientTransform="scale(1 -1) rotate(-89.984 -575.919 0)"><stop offset="0" stop-color="#c6c6c6"/><stop offset=".003" stop-color="#bebebe"/><stop offset=".021" stop-color="#999898"/><stop offset=".039" stop-color="#797777"/><stop offset=".06" stop-color="#5e5c5c"/><stop offset=".081" stop-color="#4a4848"/><stop offset=".106" stop-color="#3c3939"/><stop offset=".135" stop-color="#343131"/><stop offset=".183" stop-color="#312e2e"/><stop offset=".226" stop-color="#373434"/><stop offset=".284" stop-color="#474545"/><stop offset=".349" stop-color="#636161"/><stop offset=".421" stop-color="#888787"/><stop offset=".497" stop-color="#b8b8b8"/><stop offset=".516" stop-color="#c6c6c6"/><stop offset=".774" stop-color="#5b5a5a"/><stop offset="1" stop-color="#908e8e"/></linearGradient><linearGradient id="b" gradientUnits="userSpaceOnUse" x1="-575.731" y1="659.205" x2="-409.111" y2="659.205" gradientTransform="scale(1 -1) rotate(-89.984 -575.919 0)"><stop offset="0" stop-color="#c6c6c6"/><stop offset=".003" stop-color="#bebebe"/><stop offset=".021" stop-color="#999898"/><stop offset=".039" stop-color="#797777"/><stop offset=".06" stop-color="#5e5c5c"/><stop offset=".081" stop-color="#4a4848"/><stop offset=".106" stop-color="#3c3939"/><stop offset=".135" stop-color="#343131"/><stop offset=".183" stop-color="#312e2e"/><stop offset=".226" stop-color="#373434"/><stop offset=".284" stop-color="#474545"/><stop offset=".349" stop-color="#636161"/><stop offset=".421" stop-color="#888787"/><stop offset=".497" stop-color="#b8b8b8"/><stop offset=".516" stop-color="#c6c6c6"/><stop offset=".774" stop-color="#5b5a5a"/><stop offset="1" stop-color="#908e8e"/></linearGradient><path fill="url(#a)" stroke="url(#b)" stroke-width=".992" stroke-miterlimit="10" d="M166.1 85.2v-3.7h-3.8c0-1.5-.1-3-.2-4.5l3.8-.4-.4-3.7-3.8.4c-.2-1.5-.4-3-.7-4.5l3.7-.8-.8-3.7-3.7.8c-.3-1.5-.7-2.9-1.2-4.4l3.6-1.2-1.2-3.6-3.6 1.2c-.5-1.4-1-2.8-1.6-4.2l3.4-1.5-1.5-3.4-3.4 1.5c-.7-1.4-1.3-2.7-2.1-4l3.3-1.9-1.9-3.2-3.3 1.9c-.8-1.3-1.6-2.6-2.5-3.8l3.1-2.2-2.2-3-3.1 2.2c-.9-1.2-1.9-2.4-2.9-3.5l2.8-2.5-2.5-2.8-2.8 2.5c-1-1.1-2.1-2.2-3.2-3.2l2.5-2.8-2.8-2.5-2.5 2.8c-1.1-1-2.3-1.9-3.5-2.9l2.2-3.1-3-2.2-2.2 3.1c-1.2-.9-2.5-1.7-3.8-2.5l1.9-3.3-3.2-1.9-1.9 3.3c-1.3-.7-2.7-1.4-4-2.1l1.5-3.4-3.4-1.5-1.5 3.4c-1.4-.6-2.8-1.1-4.2-1.6l1.2-3.6-3.6-1.2-1.2 3.6c-1.4-.4-2.9-.8-4.4-1.2l.8-3.7-3.7-.8-.8 3.7c-1.5-.3-3-.5-4.5-.7l.4-3.8L90 .7l-.4 3.8c-1.5-.1-3-.2-4.5-.2V.5h-3.7v3.8c-1.5 0-3 .1-4.5.2L76.5.7l-3.7.4.4 3.8c-1.5.2-3 .4-4.5.7l-.8-3.7-3.7.8.8 3.7c-1.5.4-2.9.7-4.4 1.2L59.5 4l-3.6 1.2 1.2 3.6c-1.4.5-2.8 1-4.2 1.6L51.4 7 48 8.5l1.5 3.4c-1.4.7-2.7 1.3-4 2.1l-1.9-3.3-3.2 1.9 1.9 3.3c-1.3.8-2.5 1.6-3.8 2.5l-2.2-3.1-3 2.2 2.2 3.1c-1.2.9-2.4 1.9-3.5 2.9l-2.5-2.8-3 2.3 2.5 2.8c-1.1 1-2.2 2.1-3.2 3.2L23 26.5l-2.5 2.8 2.8 2.5c-1 1.1-1.9 2.3-2.9 3.5l-3.1-2.2-2.2 3 3.1 2.2c-.9 1.2-1.7 2.5-2.5 3.8l-3.3-1.9-1.9 3.2 3.3 1.9c-.7 1.3-1.4 2.7-2.1 4l-3.4-1.5-1.5 3.4 3.4 1.5c-.6 1.4-1.1 2.8-1.6 4.2L5.1 56 4 59.5l3.6 1.2c-.4 1.4-.8 2.9-1.2 4.4l-3.7-.8-.8 3.7 3.7.8c-.3 1.5-.5 3-.7 4.5l-3.8-.4-.4 3.7 3.8.4c-.1 1.5-.2 3-.2 4.5H.5v3.7h3.8c0 1.5.1 3 .2 4.5l-3.8.4.4 3.7 3.8-.4c.2 1.5.4 3 .7 4.5l-3.7.8.8 3.7 3.7-.8c.4 1.5.7 2.9 1.2 4.4L4 107.1l1.2 3.6 3.6-1.2c.5 1.4 1 2.8 1.6 4.2L7 115.2l1.5 3.4 3.4-1.5c.7 1.4 1.3 2.7 2.1 4l-3.3 1.9 1.9 3.2 3.3-1.9c.8 1.3 1.6 2.5 2.5 3.8l-3.1 2.2 2.2 3 3.1-2.2c.9 1.2 1.9 2.4 2.9 3.5l-2.8 2.5 2.5 2.8 2.8-2.5c1 1.1 2.1 2.2 3.2 3.2l-2.5 2.8 2.8 2.5 2.5-2.8c1.1 1 2.3 1.9 3.5 2.9l-2.2 3.1 3 2.2 2.2-3.1c1.2.9 2.5 1.7 3.8 2.5l-1.9 3.3 3.2 1.9 1.9-3.3c1.3.7 2.7 1.4 4 2.1l-1.5 3.4 3.4 1.5 1.5-3.4c1.4.6 2.8 1.1 4.2 1.6l-1.2 3.6 3.6 1.2 1.2-3.6c1.4.4 2.9.8 4.4 1.2l-.8 3.7 3.7.8.8-3.7c1.5.3 3 .5 4.5.7l-.4 3.8 3.7.4.4-3.8c1.5.1 3 .2 4.5.2v3.8h3.7v-3.8c1.5 0 3-.1 4.5-.2l.4 3.8 3.7-.4-.4-3.8c1.5-.2 3-.4 4.5-.7l.8 3.7 3.7-.8-.8-3.7c1.5-.4 2.9-.7 4.4-1.2l1.2 3.6 3.6-1.2-1.2-3.6c1.4-.5 2.8-1 4.2-1.6l1.5 3.4 3.4-1.5-1.5-3.4c1.4-.7 2.7-1.3 4-2.1l1.9 3.3 3.2-1.9-1.9-3.3c1.3-.8 2.5-1.6 3.8-2.5l2.2 3.1 3-2.2-2.2-3.1c1.2-.9 2.4-1.9 3.5-2.9l2.5 2.8 2.8-2.5-2.5-2.8c1.1-1 2.2-2.1 3.2-3.2l2.8 2.5 2.5-2.8-2.8-2.5c1-1.1 1.9-2.3 2.9-3.5l3.1 2.2 2.2-3-3.1-2.2c.9-1.2 1.7-2.5 2.5-3.8l3.3 1.9 1.9-3.2-3.3-1.9c.7-1.3 1.4-2.7 2.1-4l3.4 1.5 1.5-3.4-3.4-1.5c.6-1.4 1.1-2.8 1.6-4.2l3.6 1.2 1.2-3.6-3.6-1.2c.4-1.4.8-2.9 1.2-4.4l3.7.8.8-3.7-3.7-.8c.3-1.5.5-3 .7-4.5l3.8.4.4-3.7-3.8-.4c.1-1.5.2-3 .2-4.5l3.7.1zM86.6 14c16.6.8 31.7 7.4 43.3 17.9l-13.4 13.4c-8.1-7.1-18.5-11.6-29.9-12.4V14zm-6.7 0v18.9c-11.4.8-21.8 5.3-29.9 12.4L36.7 32c11.5-10.5 26.6-17.2 43.2-18zm-48 22.7l13.4 13.4C38.2 58.2 33.7 68.6 32.9 80H14c.8-16.6 7.5-31.7 17.9-43.3zm.1 93.2c-10.5-11.5-17.2-26.6-18-43.2h18.9c.8 11.4 5.3 21.8 12.4 29.9L32 129.9zm48 22.7c-16.6-.8-31.7-7.4-43.3-17.9l13.4-13.4c8.1 7.1 18.5 11.6 29.9 12.4v18.9zm3.3-46.3c-12.7 0-23-10.3-23-23s10.3-23 23-23 23 10.3 23 23-10.3 23-23 23zm3.4 46.3v-18.9c11.4-.8 21.8-5.3 29.9-12.4l13.4 13.4c-11.6 10.4-26.7 17.1-43.3 17.9zm48-22.7l-13.4-13.4c7.1-8.1 11.6-18.5 12.4-29.9h18.9c-.8 16.7-7.4 31.8-17.9 43.3zm-1-50c-.8-11.4-5.3-21.8-12.4-29.9l13.4-13.4c10.5 11.5 17.1 26.6 17.9 43.3h-18.9zm-50.4-6.5c-5.4 0-9.9 4.4-9.9 9.9 0 5.4 4.4 9.9 9.9 9.9s9.9-4.4 9.9-9.9c0-5.4-4.4-9.9-9.9-9.9z"/><linearGradient id="c" gradientUnits="userSpaceOnUse" x1="-183.651" y1="1639.587" x2="-29.412" y2="1639.587" gradientTransform="rotate(-135.016 -339.578 819.75)"><stop offset="0" stop-color="#c6c6c6"/><stop offset=".043" stop-color="#afafaf"/><stop offset=".144" stop-color="#807e7e"/><stop offset=".194" stop-color="#6d6b6b"/><stop offset=".266" stop-color="#7c7a7a"/><stop offset=".407" stop-color="#a3a2a2"/><stop offset=".516" stop-color="#c6c6c6"/><stop offset=".567" stop-color="silver"/><stop offset=".635" stop-color="#afafaf"/><stop offset=".714" stop-color="#939292"/><stop offset=".799" stop-color="#6c6b6b"/><stop offset=".817" stop-color="#636262"/><stop offset="1" stop-color="#908e8e"/></linearGradient><path fill="url(#c)" d="M48.3 48.4C67.6 29 99 29 118.3 48.3c19.3 19.3 19.3 50.6 0 69.9-19.3 19.3-50.6 19.3-69.9 0C29 99 29 67.7 48.3 48.4z"/><image overflow="visible" width="81" height="81" xlink:href="C1CE3E38.png" transform="translate(17.296 67.695)" opacity=".4"/><linearGradient id="d" gradientUnits="userSpaceOnUse" x1="-114.827" y1="1605.961" x2="-120.607" y2="1601.622" gradientTransform="rotate(-135.016 -339.578 819.75)"><stop offset="0"/><stop offset=".301" stop-color="#030303"/><stop offset=".505" stop-color="#0c0c0c"/><stop offset=".68" stop-color="#1b1b1b"/><stop offset=".838" stop-color="#303030"/><stop offset=".984" stop-color="#4c4c4c"/><stop offset=".995" stop-color="#4e4e4e"/></linearGradient><path fill="url(#d)" d="M54.2 109.2c.1.7.4 1.5 1 2.1 1.4 1.4 3.8 1.4 5.2 0 .6-.6.9-1.3 1-2.1.1-.4.1-.7 0-1.1-.1-.8-.4-1.5-1-2.1-1.4-1.4-3.8-1.4-5.2 0-.6.6-.9 1.3-1 2.1v1.1z"/><image overflow="visible" width="9" height="4" xlink:href="C1CE3E39.png" transform="translate(53.295 104.695)"/><image overflow="visible" width="9" height="4" xlink:href="C1CE3E3F.png" transform="translate(53.295 108.695)"/><path fill="#FFF" d="M54.3 109.5h7.1v-.1h-7.2c.1 0 .1 0 .1.1zM54.3 108.1v.1h7.2v-.1h-7.2z"/><linearGradient id="e" gradientUnits="userSpaceOnUse" x1="-125.893" y1="1599.774" x2="-119.052" y2="1606.192" gradientTransform="rotate(-135.016 -341.77 818.235)"><stop offset="0" stop-color="#fff"/><stop offset=".117" stop-color="#f9f9f9"/><stop offset=".273" stop-color="#e8e8e8"/><stop offset=".452" stop-color="#ccc"/><stop offset=".648" stop-color="#a5a5a5"/><stop offset=".854" stop-color="#747474"/><stop offset=".995" stop-color="#4e4e4e"/></linearGradient><path fill="url(#e)" d="M54.3 108.2c.1.4.1.7 0 1.1h7.2c.1-.4.1-.7 0-1.1h-7.2z"/><linearGradient id="f" gradientUnits="userSpaceOnUse" x1="-118.508" y1="1603.207" x2="-117.614" y2="1604.101" gradientTransform="rotate(-135.016 -339.578 819.75)"><stop offset="0"/><stop offset=".018" stop-color="#0b0b0b"/><stop offset=".071" stop-color="#232323"/><stop offset=".131" stop-color="#363636"/><stop offset=".2" stop-color="#444"/><stop offset=".287" stop-color="#4c4c4c"/><stop offset=".452" stop-color="#4e4e4e"/><stop offset=".529" stop-color="#545454"/><stop offset=".631" stop-color="#656565"/><stop offset=".748" stop-color="gray"/><stop offset=".874" stop-color="#a6a6a6"/><stop offset="1" stop-color="#d4d4d4"/></linearGradient><path fill="url(#f)" d="M54.3 108.2c.1.4.1.7 0 1.1h7.2c.1-.4.1-.7 0-1.1h-7.2z"/><g><image overflow="visible" width="82" height="81" xlink:href="C1CE3E3A.png" transform="translate(42.295 78.695)" opacity=".4"/><linearGradient id="g" gradientUnits="userSpaceOnUse" x1="-400.173" y1="714.557" x2="-405.954" y2="710.217" gradientTransform="rotate(180 -160.019 415.781)"><stop offset="0"/><stop offset=".301" stop-color="#030303"/><stop offset=".505" stop-color="#0c0c0c"/><stop offset=".68" stop-color="#1b1b1b"/><stop offset=".838" stop-color="#303030"/><stop offset=".984" stop-color="#4c4c4c"/><stop offset=".995" stop-color="#4e4e4e"/></linearGradient><path fill="url(#g)" d="M81 122.3c.6.5 1.4.7 2.2.7 2 0 3.7-1.7 3.7-3.7 0-.8-.3-1.6-.7-2.2-.2-.3-.5-.6-.8-.8-.6-.5-1.4-.7-2.2-.7-2 0-3.7 1.7-3.7 3.7 0 .8.3 1.6.7 2.2.3.2.6.5.8.8z"/><image overflow="visible" width="7" height="7" xlink:href="C1CE3E3B.png" transform="translate(79.296 114.695)"/><image overflow="visible" width="7" height="7" xlink:href="C1CE3E36.png" transform="translate(80.296 116.695)"/><path fill="#FFF" d="M81.3 122.3l5-5.1s0-.1-.1-.1l-5.1 5.1c.1.1.1.1.2.1zM80.3 121.4s0 .1.1.1l5.1-5.1s-.1 0-.1-.1l-5.1 5.1z"/><linearGradient id="h" gradientUnits="userSpaceOnUse" x1="-411.241" y1="708.367" x2="-404.395" y2="714.791" gradientTransform="rotate(180 -162.426 415.264)"><stop offset="0" stop-color="#fff"/><stop offset=".117" stop-color="#f9f9f9"/><stop offset=".273" stop-color="#e8e8e8"/><stop offset=".452" stop-color="#ccc"/><stop offset=".648" stop-color="#a5a5a5"/><stop offset=".854" stop-color="#747474"/><stop offset=".995" stop-color="#4e4e4e"/></linearGradient><path fill="url(#h)" d="M80.4 121.5c.3.2.6.5.8.8l5.1-5.1c-.2-.3-.5-.6-.8-.8l-5.1 5.1z"/><linearGradient id="i" gradientUnits="userSpaceOnUse" x1="-403.855" y1="711.801" x2="-402.962" y2="712.695" gradientTransform="rotate(180 -160.019 415.781)"><stop offset="0"/><stop offset=".018" stop-color="#0b0b0b"/><stop offset=".071" stop-color="#232323"/><stop offset=".131" stop-color="#363636"/><stop offset=".2" stop-color="#444"/><stop offset=".287" stop-color="#4c4c4c"/><stop offset=".452" stop-color="#4e4e4e"/><stop offset=".529" stop-color="#545454"/><stop offset=".631" stop-color="#656565"/><stop offset=".748" stop-color="gray"/><stop offset=".874" stop-color="#a6a6a6"/><stop offset="1" stop-color="#d4d4d4"/></linearGradient><path fill="url(#i)" d="M80.4 121.5c.3.2.6.5.8.8l5.1-5.1c-.2-.3-.5-.6-.8-.8l-5.1 5.1z"/></g><g><image overflow="visible" width="81" height="81" xlink:href="C1CE3E37.png" transform="translate(68.296 67.695)" opacity=".4"/><linearGradient id="j" gradientUnits="userSpaceOnUse" x1="28.441" y1="-117.335" x2="22.66" y2="-121.674" gradientTransform="rotate(134.983 19.636 11.847)"><stop offset="0"/><stop offset=".301" stop-color="#030303"/><stop offset=".505" stop-color="#0c0c0c"/><stop offset=".68" stop-color="#1b1b1b"/><stop offset=".838" stop-color="#303030"/><stop offset=".984" stop-color="#4c4c4c"/><stop offset=".995" stop-color="#4e4e4e"/></linearGradient><path fill="url(#j)" d="M109.2 112.5c.8-.1 1.5-.4 2.1-1 1.4-1.4 1.4-3.8 0-5.2-.6-.6-1.3-.9-2.1-1-.4-.1-.7-.1-1.1 0-.8.1-1.5.4-2.1 1-1.4 1.4-1.4 3.8 0 5.2.6.6 1.3.9 2.1 1 .4-.1.8-.1 1.1 0z"/><image overflow="visible" width="4" height="8" xlink:href="C1CE3E48.png" transform="translate(104.296 104.695)"/><image overflow="visible" width="4" height="8" xlink:href="C1CE3E4B.png" transform="translate(109.296 104.695)"/><path fill="#FFF" d="M109.5 112.3v-7.1h-.1v7.2s0-.1.1-.1zM108.1 112.3h.1v-7.2h-.1v7.2z"/><linearGradient id="k" gradientUnits="userSpaceOnUse" x1="17.372" y1="-123.526" x2="24.223" y2="-117.098" gradientTransform="rotate(134.983 17.015 12.327)"><stop offset="0" stop-color="#fff"/><stop offset=".117" stop-color="#f9f9f9"/><stop offset=".273" stop-color="#e8e8e8"/><stop offset=".452" stop-color="#ccc"/><stop offset=".648" stop-color="#a5a5a5"/><stop offset=".854" stop-color="#747474"/><stop offset=".995" stop-color="#4e4e4e"/></linearGradient><path fill="url(#k)" d="M108.2 112.4c.4-.1.7-.1 1.1 0v-7.2c-.4-.1-.7-.1-1.1 0v7.2z"/><linearGradient id="l" gradientUnits="userSpaceOnUse" x1="24.759" y1="-120.09" x2="25.653" y2="-119.196" gradientTransform="rotate(134.983 19.636 11.847)"><stop offset="0"/><stop offset=".018" stop-color="#0b0b0b"/><stop offset=".071" stop-color="#232323"/><stop offset=".131" stop-color="#363636"/><stop offset=".2" stop-color="#444"/><stop offset=".287" stop-color="#4c4c4c"/><stop offset=".452" stop-color="#4e4e4e"/><stop offset=".529" stop-color="#545454"/><stop offset=".631" stop-color="#656565"/><stop offset=".748" stop-color="gray"/><stop offset=".874" stop-color="#a6a6a6"/><stop offset="1" stop-color="#d4d4d4"/></linearGradient><path fill="url(#l)" d="M108.2 112.4c.4-.1.7-.1 1.1 0v-7.2c-.4-.1-.7-.1-1.1 0v7.2z"/></g><g><image overflow="visible" width="81" height="81" xlink:href="2CEFE67.png" transform="translate(68.296 17.695)" opacity=".4"/><linearGradient id="m" gradientUnits="userSpaceOnUse" x1="1751.735" y1="25.932" x2="1745.955" y2="21.593" gradientTransform="rotate(44.984 887.174 -1939.392)"><stop offset="0"/><stop offset=".301" stop-color="#030303"/><stop offset=".505" stop-color="#0c0c0c"/><stop offset=".68" stop-color="#1b1b1b"/><stop offset=".838" stop-color="#303030"/><stop offset=".984" stop-color="#4c4c4c"/><stop offset=".995" stop-color="#4e4e4e"/></linearGradient><path fill="url(#m)" d="M112.5 57.4c-.1-.8-.4-1.5-1-2.1-1.4-1.4-3.8-1.4-5.2 0-.6.6-.9 1.3-1 2.1-.1.4-.1.7 0 1.1.1.8.4 1.5 1 2.1 1.4 1.4 3.8 1.4 5.2 0 .6-.6.9-1.3 1-2.1-.1-.4-.1-.7 0-1.1z"/><image overflow="visible" width="9" height="4" xlink:href="2CEFE65.png" transform="translate(104.296 57.695)"/><image overflow="visible" width="9" height="4" xlink:href="2CEFE63.png" transform="translate(104.296 53.695)"/><path fill="#FFF" d="M112.3 57.2h-7.1v.1h7.2l-.1-.1zM112.3 58.5v-.1h-7.2v.1h7.2z"/><linearGradient id="n" gradientUnits="userSpaceOnUse" x1="1740.671" y1="19.745" x2="1747.511" y2="26.163" gradientTransform="rotate(44.984 883.515 -1934.097)"><stop offset="0" stop-color="#fff"/><stop offset=".117" stop-color="#f9f9f9"/><stop offset=".273" stop-color="#e8e8e8"/><stop offset=".452" stop-color="#ccc"/><stop offset=".648" stop-color="#a5a5a5"/><stop offset=".854" stop-color="#747474"/><stop offset=".995" stop-color="#4e4e4e"/></linearGradient><path fill="url(#n)" d="M112.4 58.4c-.1-.4-.1-.7 0-1.1h-7.2c-.1.4-.1.7 0 1.1h7.2z"/><linearGradient id="o" gradientUnits="userSpaceOnUse" x1="1748.053" y1="23.176" x2="1748.947" y2="24.071" gradientTransform="rotate(44.984 887.174 -1939.392)"><stop offset="0"/><stop offset=".018" stop-color="#0b0b0b"/><stop offset=".071" stop-color="#232323"/><stop offset=".131" stop-color="#363636"/><stop offset=".2" stop-color="#444"/><stop offset=".287" stop-color="#4c4c4c"/><stop offset=".452" stop-color="#4e4e4e"/><stop offset=".529" stop-color="#545454"/><stop offset=".631" stop-color="#656565"/><stop offset=".748" stop-color="gray"/><stop offset=".874" stop-color="#a6a6a6"/><stop offset="1" stop-color="#d4d4d4"/></linearGradient><path fill="url(#o)" d="M112.4 58.4c-.1-.4-.1-.7 0-1.1h-7.2c-.1.4-.1.7 0 1.1h7.2z"/></g><g><image overflow="visible" width="82" height="81" xlink:href="2CEFE7D.png" transform="translate(42.295 6.695)" opacity=".4"/><linearGradient id="p" gradientUnits="userSpaceOnUse" x1="2036.909" y1="917.164" x2="2031.129" y2="912.825" gradientTransform="translate(-1950.602 -866.9)"><stop offset="0"/><stop offset=".301" stop-color="#030303"/><stop offset=".505" stop-color="#0c0c0c"/><stop offset=".68" stop-color="#1b1b1b"/><stop offset=".838" stop-color="#303030"/><stop offset=".984" stop-color="#4c4c4c"/><stop offset=".995" stop-color="#4e4e4e"/></linearGradient><path fill="url(#p)" d="M85.6 44.4c-.6-.5-1.4-.7-2.2-.7-2 0-3.7 1.7-3.7 3.7 0 .8.3 1.6.7 2.2.2.3.5.6.8.8.6.5 1.4.7 2.2.7 2 0 3.7-1.7 3.7-3.7 0-.8-.3-1.6-.7-2.2-.3-.3-.6-.5-.8-.8z"/><image overflow="visible" width="7" height="7" xlink:href="2CEFE7F.png" transform="translate(80.296 44.695)"/><image overflow="visible" width="7" height="7" xlink:href="2CEFE62.png" transform="translate(79.296 42.695)"/><path fill="#FFF" d="M85.3 44.3l-5 5.1s0 .1.1.1l5.1-5.1c-.1 0-.1-.1-.2-.1zM86.3 45.3s0-.1-.1-.1l-5.1 5.1s.1 0 .1.1l5.1-5.1z"/><linearGradient id="q" gradientUnits="userSpaceOnUse" x1="2025.845" y1="910.978" x2="2032.686" y2="917.395" gradientTransform="translate(-1945.787 -865.865)"><stop offset="0" stop-color="#fff"/><stop offset=".117" stop-color="#f9f9f9"/><stop offset=".273" stop-color="#e8e8e8"/><stop offset=".452" stop-color="#ccc"/><stop offset=".648" stop-color="#a5a5a5"/><stop offset=".854" stop-color="#747474"/><stop offset=".995" stop-color="#4e4e4e"/></linearGradient><path fill="url(#q)" d="M86.2 45.2c-.3-.2-.6-.5-.8-.8l-5.1 5.1c.2.3.5.6.8.8l5.1-5.1z"/><linearGradient id="r" gradientUnits="userSpaceOnUse" x1="2033.228" y1="914.409" x2="2034.121" y2="915.303" gradientTransform="translate(-1950.602 -866.9)"><stop offset="0"/><stop offset=".018" stop-color="#0b0b0b"/><stop offset=".071" stop-color="#232323"/><stop offset=".131" stop-color="#363636"/><stop offset=".2" stop-color="#444"/><stop offset=".287" stop-color="#4c4c4c"/><stop offset=".452" stop-color="#4e4e4e"/><stop offset=".529" stop-color="#545454"/><stop offset=".631" stop-color="#656565"/><stop offset=".748" stop-color="gray"/><stop offset=".874" stop-color="#a6a6a6"/><stop offset="1" stop-color="#d4d4d4"/></linearGradient><path fill="url(#r)" d="M86.2 45.2c-.3-.2-.6-.5-.8-.8l-5.1 5.1c.2.3.5.6.8.8l5.1-5.1z"/></g><g><image overflow="visible" width="81" height="81" xlink:href="2CEFE61.png" transform="translate(17.296 17.695)" opacity=".4"/><linearGradient id="s" gradientUnits="userSpaceOnUse" x1="1608.467" y1="1749.227" x2="1602.687" y2="1744.888" gradientTransform="rotate(-45.017 -1206.474 2769.404)"><stop offset="0"/><stop offset=".301" stop-color="#030303"/><stop offset=".505" stop-color="#0c0c0c"/><stop offset=".68" stop-color="#1b1b1b"/><stop offset=".838" stop-color="#303030"/><stop offset=".984" stop-color="#4c4c4c"/><stop offset=".995" stop-color="#4e4e4e"/></linearGradient><path fill="url(#s)" d="M57.4 54.2c-.7.1-1.5.4-2.1 1-1.4 1.4-1.4 3.8 0 5.2.6.6 1.3.9 2.1 1 .4.1.7.1 1.1 0 .8-.1 1.5-.4 2.1-1 1.4-1.4 1.4-3.8 0-5.2-.6-.6-1.3-.9-2.1-1h-1.1z"/><image overflow="visible" width="4" height="8" xlink:href="2CEFE66.png" transform="translate(58.295 53.695)"/><image overflow="visible" width="5" height="8" xlink:href="2CEFE60.png" transform="translate(53.295 53.695)"/><path fill="#FFF" d="M57.2 54.3v7.1h.1v-7.2c0 .1-.1.1-.1.1zM58.5 54.3h-.1v7.2h.1v-7.2z"/><linearGradient id="t" gradientUnits="userSpaceOnUse" x1="1597.407" y1="1743.043" x2="1604.24" y2="1749.453" gradientTransform="rotate(-45.017 -1207.63 2763.078)"><stop offset="0" stop-color="#fff"/><stop offset=".117" stop-color="#f9f9f9"/><stop offset=".273" stop-color="#e8e8e8"/><stop offset=".452" stop-color="#ccc"/><stop offset=".648" stop-color="#a5a5a5"/><stop offset=".854" stop-color="#747474"/><stop offset=".995" stop-color="#4e4e4e"/></linearGradient><path fill="url(#t)" d="M58.4 54.3c-.4.1-.7.1-1.1 0v7.2c.4.1.7.1 1.1 0v-7.2z"/><linearGradient id="u" gradientUnits="userSpaceOnUse" x1="1604.786" y1="1746.471" x2="1605.68" y2="1747.365" gradientTransform="rotate(-45.017 -1206.474 2769.404)"><stop offset="0"/><stop offset=".018" stop-color="#0b0b0b"/><stop offset=".071" stop-color="#232323"/><stop offset=".131" stop-color="#363636"/><stop offset=".2" stop-color="#444"/><stop offset=".287" stop-color="#4c4c4c"/><stop offset=".452" stop-color="#4e4e4e"/><stop offset=".529" stop-color="#545454"/><stop offset=".631" stop-color="#656565"/><stop offset=".748" stop-color="gray"/><stop offset=".874" stop-color="#a6a6a6"/><stop offset="1" stop-color="#d4d4d4"/></linearGradient><path fill="url(#u)" d="M58.4 54.3c-.4.1-.7.1-1.1 0v7.2c.4.1.7.1 1.1 0v-7.2z"/></g><g><image overflow="visible" width="81" height="81" xlink:href="2CEFE6E.png" transform="translate(7.295 42.695)" opacity=".4"/><linearGradient id="v" gradientUnits="userSpaceOnUse" x1="717.061" y1="2034.402" x2="711.281" y2="2030.063" gradientTransform="rotate(-90.016 -593.524 1390.822)"><stop offset="0"/><stop offset=".301" stop-color="#030303"/><stop offset=".505" stop-color="#0c0c0c"/><stop offset=".68" stop-color="#1b1b1b"/><stop offset=".838" stop-color="#303030"/><stop offset=".984" stop-color="#4c4c4c"/><stop offset=".995" stop-color="#4e4e4e"/></linearGradient><path fill="url(#v)" d="M44.4 81c-.5.6-.7 1.4-.7 2.2 0 2 1.7 3.7 3.7 3.7.8 0 1.6-.3 2.2-.7.3-.2.6-.5.8-.8.4-.6.7-1.4.7-2.2 0-2-1.7-3.7-3.7-3.7-.8 0-1.6.3-2.2.7-.3.3-.5.6-.8.8z"/><image overflow="visible" width="7" height="7" xlink:href="2CEFE86.png" transform="translate(44.295 78.695)"/><image overflow="visible" width="7" height="7" xlink:href="2CEFE85.png" transform="translate(43.295 80.695)"/><path fill="#FFF" d="M44.3 81.3l5.1 5s.1 0 .1-.1l-5.1-5.1c-.1.1-.1.1-.1.2zM45.3 80.3s-.1 0-.1.1l5.1 5.1s0-.1.1-.1l-5.1-5.1z"/><linearGradient id="w" gradientUnits="userSpaceOnUse" x1="706" y1="2028.217" x2="712.839" y2="2034.633" gradientTransform="rotate(-90.016 -595.413 1387.899)"><stop offset="0" stop-color="#fff"/><stop offset=".117" stop-color="#f9f9f9"/><stop offset=".273" stop-color="#e8e8e8"/><stop offset=".452" stop-color="#ccc"/><stop offset=".648" stop-color="#a5a5a5"/><stop offset=".854" stop-color="#747474"/><stop offset=".995" stop-color="#4e4e4e"/></linearGradient><path fill="url(#w)" d="M45.2 80.4c-.2.3-.5.6-.8.8l5.1 5.1c.3-.2.6-.5.8-.8l-5.1-5.1z"/><linearGradient id="x" gradientUnits="userSpaceOnUse" x1="713.38" y1="2031.647" x2="714.274" y2="2032.541" gradientTransform="rotate(-90.016 -593.524 1390.822)"><stop offset="0"/><stop offset=".018" stop-color="#0b0b0b"/><stop offset=".071" stop-color="#232323"/><stop offset=".131" stop-color="#363636"/><stop offset=".2" stop-color="#444"/><stop offset=".287" stop-color="#4c4c4c"/><stop offset=".452" stop-color="#4e4e4e"/><stop offset=".529" stop-color="#545454"/><stop offset=".631" stop-color="#656565"/><stop offset=".748" stop-color="gray"/><stop offset=".874" stop-color="#a6a6a6"/><stop offset="1" stop-color="#d4d4d4"/></linearGradient><path fill="url(#x)" d="M45.2 80.4c-.2.3-.5.6-.8.8l5.1 5.1c.3-.2.6-.5.8-.8l-5.1-5.1z"/></g><g><image overflow="visible" width="81" height="81" xlink:href="2CEFE82.png" transform="translate(78.296 42.695)" opacity=".4"/><linearGradient id="y" gradientUnits="userSpaceOnUse" x1="717.061" y1="2105.931" x2="711.281" y2="2101.592" gradientTransform="rotate(-90.016 -593.524 1390.822)"><stop offset="0"/><stop offset=".301" stop-color="#030303"/><stop offset=".505" stop-color="#0c0c0c"/><stop offset=".68" stop-color="#1b1b1b"/><stop offset=".838" stop-color="#303030"/><stop offset=".984" stop-color="#4c4c4c"/><stop offset=".995" stop-color="#4e4e4e"/></linearGradient><path fill="url(#y)" d="M115.9 81c-.5.6-.7 1.4-.7 2.2 0 2 1.7 3.7 3.7 3.7.8 0 1.6-.3 2.2-.7.3-.2.6-.5.8-.8.4-.6.7-1.4.7-2.2 0-2-1.7-3.7-3.7-3.7-.8 0-1.6.3-2.2.7-.2.3-.5.6-.8.8z"/><image overflow="visible" width="7" height="7" xlink:href="2CEFE8D.png" transform="translate(116.296 78.695)"/><image overflow="visible" width="7" height="7" xlink:href="2CEFE8E.png" transform="translate(114.296 80.695)"/><path fill="#FFF" d="M115.8 81.3l5.1 5s.1 0 .1-.1l-5.1-5.1c0 .1 0 .1-.1.2zM116.8 80.3s-.1 0-.1.1l5.1 5.1s0-.1.1-.1l-5.1-5.1z"/><linearGradient id="z" gradientUnits="userSpaceOnUse" x1="705.998" y1="2099.745" x2="712.839" y2="2106.162" gradientTransform="rotate(-90.016 -595.413 1387.899)"><stop offset="0" stop-color="#fff"/><stop offset=".117" stop-color="#f9f9f9"/><stop offset=".273" stop-color="#e8e8e8"/><stop offset=".452" stop-color="#ccc"/><stop offset=".648" stop-color="#a5a5a5"/><stop offset=".854" stop-color="#747474"/><stop offset=".995" stop-color="#4e4e4e"/></linearGradient><path fill="url(#z)" d="M116.7 80.4c-.2.3-.5.6-.8.8l5.1 5.1c.3-.2.6-.5.8-.8l-5.1-5.1z"/><linearGradient id="A" gradientUnits="userSpaceOnUse" x1="713.381" y1="2103.176" x2="714.274" y2="2104.069" gradientTransform="rotate(-90.016 -593.524 1390.822)"><stop offset="0"/><stop offset=".018" stop-color="#0b0b0b"/><stop offset=".071" stop-color="#232323"/><stop offset=".131" stop-color="#363636"/><stop offset=".2" stop-color="#444"/><stop offset=".287" stop-color="#4c4c4c"/><stop offset=".452" stop-color="#4e4e4e"/><stop offset=".529" stop-color="#545454"/><stop offset=".631" stop-color="#656565"/><stop offset=".748" stop-color="gray"/><stop offset=".874" stop-color="#a6a6a6"/><stop offset="1" stop-color="#d4d4d4"/></linearGradient><path fill="url(#A)" d="M116.7 80.4c-.2.3-.5.6-.8.8l5.1 5.1c.3-.2.6-.5.8-.8l-5.1-5.1z"/></g></g></svg>