<svg xmlns="http://www.w3.org/2000/svg" xmlns:xlink="http://www.w3.org/1999/xlink" viewBox="0 0 132 132"><g opacity=".54"><linearGradient id="a" gradientUnits="userSpaceOnUse" x1="-593.013" y1="642.115" x2="-399.379" y2="642.115" gradientTransform="scale(1 -1) rotate(-89.984 -576.514 0)"><stop offset="0" stop-color="#c6c6c6"/><stop offset=".003" stop-color="#bebebe"/><stop offset=".021" stop-color="#999898"/><stop offset=".039" stop-color="#797777"/><stop offset=".06" stop-color="#5e5c5c"/><stop offset=".081" stop-color="#4a4848"/><stop offset=".106" stop-color="#3c3939"/><stop offset=".135" stop-color="#343131"/><stop offset=".183" stop-color="#312e2e"/><stop offset=".226" stop-color="#373434"/><stop offset=".284" stop-color="#474545"/><stop offset=".349" stop-color="#636161"/><stop offset=".421" stop-color="#888787"/><stop offset=".497" stop-color="#b8b8b8"/><stop offset=".516" stop-color="#c6c6c6"/><stop offset=".774" stop-color="#5b5a5a"/><stop offset="1" stop-color="#908e8e"/></linearGradient><path fill="url(#a)" d="M17.8 56.9c-.6 3.5-.9 6.9-.7 10.4l-4.8.9-9 6 .9 5.5 10.4 2.8 5.1-1c1.1 3.3 2.6 6.4 4.4 9.4L20.4 94l-4.9 9.7 3.4 4.3 10.5-2.7 4-3.4 3.3 2.7c1.7 1.2 3.4 2.3 5.2 3.3l-1.7 4.5.5 10.8 5.1 2.1 7.8-7.5 1.8-4.9c4.4.9 8.8 1.2 13.2 1l1 4.7 6.3 8.9 5.4-1 2.5-10.5-1.1-5.1c3.2-1.2 6.4-2.8 9.3-4.7l3.2 3.6 9.8 4.6 4.2-3.6-3-10.4-3.5-3.9c.6-.7 1.2-1.5 1.8-2.3 1.5-2.1 2.9-4.2 4-6.4l4.6 1.6 10.8-.8 1.9-5.2-7.7-7.6-4.9-1.7c.6-3.5.9-6.9.7-10.4l4.8-.9 9-6-.9-5.5-10.4-2.8-5.1 1c-1.1-3.3-2.6-6.4-4.5-9.4l3.7-3.1 4.9-9.7L112 23l-10.5 2.7-4 3.4a7272929126779848 7272929126779848 0 0 1-8.5-6l1.7-4.5-.2-10.8-5.1-2.1-7.8 7.5-1.8 4.9c-4.4-.9-8.8-1.2-13.2-1l-1-4.7-6.3-8.9-5.4 1L47.4 15l1.1 5.1c-3.2 1.2-6.4 2.8-9.3 4.7L36 21.2l-9.8-4.6-4.2 3.6 3 10.4 3.5 3.9c-.6.7-1.2 1.5-1.8 2.3-1.5 2.1-2.9 4.2-4 6.4l-4.6-1.6-11 .8-1.9 5.2 7.7 7.6 4.9 1.7zm47.8-23.1c17.6 0 31.8 14.2 31.8 31.8S83.2 97.4 65.6 97.4 33.8 83.2 33.8 65.6 48 33.8 65.6 33.8z"/><linearGradient id="b" gradientUnits="userSpaceOnUse" x1="-580.772" y1="572.056" x2="-415.934" y2="736.894" gradientTransform="scale(1 -1) rotate(-89.984 -576.514 0)"><stop offset="0" stop-color="#c6c6c6"/><stop offset=".043" stop-color="#afafaf"/><stop offset=".144" stop-color="#807e7e"/><stop offset=".194" stop-color="#6d6b6b"/><stop offset=".266" stop-color="#7c7a7a"/><stop offset=".407" stop-color="#a3a2a2"/><stop offset=".516" stop-color="#c6c6c6"/><stop offset=".567" stop-color="silver"/><stop offset=".635" stop-color="#afafaf"/><stop offset=".714" stop-color="#939292"/><stop offset=".799" stop-color="#6c6b6b"/><stop offset=".817" stop-color="#636262"/><stop offset="1" stop-color="#908e8e"/></linearGradient><path fill="url(#b)" d="M65.6 103.4c20.8 0 37.7-16.9 37.7-37.7 0-20.8-16.9-37.7-37.7-37.7-20.8 0-37.7 16.9-37.7 37.7 0 20.8 16.9 37.7 37.7 37.7zM49.2 53.5c6.7-9.1 19.5-11 28.5-4.3 9.1 6.7 11 19.5 4.3 28.5-6.7 9.1-19.5 11-28.5 4.3-9.1-6.6-11-19.4-4.3-28.5z"/><linearGradient id="c" gradientUnits="userSpaceOnUse" x1="-546.084" y1="606.744" x2="-462.861" y2="689.967" gradientTransform="scale(1 -1) rotate(-89.984 -576.514 0)"><stop offset="0" stop-color="#626262"/><stop offset=".18" stop-color="#313131"/><stop offset=".269" stop-color="#1e1e1e"/><stop offset=".425" stop-color="#3e3e3e"/><stop offset=".758" stop-color="#8d8d8d"/><stop offset=".989" stop-color="#3f3f3f"/></linearGradient><path fill="url(#c)" d="M65.6 103.4c20.8 0 37.7-16.9 37.7-37.7 0-20.8-16.9-37.7-37.7-37.7-20.8 0-37.7 16.9-37.7 37.7 0 20.8 16.9 37.7 37.7 37.7zM49.2 53.5c6.7-9.1 19.5-11 28.5-4.3 9.1 6.7 11 19.5 4.3 28.5-6.7 9.1-19.5 11-28.5 4.3-9.1-6.6-11-19.4-4.3-28.5z"/><linearGradient id="d" gradientUnits="userSpaceOnUse" x1="-550.707" y1="642.115" x2="-470.717" y2="642.115" gradientTransform="scale(1 -1) rotate(-89.984 -576.514 0)"><stop offset="0" stop-color="#626262"/><stop offset=".015" stop-color="#6c6c6c"/><stop offset=".138" stop-color="#bbb"/><stop offset=".226" stop-color="#ececec"/><stop offset=".269" stop-color="#fff"/><stop offset=".421" stop-color="#dfdfdf"/><stop offset=".754" stop-color="#8e8e8e"/><stop offset=".758" stop-color="#8d8d8d"/><stop offset=".989" stop-color="#3f3f3f"/></linearGradient><linearGradient id="e" gradientUnits="userSpaceOnUse" x1="-551.207" y1="642.115" x2="-470.217" y2="642.115" gradientTransform="scale(1 -1) rotate(-89.984 -576.514 0)"><stop offset=".011" stop-color="#3f3f3f"/><stop offset=".242" stop-color="#8d8d8d"/><stop offset=".246" stop-color="#8e8e8e"/><stop offset=".579" stop-color="#dfdfdf"/><stop offset=".731" stop-color="#fff"/><stop offset=".774" stop-color="#ececec"/><stop offset=".862" stop-color="#bbb"/><stop offset=".985" stop-color="#6c6c6c"/><stop offset="1" stop-color="#626262"/></linearGradient><path fill="url(#d)" stroke="url(#e)" stroke-miterlimit="10" d="M65.6 25.6c22.1 0 40 17.9 40 40s-17.9 40-40 40-40-17.9-40-40c0-22 18-40 40-40zm0 75.5c19.6 0 35.5-15.9 35.5-35.5S85.2 30.1 65.6 30.1 30.1 46 30.1 65.6s16 35.5 35.5 35.5zm0-58.2c4.9 0 9.5 1.5 13.4 4.4 4.9 3.6 8.1 8.9 9 14.9.9 6-.6 12-4.2 16.8-4.3 5.8-11.1 9.2-18.3 9.2-4.9 0-9.5-1.5-13.4-4.4-4.9-3.6-8.1-8.9-9-14.9-.9-6 .6-12 4.2-16.8 4.3-5.7 11.1-9.2 18.3-9.2zm0 40.9c5.8 0 11.2-2.8 14.6-7.4 2.9-3.9 4.1-8.7 3.3-13.5-.7-4.8-3.3-9-7.2-11.9-3.1-2.3-6.9-3.5-10.8-3.5-5.8 0-11.2 2.8-14.6 7.4-2.9 3.9-4.1 8.7-3.3 13.5.7 4.8 3.3 9 7.2 11.9 3.2 2.3 6.9 3.5 10.8 3.5z"/><image overflow="visible" width="77" height="77" xlink:href="464A4F51.png" transform="translate(27 55)" opacity=".4"/><linearGradient id="f" gradientUnits="userSpaceOnUse" x1="927.372" y1="-386.342" x2="924.665" y2="-388.375" gradientTransform="rotate(89.984 255.313 -577.233)"><stop offset="0"/><stop offset=".301" stop-color="#030303"/><stop offset=".505" stop-color="#0c0c0c"/><stop offset=".68" stop-color="#1b1b1b"/><stop offset=".838" stop-color="#303030"/><stop offset=".984" stop-color="#4c4c4c"/><stop offset=".995" stop-color="#4e4e4e"/></linearGradient><path fill="url(#f)" d="M67.1 94.4c.2-.3.3-.6.3-1 0-1-.8-1.7-1.7-1.7-.4 0-.7.1-1 .3-.1.1-.3.2-.4.4-.2.3-.3.6-.3 1 0 1 .8 1.7 1.7 1.7.4 0 .7-.1 1-.3l.4-.4z"/><image overflow="visible" width="3" height="4" xlink:href="464A4F53.png" transform="translate(64 92)"/><image overflow="visible" width="4" height="4" xlink:href="464A4F56.png" transform="translate(64 91)"/><path fill="#FFF" d="M67.1 94.3l-2.4-2.4h-.1l2.5 2.4zM66.7 94.8c0-.1 0-.1 0 0l-2.3-2.4v.1l2.3 2.3z"/><linearGradient id="g" gradientUnits="userSpaceOnUse" x1="919.627" y1="-389.792" x2="922.838" y2="-386.78" gradientTransform="rotate(89.984 252.388 -575.343)"><stop offset="0" stop-color="#fff"/><stop offset=".117" stop-color="#f9f9f9"/><stop offset=".273" stop-color="#e8e8e8"/><stop offset=".452" stop-color="#ccc"/><stop offset=".648" stop-color="#a5a5a5"/><stop offset=".854" stop-color="#747474"/><stop offset=".995" stop-color="#4e4e4e"/></linearGradient><path fill="url(#g)" d="M66.7 94.7c.1-.1.2-.3.4-.4L64.7 92c-.1.1-.3.2-.4.4l2.4 2.3z"/><linearGradient id="h" gradientUnits="userSpaceOnUse" x1="925.647" y1="-387.633" x2="926.068" y2="-387.212" gradientTransform="rotate(89.984 255.313 -577.233)"><stop offset="0"/><stop offset=".018" stop-color="#0b0b0b"/><stop offset=".071" stop-color="#232323"/><stop offset=".131" stop-color="#363636"/><stop offset=".2" stop-color="#444"/><stop offset=".287" stop-color="#4c4c4c"/><stop offset=".452" stop-color="#4e4e4e"/><stop offset=".529" stop-color="#545454"/><stop offset=".631" stop-color="#656565"/><stop offset=".748" stop-color="gray"/><stop offset=".874" stop-color="#a6a6a6"/><stop offset="1" stop-color="#d4d4d4"/></linearGradient><path fill="url(#h)" d="M66.7 94.7c.1-.1.2-.3.4-.4L64.7 92c-.1.1-.3.2-.4.4l2.4 2.3z"/><g><image overflow="visible" width="77" height="77" xlink:href="464A4F57.png" transform="translate(47 47)" opacity=".4"/><linearGradient id="i" gradientUnits="userSpaceOnUse" x1="1874.159" y1="-223.595" x2="1871.453" y2="-225.627" gradientTransform="rotate(44.984 604.748 -2228.131)"><stop offset="0"/><stop offset=".301" stop-color="#030303"/><stop offset=".505" stop-color="#0c0c0c"/><stop offset=".68" stop-color="#1b1b1b"/><stop offset=".838" stop-color="#303030"/><stop offset=".984" stop-color="#4c4c4c"/><stop offset=".995" stop-color="#4e4e4e"/></linearGradient><path fill="url(#i)" d="M87 84.9c-.1-.4-.2-.7-.5-1-.7-.7-1.8-.7-2.4 0-.3.3-.4.6-.5 1v.5c.1.4.2.7.5 1 .7.7 1.8.7 2.4 0 .3-.3.4-.6.5-1v-.5z"/><image overflow="visible" width="4" height="2" xlink:href="464A4F52.png" transform="translate(83 85)"/><image overflow="visible" width="4" height="2" xlink:href="464A4F5D.png" transform="translate(83 83)"/><path fill="#FFF" d="M87 84.8h-3.3v.1l3.3-.1c0 .1 0 .1 0 0zM87 85.5s0-.1 0 0l-3.4-.1v.1H87z"/><linearGradient id="j" gradientUnits="userSpaceOnUse" x1="1866.415" y1="-227.046" x2="1869.625" y2="-224.034" gradientTransform="rotate(44.984 601.09 -2222.835)"><stop offset="0" stop-color="#fff"/><stop offset=".117" stop-color="#f9f9f9"/><stop offset=".273" stop-color="#e8e8e8"/><stop offset=".452" stop-color="#ccc"/><stop offset=".648" stop-color="#a5a5a5"/><stop offset=".854" stop-color="#747474"/><stop offset=".995" stop-color="#4e4e4e"/></linearGradient><path fill="url(#j)" d="M87 85.4v-.5h-3.4v.5H87z"/><linearGradient id="k" gradientUnits="userSpaceOnUse" x1="1872.435" y1="-224.886" x2="1872.855" y2="-224.466" gradientTransform="rotate(44.984 604.748 -2228.131)"><stop offset="0"/><stop offset=".018" stop-color="#0b0b0b"/><stop offset=".071" stop-color="#232323"/><stop offset=".131" stop-color="#363636"/><stop offset=".2" stop-color="#444"/><stop offset=".287" stop-color="#4c4c4c"/><stop offset=".452" stop-color="#4e4e4e"/><stop offset=".529" stop-color="#545454"/><stop offset=".631" stop-color="#656565"/><stop offset=".748" stop-color="gray"/><stop offset=".874" stop-color="#a6a6a6"/><stop offset="1" stop-color="#d4d4d4"/></linearGradient><path fill="url(#k)" d="M87 85.4v-.5h-3.4v.5H87z"/></g><g><image overflow="visible" width="77" height="77" xlink:href="464A4F5E.png" transform="translate(55 27)" opacity=".4"/><linearGradient id="l" gradientUnits="userSpaceOnUse" x1="2428.45" y1="560.766" x2="2425.744" y2="558.735" gradientTransform="translate(-2333.729 -493.45)"><stop offset="0"/><stop offset=".301" stop-color="#030303"/><stop offset=".505" stop-color="#0c0c0c"/><stop offset=".68" stop-color="#1b1b1b"/><stop offset=".838" stop-color="#303030"/><stop offset=".984" stop-color="#4c4c4c"/><stop offset=".995" stop-color="#4e4e4e"/></linearGradient><path fill="url(#l)" d="M94.4 64.1c-.3-.2-.6-.3-1-.3-1 0-1.7.8-1.7 1.7 0 .4.1.7.3 1 .1.1.2.3.4.4.3.2.6.3 1 .3 1 0 1.7-.8 1.7-1.7 0-.4-.1-.7-.3-1-.1-.1-.3-.2-.4-.4z"/><image overflow="visible" width="4" height="4" xlink:href="464A4F5F.png" transform="translate(92 64)"/><image overflow="visible" width="4" height="4" xlink:href="464A4F54.png" transform="translate(91 63)"/><path fill="#FFF" d="M94.3 64.1l-2.4 2.4v.1l2.4-2.5zM94.8 64.6c-.1-.1-.1-.1 0 0l-2.4 2.3h.1l2.3-2.3z"/><linearGradient id="m" gradientUnits="userSpaceOnUse" x1="2420.707" y1="557.315" x2="2423.915" y2="560.325" gradientTransform="translate(-2328.914 -492.414)"><stop offset="0" stop-color="#fff"/><stop offset=".117" stop-color="#f9f9f9"/><stop offset=".273" stop-color="#e8e8e8"/><stop offset=".452" stop-color="#ccc"/><stop offset=".648" stop-color="#a5a5a5"/><stop offset=".854" stop-color="#747474"/><stop offset=".995" stop-color="#4e4e4e"/></linearGradient><path fill="url(#m)" d="M94.7 64.5c-.1-.1-.3-.2-.4-.4L92 66.5c.1.1.2.3.4.4l2.3-2.4z"/><linearGradient id="n" gradientUnits="userSpaceOnUse" x1="2426.726" y1="559.475" x2="2427.145" y2="559.895" gradientTransform="translate(-2333.729 -493.45)"><stop offset="0"/><stop offset=".018" stop-color="#0b0b0b"/><stop offset=".071" stop-color="#232323"/><stop offset=".131" stop-color="#363636"/><stop offset=".2" stop-color="#444"/><stop offset=".287" stop-color="#4c4c4c"/><stop offset=".452" stop-color="#4e4e4e"/><stop offset=".529" stop-color="#545454"/><stop offset=".631" stop-color="#656565"/><stop offset=".748" stop-color="gray"/><stop offset=".874" stop-color="#a6a6a6"/><stop offset="1" stop-color="#d4d4d4"/></linearGradient><path fill="url(#n)" d="M94.7 64.5c-.1-.1-.3-.2-.4-.4L92 66.5c.1.1.2.3.4.4l2.3-2.4z"/></g><g><image overflow="visible" width="77" height="76" xlink:href="28BD76CA.png" transform="translate(47 8)" opacity=".4"/><linearGradient id="o" gradientUnits="userSpaceOnUse" x1="2265.881" y1="1507.55" x2="2263.174" y2="1505.517" gradientTransform="rotate(-45.017 -587.553 3405.634)"><stop offset="0"/><stop offset=".301" stop-color="#030303"/><stop offset=".505" stop-color="#0c0c0c"/><stop offset=".68" stop-color="#1b1b1b"/><stop offset=".838" stop-color="#303030"/><stop offset=".984" stop-color="#4c4c4c"/><stop offset=".995" stop-color="#4e4e4e"/></linearGradient><path fill="url(#o)" d="M84.9 44.2c-.4.1-.7.2-1 .5-.7.7-.7 1.8 0 2.4.3.3.6.4 1 .5h.5c.4-.1.7-.2 1-.5.7-.7.7-1.8 0-2.4-.3-.3-.6-.4-1-.5h-.5z"/><image overflow="visible" width="2" height="4" xlink:href="28BD76CD.png" transform="translate(85 44)"/><image overflow="visible" width="2" height="4" xlink:href="28BD76CE.png" transform="translate(83 44)"/><path fill="#FFF" d="M84.8 44.3v3.3h.1l-.1-3.3c.1 0 .1 0 0 0zM85.5 44.3s-.1 0 0 0l-.1 3.4h.1v-3.4z"/><linearGradient id="p" gradientUnits="userSpaceOnUse" x1="2258.138" y1="1504.099" x2="2261.345" y2="1507.107" gradientTransform="rotate(-45.017 -588.71 3399.308)"><stop offset="0" stop-color="#fff"/><stop offset=".117" stop-color="#f9f9f9"/><stop offset=".273" stop-color="#e8e8e8"/><stop offset=".452" stop-color="#ccc"/><stop offset=".648" stop-color="#a5a5a5"/><stop offset=".854" stop-color="#747474"/><stop offset=".995" stop-color="#4e4e4e"/></linearGradient><path fill="url(#p)" d="M85.4 44.3h-.5v3.4h.5v-3.4z"/><linearGradient id="q" gradientUnits="userSpaceOnUse" x1="2264.156" y1="1506.259" x2="2264.576" y2="1506.679" gradientTransform="rotate(-45.017 -587.553 3405.634)"><stop offset="0"/><stop offset=".018" stop-color="#0b0b0b"/><stop offset=".071" stop-color="#232323"/><stop offset=".131" stop-color="#363636"/><stop offset=".2" stop-color="#444"/><stop offset=".287" stop-color="#4c4c4c"/><stop offset=".452" stop-color="#4e4e4e"/><stop offset=".529" stop-color="#545454"/><stop offset=".631" stop-color="#656565"/><stop offset=".748" stop-color="gray"/><stop offset=".874" stop-color="#a6a6a6"/><stop offset="1" stop-color="#d4d4d4"/></linearGradient><path fill="url(#q)" d="M85.4 44.3h-.5v3.4h.5v-3.4z"/></g><g><image overflow="visible" width="77" height="76" xlink:href="28BD76CC.png" transform="translate(27)" opacity=".4"/><linearGradient id="r" gradientUnits="userSpaceOnUse" x1="1481.344" y1="2061.845" x2="1478.637" y2="2059.812" gradientTransform="rotate(-90.016 -238.47 1756.259)"><stop offset="0"/><stop offset=".301" stop-color="#030303"/><stop offset=".505" stop-color="#0c0c0c"/><stop offset=".68" stop-color="#1b1b1b"/><stop offset=".838" stop-color="#303030"/><stop offset=".984" stop-color="#4c4c4c"/><stop offset=".995" stop-color="#4e4e4e"/></linearGradient><path fill="url(#r)" d="M64.1 36.8c-.2.3-.3.6-.3 1 0 1 .8 1.7 1.7 1.7.4 0 .7-.1 1-.3.1-.1.3-.2.4-.4.2-.3.3-.6.3-1 0-1-.8-1.7-1.7-1.7-.4 0-.7.1-1 .3-.1.2-.2.3-.4.4z"/><image overflow="visible" width="4" height="3" xlink:href="28BD76CB.png" transform="translate(64 36)"/><image overflow="visible" width="4" height="4" xlink:href="28BD76D5.png" transform="translate(63 36)"/><path fill="#FFF" d="M64.1 36.9l2.4 2.4h.1l-2.5-2.4zM64.6 36.5c-.1 0-.1 0 0 0l2.3 2.4v-.1l-2.3-2.3z"/><linearGradient id="s" gradientUnits="userSpaceOnUse" x1="1473.601" y1="2058.394" x2="1476.806" y2="2061.401" gradientTransform="rotate(-90.016 -240.358 1753.334)"><stop offset="0" stop-color="#fff"/><stop offset=".117" stop-color="#f9f9f9"/><stop offset=".273" stop-color="#e8e8e8"/><stop offset=".452" stop-color="#ccc"/><stop offset=".648" stop-color="#a5a5a5"/><stop offset=".854" stop-color="#747474"/><stop offset=".995" stop-color="#4e4e4e"/></linearGradient><path fill="url(#s)" d="M64.5 36.5c-.1.1-.2.3-.4.4l2.4 2.4c.1-.1.3-.2.4-.4l-2.4-2.4z"/><linearGradient id="t" gradientUnits="userSpaceOnUse" x1="1479.619" y1="2060.554" x2="1480.039" y2="2060.973" gradientTransform="rotate(-90.016 -238.47 1756.259)"><stop offset="0"/><stop offset=".018" stop-color="#0b0b0b"/><stop offset=".071" stop-color="#232323"/><stop offset=".131" stop-color="#363636"/><stop offset=".2" stop-color="#444"/><stop offset=".287" stop-color="#4c4c4c"/><stop offset=".452" stop-color="#4e4e4e"/><stop offset=".529" stop-color="#545454"/><stop offset=".631" stop-color="#656565"/><stop offset=".748" stop-color="gray"/><stop offset=".874" stop-color="#a6a6a6"/><stop offset="1" stop-color="#d4d4d4"/></linearGradient><path fill="url(#t)" d="M64.5 36.5c-.1.1-.2.3-.4.4l2.4 2.4c.1-.1.3-.2.4-.4l-2.4-2.4z"/></g><g><image overflow="visible" width="76" height="76" xlink:href="28BD76D6.png" transform="translate(8 8)" opacity=".4"/><linearGradient id="u" gradientUnits="userSpaceOnUse" x1="534.735" y1="1899.271" x2="532.028" y2="1897.238" gradientTransform="rotate(-135.016 -93.852 1072.993)"><stop offset="0"/><stop offset=".301" stop-color="#030303"/><stop offset=".505" stop-color="#0c0c0c"/><stop offset=".68" stop-color="#1b1b1b"/><stop offset=".838" stop-color="#303030"/><stop offset=".984" stop-color="#4c4c4c"/><stop offset=".995" stop-color="#4e4e4e"/></linearGradient><path fill="url(#u)" d="M44.2 46.3c.1.4.2.7.5 1 .7.7 1.8.7 2.4 0 .3-.3.4-.6.5-1v-.5c-.1-.4-.2-.7-.5-1-.7-.7-1.8-.7-2.4 0-.3.3-.4.6-.5 1v.5z"/><image overflow="visible" width="4" height="2" xlink:href="28BD76D4.png" transform="translate(44 44)"/><image overflow="visible" width="4" height="2" xlink:href="28BD76DA.png" transform="translate(44 46)"/><path fill="#FFF" d="M44.3 46.4h3.3v-.1l-3.3.1zM44.3 45.8l3.4.1v-.1h-3.4z"/><linearGradient id="v" gradientUnits="userSpaceOnUse" x1="526.993" y1="1895.821" x2="530.199" y2="1898.829" gradientTransform="rotate(-135.016 -96.044 1071.478)"><stop offset="0" stop-color="#fff"/><stop offset=".117" stop-color="#f9f9f9"/><stop offset=".273" stop-color="#e8e8e8"/><stop offset=".452" stop-color="#ccc"/><stop offset=".648" stop-color="#a5a5a5"/><stop offset=".854" stop-color="#747474"/><stop offset=".995" stop-color="#4e4e4e"/></linearGradient><path fill="url(#v)" d="M44.3 45.8v.5h3.4v-.5h-3.4z"/><linearGradient id="w" gradientUnits="userSpaceOnUse" x1="533.011" y1="1897.98" x2="533.43" y2="1898.4" gradientTransform="rotate(-135.016 -93.852 1072.993)"><stop offset="0"/><stop offset=".018" stop-color="#0b0b0b"/><stop offset=".071" stop-color="#232323"/><stop offset=".131" stop-color="#363636"/><stop offset=".2" stop-color="#444"/><stop offset=".287" stop-color="#4c4c4c"/><stop offset=".452" stop-color="#4e4e4e"/><stop offset=".529" stop-color="#545454"/><stop offset=".631" stop-color="#656565"/><stop offset=".748" stop-color="gray"/><stop offset=".874" stop-color="#a6a6a6"/><stop offset="1" stop-color="#d4d4d4"/></linearGradient><path fill="url(#w)" d="M44.3 45.8v.5h3.4v-.5h-3.4z"/></g><g><image overflow="visible" width="76" height="77" xlink:href="28BD76DD.png" transform="translate(0 27)" opacity=".4"/><linearGradient id="x" gradientUnits="userSpaceOnUse" x1="-19.735" y1="1114.738" x2="-22.442" y2="1112.706" gradientTransform="rotate(180 8.387 589.679)"><stop offset="0"/><stop offset=".301" stop-color="#030303"/><stop offset=".505" stop-color="#0c0c0c"/><stop offset=".68" stop-color="#1b1b1b"/><stop offset=".838" stop-color="#303030"/><stop offset=".984" stop-color="#4c4c4c"/><stop offset=".995" stop-color="#4e4e4e"/></linearGradient><path fill="url(#x)" d="M36.8 67.1c.3.2.6.3 1 .3 1 0 1.7-.8 1.7-1.7 0-.4-.1-.7-.3-1-.1-.1-.2-.3-.4-.4-.3-.2-.6-.3-1-.3-1 0-1.7.8-1.7 1.7 0 .4.1.7.3 1 .2.1.3.3.4.4z"/><image overflow="visible" width="3" height="3" xlink:href="28BD76F1.png" transform="translate(36 64)"/><image overflow="visible" width="4" height="4" xlink:href="28BD76F3.png" transform="translate(36 64)"/><path fill="#FFF" d="M36.9 67.1l2.4-2.4v-.1l-2.4 2.5zM36.5 66.7l2.4-2.3h-.1l-2.3 2.3z"/><linearGradient id="y" gradientUnits="userSpaceOnUse" x1="-27.477" y1="1111.288" x2="-24.27" y2="1114.296" gradientTransform="rotate(180 5.98 589.16)"><stop offset="0" stop-color="#fff"/><stop offset=".117" stop-color="#f9f9f9"/><stop offset=".273" stop-color="#e8e8e8"/><stop offset=".452" stop-color="#ccc"/><stop offset=".648" stop-color="#a5a5a5"/><stop offset=".854" stop-color="#747474"/><stop offset=".995" stop-color="#4e4e4e"/></linearGradient><path fill="url(#y)" d="M36.5 66.7c.1.1.3.2.4.4l2.4-2.4c-.1-.1-.2-.3-.4-.4l-2.4 2.4z"/><linearGradient id="z" gradientUnits="userSpaceOnUse" x1="-21.459" y1="1113.447" x2="-21.04" y2="1113.867" gradientTransform="rotate(180 8.387 589.679)"><stop offset="0"/><stop offset=".018" stop-color="#0b0b0b"/><stop offset=".071" stop-color="#232323"/><stop offset=".131" stop-color="#363636"/><stop offset=".2" stop-color="#444"/><stop offset=".287" stop-color="#4c4c4c"/><stop offset=".452" stop-color="#4e4e4e"/><stop offset=".529" stop-color="#545454"/><stop offset=".631" stop-color="#656565"/><stop offset=".748" stop-color="gray"/><stop offset=".874" stop-color="#a6a6a6"/><stop offset="1" stop-color="#d4d4d4"/></linearGradient><path fill="url(#z)" d="M36.5 66.7c.1.1.3.2.4.4l2.4-2.4c-.1-.1-.2-.3-.4-.4l-2.4 2.4z"/></g><g><image overflow="visible" width="76" height="77" xlink:href="28BD76F0.png" transform="translate(8 47)" opacity=".4"/><linearGradient id="A" gradientUnits="userSpaceOnUse" x1="143.016" y1="168.125" x2="140.308" y2="166.092" gradientTransform="rotate(134.983 110.715 106.39)"><stop offset="0"/><stop offset=".301" stop-color="#030303"/><stop offset=".505" stop-color="#0c0c0c"/><stop offset=".68" stop-color="#1b1b1b"/><stop offset=".838" stop-color="#303030"/><stop offset=".984" stop-color="#4c4c4c"/><stop offset=".995" stop-color="#4e4e4e"/></linearGradient><path fill="url(#A)" d="M46.3 87c.4-.1.7-.2 1-.5.7-.7.7-1.8 0-2.4-.3-.3-.6-.4-1-.5h-.5c-.4.1-.7.2-1 .5-.7.7-.7 1.8 0 2.4.3.3.6.4 1 .5h.5z"/><image overflow="visible" width="2" height="4" xlink:href="28BD76FF.png" transform="translate(44 83)"/><image overflow="visible" width="2" height="4" xlink:href="28BD76F2.png" transform="translate(46 83)"/><path fill="#FFF" d="M46.4 87v-3.3h-.1l.1 3.3zM45.8 87l.1-3.4h-.1V87z"/><linearGradient id="B" gradientUnits="userSpaceOnUse" x1="135.271" y1="164.673" x2="138.481" y2="167.684" gradientTransform="rotate(134.983 108.092 106.87)"><stop offset="0" stop-color="#fff"/><stop offset=".117" stop-color="#f9f9f9"/><stop offset=".273" stop-color="#e8e8e8"/><stop offset=".452" stop-color="#ccc"/><stop offset=".648" stop-color="#a5a5a5"/><stop offset=".854" stop-color="#747474"/><stop offset=".995" stop-color="#4e4e4e"/></linearGradient><path fill="url(#B)" d="M45.8 87h.5v-3.4h-.5V87z"/><linearGradient id="C" gradientUnits="userSpaceOnUse" x1="141.291" y1="166.834" x2="141.711" y2="167.254" gradientTransform="rotate(134.983 110.715 106.39)"><stop offset="0"/><stop offset=".018" stop-color="#0b0b0b"/><stop offset=".071" stop-color="#232323"/><stop offset=".131" stop-color="#363636"/><stop offset=".2" stop-color="#444"/><stop offset=".287" stop-color="#4c4c4c"/><stop offset=".452" stop-color="#4e4e4e"/><stop offset=".529" stop-color="#545454"/><stop offset=".631" stop-color="#656565"/><stop offset=".748" stop-color="gray"/><stop offset=".874" stop-color="#a6a6a6"/><stop offset="1" stop-color="#d4d4d4"/></linearGradient><path fill="url(#C)" d="M45.8 87h.5v-3.4h-.5V87z"/></g></g></svg>