<svg xmlns="http://www.w3.org/2000/svg" xmlns:xlink="http://www.w3.org/1999/xlink" viewBox="0 0 1920 747.6"><defs><path id="a" d="M0 0h1920v769H0z"/></defs><clipPath id="b"><use xlink:href="#a" overflow="visible"/></clipPath><linearGradient id="c" gradientUnits="userSpaceOnUse" x1="1201.725" y1="747.622" x2="1201.725" y2="544.899"><stop offset=".006" stop-color="#d9d9d9" stop-opacity="0"/><stop offset="1" stop-color="#d9d9d9"/></linearGradient><path clip-path="url(#b)" fill="url(#c)" d="M310.8 734.2l.4-114.5h1.6l-.4 114.5h-1.6zm7.3-114.2c0-3.4-2.7-6.1-6.1-6.1-3.4 0-6.1 2.7-6.1 6.1 0 3.4 2.7 6.1 6.1 6.1 3.3 0 6.1-2.7 6.1-6.1zm.8 0c0-3.8-3.1-6.9-6.9-6.9-3.8 0-6.9 3.1-6.9 6.9 0 3.8 3.1 6.9 6.9 6.9 3.8 0 6.9-3.1 6.9-6.9 0-3.8 0 3.8 0 0zm-12.2 0c0-2.9 2.4-5.3 5.3-5.3s5.3 2.4 5.3 5.3-2.4 5.3-5.3 5.3-5.3-2.4-5.3-5.3 0 2.9 0 0zM176 734.2V721l177 .6v12.7h1.6V720l-180.2-.6v14.9h1.6zm374.6 0l.3-87.6h-1.6l-.3 87.6h1.6zm5.5-87.3c0-3.4-2.7-6.1-6.1-6.1-3.4 0-6.1 2.7-6.1 6.1 0 3.4 2.7 6.1 6.1 6.1 3.4 0 6.1-2.7 6.1-6.1zm.8 0c0-3.8-3.1-6.9-6.9-6.9-3.8 0-6.9 3.1-6.9 6.9 0 3.8 3.1 6.9 6.9 6.9 3.8 0 6.9-3.1 6.9-6.9 0-3.8 0 3.8 0 0zm-12.2 0c0-2.9 2.4-5.3 5.3-5.3s5.3 2.4 5.3 5.3-2.4 5.3-5.3 5.3-5.3-2.4-5.3-5.3 0 2.9 0 0zm-325.2 87.3l.2-68.3 232.1.7-.2 67.5h1.6l.2-69.1-235.4-.8-.2 69.9h1.7zm-107.4 0l.1-22.2h-1.6l-.1 22.2h1.6zm5.3-21.9c0-3.4-2.7-6.1-6.1-6.1-3.4 0-6.1 2.7-6.1 6.1 0 3.4 2.7 6.1 6.1 6.1 3.4 0 6.1-2.7 6.1-6.1zm.9 0c0-3.8-3.1-6.9-6.9-6.9-3.8 0-6.9 3.1-6.9 6.9 0 3.8 3.1 6.9 6.9 6.9 3.7 0 6.8-3.1 6.9-6.9 0-3.8-.1 3.8 0 0zm-12.2 0c0-2.9 2.4-5.3 5.3-5.3s5.3 2.4 5.3 5.3-2.4 5.3-5.3 5.3c-3 0-5.3-2.4-5.3-5.3s0 2.9 0 0zm274.6 21.9v-11.1l39 .1v11h1.6v-12.6l-42.3-.1v12.8h1.7zm111.8 0l.1-19.6H491l-.1 19.6h1.6zm5.3-19.2c0-3.4-2.7-6.1-6.1-6.1-3.4 0-6.1 2.7-6.1 6.1 0 3.4 2.7 6.1 6.1 6.1 3.4 0 6.1-2.7 6.1-6.1zm.8 0c0-3.8-3.1-6.9-6.9-6.9-3.8 0-6.9 3.1-6.9 6.9 0 3.8 3.1 6.9 6.9 6.9 3.8 0 6.9-3.1 6.9-6.9 0-3.8 0 3.8 0 0zm-12.2-.1c0-2.9 2.4-5.3 5.3-5.3s5.3 2.4 5.3 5.3-2.4 5.3-5.3 5.3-5.3-2.3-5.3-5.3c.1-2.9 0 3 0 0zm232.8 19.3l.6-182.7h-1.6l-.6 182.7h1.6zm5.9-182.4c0-3.4-2.7-6.1-6.1-6.1-3.4 0-6.1 2.7-6.1 6.1 0 3.4 2.7 6.1 6.1 6.1 3.4 0 6.1-2.7 6.1-6.1zm.8 0c0-3.8-3.1-6.9-6.9-6.9-3.8 0-6.9 3.1-6.9 6.9 0 3.8 3.1 6.9 6.9 6.9 3.8 0 6.9-3.1 6.9-6.9 0-3.8 0 3.8 0 0zm-12.2 0c0-2.9 2.4-5.3 5.3-5.3s5.3 2.4 5.3 5.3-2.4 5.3-5.3 5.3-5.3-2.4-5.3-5.3 0 2.9 0 0zM582.8 734.2l.3-81.5 177 .6-.3 80.9h1.6l.3-82.5-180.2-.6-.3 83.1h1.6zm-97.3 0l.1-45.5 146.5.5-.1 45h1.6l.1-46.6-149.7-.5-.2 47.1h1.7zm-58.1 0l.2-64.5 198.9.6.2-72.6 169.4.5v-1.6l-171-.5-.2 72.6L426 668l-.2 66.2h1.6zm91.5 0l.3-90.4h-1.6l-.3 90.4h1.6zm5.6-90.1c0-3.4-2.7-6.1-6.1-6.1-3.4 0-6.1 2.7-6.1 6.1 0 3.4 2.7 6.1 6.1 6.1 3.3 0 6-2.7 6.1-6.1zm.8 0c0-3.8-3.1-6.9-6.9-6.9-3.8 0-6.9 3.1-6.9 6.9 0 3.8 3.1 6.9 6.9 6.9 3.7 0 6.8-3.1 6.9-6.9 0-3.8-.1 3.8 0 0zm-12.2 0c0-2.9 2.4-5.3 5.3-5.3s5.3 2.4 5.3 5.3-2.4 5.3-5.3 5.3c-3 0-5.3-2.4-5.3-5.3 0-3 0 2.9 0 0zm-190.2 90.1l.1-21.3 42.1.1.3-101.7h-1.6l-.3 100.1-42.1-.1-.1 22.9h1.6zm47.8-122.5c0-3.4-2.7-6.1-6.1-6.1-3.4 0-6.1 2.7-6.1 6.1 0 3.4 2.7 6.1 6.1 6.1 3.3 0 6-2.8 6.1-6.1zm.8 0c0-3.8-3.1-6.9-6.9-6.9-3.8 0-6.9 3.1-6.9 6.9 0 3.8 3.1 6.9 6.9 6.9 3.7 0 6.9-3.1 6.9-6.9 0-3.8 0 3.8 0 0zm-12.2-.1c0-2.9 2.4-5.3 5.3-5.3s5.3 2.4 5.3 5.3-2.4 5.3-5.3 5.3c-3 0-5.3-2.4-5.3-5.3s0 2.9 0 0zM-9.9 734.2h1.6v-9.7h-3.6v1.6h1.9l.1 8.1zm82.2 0h1.6L74 689l-85.9-.3v1.6l84.3.3-.1 43.6zm108.4 0h1.6v-11.5l-168-.5.4-99.3h-1.6l-.4 100.9 168 .5v9.9zm-160.6-111c0-3.4-2.7-6.1-6.1-6.1-3.4 0-6.1 2.7-6.1 6.1 0 3.4 2.7 6.1 6.1 6.1 3.3 0 6.1-2.7 6.1-6.1zm.8 0c0-3.8-3.1-6.9-6.9-6.9-3.8 0-6.9 3.1-6.9 6.9 0 3.8 3.1 6.9 6.9 6.9 3.8 0 6.9-3.1 6.9-6.9 0-3.8 0 3.8 0 0zm-12.2 0c0-2.9 2.4-5.3 5.3-5.3s5.3 2.4 5.3 5.3-2.4 5.3-5.3 5.3-5.3-2.4-5.3-5.3 0 2.9 0 0zm99.8 111l.2-72.3h-1.6l-.2 72.3h1.6zm5.5-72c0-3.4-2.7-6.1-6.1-6.1-3.4 0-6.1 2.7-6.1 6.1 0 3.4 2.7 6.1 6.1 6.1 3.3 0 6.1-2.7 6.1-6.1zm.8 0c0-3.8-3.1-6.9-6.9-6.9-3.8 0-6.9 3.1-6.9 6.9 0 3.8 3.1 6.9 6.9 6.9 3.8 0 6.9-3.1 6.9-6.9 0-3.8 0 3.8 0 0zm-12.2 0c0-2.9 2.4-5.3 5.3-5.3s5.3 2.4 5.3 5.3-2.4 5.3-5.3 5.3-5.3-2.4-5.3-5.3 0 2.9 0 0zm45.2 72l.4-116.3h-1.6l-.4 116.3h1.6zm5.7-115.9c0-3.4-2.7-6.1-6.1-6.1-3.4 0-6.1 2.7-6.1 6.1 0 3.4 2.7 6.1 6.1 6.1 3.3-.1 6.1-2.8 6.1-6.1zm.8 0c0-3.8-3.1-6.9-6.9-6.9-3.8 0-6.9 3.1-6.9 6.9 0 3.8 3.1 6.9 6.9 6.9 3.8 0 6.9-3.1 6.9-6.9 0-3.8 0 3.8 0 0zm-12.2-.1c0-2.9 2.4-5.3 5.3-5.3s5.3 2.4 5.3 5.3-2.4 5.3-5.3 5.3c-3 0-5.3-2.4-5.3-5.3s0 2.9 0 0zm981 116l.4-114.5h-1.6l-.4 114.5h1.6zm5.7-114.2c0-3.4-2.7-6.1-6.1-6.1-3.4 0-6.1 2.7-6.1 6.1 0 3.4 2.7 6.1 6.1 6.1 3.3 0 6.1-2.7 6.1-6.1zm.8 0c0-3.8-3.1-6.9-6.9-6.9-3.8 0-6.9 3.1-6.9 6.9 0 3.8 3.1 6.9 6.9 6.9 3.8 0 6.9-3.1 6.9-6.9 0-3.8 0 3.8 0 0zm-12.2 0c0-2.9 2.4-5.3 5.3-5.3s5.3 2.4 5.3 5.3-2.4 5.3-5.3 5.3-5.3-2.4-5.3-5.3 0 2.9 0 0zM986.7 734.2V721l177 .6v12.7h1.6V720l-180.2-.6v14.9h1.6zm43.5 0l.2-68.3 177.4.6v-1.6l-179-.6-.2 69.9h1.6zm-107.4 0l.1-22.2h-1.6l-.1 22.2h1.6zm5.3-21.9c0-3.4-2.7-6.1-6.1-6.1-3.4 0-6.1 2.7-6.1 6.1 0 3.4 2.7 6.1 6.1 6.1 3.4 0 6.1-2.7 6.1-6.1zm.8 0c0-3.8-3.1-6.9-6.9-6.9-3.8 0-6.9 3.1-6.9 6.9 0 3.8 3.1 6.9 6.9 6.9 3.8 0 6.9-3.1 6.9-6.9.1-3.8 0 3.8 0 0zm-12.1 0c0-2.9 2.4-5.3 5.3-5.3s5.3 2.4 5.3 5.3-2.4 5.3-5.3 5.3c-3 0-5.3-2.4-5.3-5.3s0 2.9 0 0zm274.6 21.9v-11.1l16.5.1v-1.6l-18.1-.1v12.8h1.6zm-57.8 0l.1-21.3 42.1.1.3-101.7h-1.6l-.3 100.1-42.1-.1-.1 22.9h1.6zm47.7-122.5c0-3.4-2.7-6.1-6.1-6.1-3.4 0-6.1 2.7-6.1 6.1s2.7 6.1 6.1 6.1c3.4 0 6.1-2.8 6.1-6.1zm.9 0c0-3.8-3.1-6.9-6.9-6.9-3.8 0-6.9 3.1-6.9 6.9 0 3.8 3.1 6.9 6.9 6.9 3.7 0 6.8-3.1 6.9-6.9 0-3.8-.1 3.8 0 0zm-12.2-.1c0-2.9 2.4-5.3 5.3-5.3s5.3 2.4 5.3 5.3-2.4 5.3-5.3 5.3c-3 0-5.3-2.4-5.3-5.3s0 2.9 0 0zM800.8 734.2h1.6v-9.7h-3.6v1.6h1.9l.1 8.1zm82.2 0h1.6l.1-45.2-85.9-.3v1.6l84.3.3-.1 43.6zm108.4 0h1.6v-11.5l-168-.5.4-99.3h-1.6l-.4 100.9 168 .5v9.9zm-160.6-111c0-3.4-2.7-6.1-6.1-6.1-3.4 0-6.1 2.7-6.1 6.1 0 3.4 2.7 6.1 6.1 6.1 3.3 0 6.1-2.7 6.1-6.1zm.8 0c0-3.8-3.1-6.9-6.9-6.9-3.8 0-6.9 3.1-6.9 6.9 0 3.8 3.1 6.9 6.9 6.9 3.8 0 6.9-3.1 6.9-6.9 0-3.8 0 3.8 0 0zm-12.2 0c0-2.9 2.4-5.3 5.3-5.3s5.3 2.4 5.3 5.3-2.4 5.3-5.3 5.3-5.3-2.4-5.3-5.3 0 2.9 0 0zm99.8 111l.2-72.3h-1.6l-.2 72.3h1.6zm5.5-72c0-3.4-2.7-6.1-6.1-6.1-3.4 0-6.1 2.7-6.1 6.1 0 3.4 2.7 6.1 6.1 6.1 3.3 0 6.1-2.7 6.1-6.1zm.8 0c0-3.8-3.1-6.9-6.9-6.9-3.8 0-6.9 3.1-6.9 6.9 0 3.8 3.1 6.9 6.9 6.9 3.8 0 6.9-3.1 6.9-6.9 0-3.8 0 3.8 0 0zm-12.2 0c0-2.9 2.4-5.3 5.3-5.3s5.3 2.4 5.3 5.3-2.4 5.3-5.3 5.3-5.3-2.4-5.3-5.3 0 2.9 0 0zm45.2 72l.4-116.3h-1.6l-.4 116.3h1.6zm5.7-115.9c0-3.4-2.7-6.1-6.1-6.1-3.4 0-6.1 2.7-6.1 6.1 0 3.4 2.7 6.1 6.1 6.1 3.3-.1 6-2.8 6.1-6.1zm.8 0c0-3.8-3.1-6.9-6.9-6.9-3.8 0-6.9 3.1-6.9 6.9 0 3.8 3.1 6.9 6.9 6.9 3.7 0 6.8-3.1 6.9-6.9 0-3.8-.1 3.8 0 0zm-12.2-.1c0-2.9 2.4-5.3 5.3-5.3s5.3 2.4 5.3 5.3-2.4 5.3-5.3 5.3c-3 0-5.3-2.4-5.3-5.3s0 2.9 0 0zm-281.3 116l-.3-106.5h-1l.3 106.5h1zm-.8-102.4c2.1 0 3.9-1.7 3.9-3.9 0-2.1-1.7-3.9-3.9-3.9-2.1 0-3.9 1.7-3.9 3.9s1.7 3.9 3.9 3.9zm-4.4-3.9c0 2.4 2 4.4 4.4 4.4 2.4 0 4.4-2 4.4-4.4 0-2.4-2-4.4-4.4-4.4-2.5 0-4.4 2-4.4 4.4 0 2.5 0-2.4 0 0zm7.7 0c0 1.9-1.5 3.4-3.3 3.4-1.9 0-3.4-1.5-3.4-3.3 0-1.9 1.5-3.4 3.3-3.4 1.9 0 3.4 1.5 3.4 3.3 0 1.9 0-1.8 0 0zm-29.2 106.3l-.1-41.7 112.5-.4.1 42.1h1l-.1-43.1-114.6.4.1 42.8h1.1zm86.2 0l-.1-17.7 67.9-.2v-1l-69 .2.1 18.7h1.1zm-107.2-9.4v9.3h1v-10.4l-126.1.4v1l125.1-.3zm-82.3 9.4l-.3-101.3h-1l.3 101.3h1zm-.8-97.3c2.1 0 3.9-1.7 3.9-3.9 0-2.1-1.7-3.9-3.9-3.9-2.1 0-3.9 1.7-3.9 3.9s1.8 3.9 3.9 3.9zm-4.4-3.8c0 2.4 2 4.4 4.4 4.4 2.4 0 4.4-2 4.4-4.4 0-2.4-2-4.4-4.4-4.4-2.4 0-4.4 2-4.4 4.4 0 2.4 0-2.4 0 0zm7.8 0c0 1.9-1.5 3.4-3.3 3.4-1.9 0-3.4-1.5-3.4-3.3 0-1.9 1.5-3.4 3.3-3.4 1.9-.1 3.4 1.4 3.4 3.3 0 1.8 0-1.9 0 0zM582 734.2l-.2-76.6 147.6-.5.1 54 69.4-.2v-1l-68.4.2-.1-54-149.6.5.2 77.6h1zm20.3 0l-.1-40.7 24.8-.1.1 40.8h1l-.1-41.8-26.9.1.1 41.7h1.1zm-45.2 0l-.1-46.1h-1l.1 46.1h1zm-.7-42c2.1 0 3.9-1.7 3.9-3.9 0-2.1-1.7-3.9-3.9-3.9-2.1 0-3.9 1.7-3.9 3.9 0 2.1 1.8 3.9 3.9 3.9zm-4.4-3.9c0 2.4 2 4.4 4.4 4.4 2.4 0 4.4-2 4.4-4.4 0-2.4-2-4.4-4.4-4.4-2.4 0-4.4 2-4.4 4.4 0 2.4 0-2.4 0 0zm7.8 0c0 1.9-1.5 3.4-3.3 3.4-1.9 0-3.4-1.5-3.4-3.3 0-1.9 1.5-3.4 3.3-3.4 1.8-.1 3.4 1.4 3.4 3.3 0 1.8 0-1.9 0 0zm-147.5 45.9l-.2-69.5h-1l.2 69.5h1zm-.7-65.4c2.1 0 3.9-1.7 3.9-3.9 0-2.1-1.7-3.9-3.9-3.9-2.1 0-3.9 1.7-3.9 3.9s1.8 3.9 3.9 3.9zm-4.4-3.9c0 2.4 2 4.4 4.4 4.4 2.4 0 4.4-2 4.4-4.4 0-2.4-2-4.4-4.4-4.4-2.4 0-4.4 2-4.4 4.4 0 2.5 0-2.4 0 0zm7.8 0c0 1.9-1.5 3.4-3.3 3.4-1.9 0-3.4-1.5-3.4-3.3 0-1.9 1.5-3.4 3.3-3.4 1.8 0 3.4 1.5 3.4 3.3 0 1.9 0-1.8 0 0zm-29.3 69.3l-.1-28.9 112.5-.4.1 29.2h1l-.1-30.2-114.6.4.1 29.9h1.1zm-92.8 0l-.2-51.5 112.5-.4.2 51.9h1l-.2-52.9-114.6.4.2 52.5h1.1zm-10.5 0l-.2-64.3h-1l.2 64.3h1zm-.7-60.3c2.1 0 3.9-1.7 3.9-3.9 0-2.1-1.7-3.9-3.9-3.9-2.1 0-3.9 1.7-3.9 3.9s1.7 3.9 3.9 3.9zm-4.4-3.8c0 2.4 2 4.4 4.4 4.4 2.4 0 4.4-2 4.4-4.4 0-2.4-2-4.4-4.4-4.4-2.5 0-4.4 2-4.4 4.4 0 2.4 0-2.4 0 0zm7.7-.1c0 1.9-1.5 3.4-3.3 3.4-1.9 0-3.4-1.5-3.4-3.3 0-1.9 1.5-3.4 3.3-3.4 1.9 0 3.4 1.5 3.4 3.3 0 1.9 0-1.8 0 0zm37.8 64.2l-.1-39.6 147.6-.5.1 40.1h1l-.1-41.1-149.6.5.1 40.6h1zm216.9 0v-10.8h-1v10.8h1zm-.5-6.7c2.1 0 3.9-1.7 3.9-3.9 0-2.1-1.7-3.9-3.9-3.9-2.1 0-3.9 1.7-3.9 3.9 0 2.1 1.7 3.9 3.9 3.9zm-4.4-3.9c0 2.4 2 4.4 4.4 4.4 2.4 0 4.4-2 4.4-4.4 0-2.4-2-4.4-4.4-4.4-2.5 0-4.4 2-4.4 4.4 0 2.4 0-2.4 0 0zm7.7 0c0 1.9-1.5 3.4-3.3 3.4-1.9 0-3.4-1.5-3.4-3.3 0-1.9 1.5-3.4 3.3-3.4 1.9-.1 3.4 1.4 3.4 3.3 0 1.8 0-1.9 0 0zm95.1 10.6l-.1-103.2h-1l.2 103.2h.9zm-.7-99.1c2.1 0 3.9-1.7 3.9-3.9 0-2.1-1.7-3.9-3.9-3.9-2.1 0-3.9 1.7-3.9 3.9.1 2.2 1.8 3.9 3.9 3.9zm-4.4-3.8c0 2.4 2 4.4 4.4 4.4 2.4 0 4.4-2 4.4-4.4 0-2.4-2-4.4-4.4-4.4-2.4 0-4.4 1.9-4.4 4.4.1 2.4 0-2.5 0 0zm7.8-.1c0 1.9-1.5 3.4-3.3 3.4-1.9 0-3.4-1.5-3.4-3.3 0-1.9 1.5-3.4 3.3-3.4 1.9 0 3.4 1.5 3.4 3.3 0 1.9 0-1.8 0 0zm-297.2 103v-3.7l24.8-.1v3.8h1v-4.8l-26.9.1v4.7h1.1zm-39.9 0l-.1-29.6h-1l.1 29.6h1zm-.6-25.6c2.1 0 3.9-1.7 3.9-3.9 0-2.1-1.7-3.9-3.9-3.9-2.1 0-3.9 1.7-3.9 3.9s1.8 4 3.9 3.9zm-4.4-3.8c0 2.4 2 4.4 4.4 4.4 2.4 0 4.4-2 4.4-4.4 0-2.4-2-4.4-4.4-4.4-2.4 0-4.4 2-4.4 4.4 0 2.4 0-2.4 0 0zm7.8 0c0 1.9-1.5 3.4-3.3 3.4-1.9 0-3.4-1.5-3.4-3.3 0-1.9 1.5-3.4 3.3-3.4 1.8-.1 3.4 1.4 3.4 3.3 0 1.8 0-1.9 0 0zm347.5 29.4v-6.6h-1v6.6h1zm3.3-6.4c0-2.1-1.7-3.9-3.9-3.9-2.1 0-3.9 1.7-3.9 3.9 0 2.1 1.7 3.9 3.9 3.9s3.9-1.8 3.9-3.9zm.6 0c0-2.4-2-4.4-4.4-4.4-2.4 0-4.4 2-4.4 4.4 0 2.4 2 4.4 4.4 4.4 2.4 0 4.3-2 4.4-4.4 0-2.4-.1 2.4 0 0zm-7.8 0c0-1.9 1.5-3.4 3.4-3.3 1.9 0 3.4 1.5 3.3 3.4 0 1.9-1.5 3.4-3.4 3.3-1.8-.1-3.3-1.6-3.3-3.4 0-1.9 0 1.8 0 0zm-601.1 6.4l.3-89h-1l-.3 89h1zm3.7-88.8c0-2.1-1.7-3.9-3.9-3.9-2.1 0-3.9 1.7-3.9 3.9 0 2.1 1.7 3.9 3.9 3.9 2.1 0 3.9-1.8 3.9-3.9zm.5 0c0-2.4-2-4.4-4.4-4.4-2.4 0-4.4 2-4.4 4.4 0 2.4 2 4.4 4.4 4.4 2.4 0 4.4-2 4.4-4.4 0-2.4 0 2.4 0 0zm-7.8 0c0-1.9 1.5-3.4 3.4-3.3 1.9 0 3.4 1.5 3.3 3.4 0 1.9-1.5 3.4-3.4 3.3-1.8-.1-3.3-1.6-3.3-3.4 0-1.9 0 1.8 0 0zm24.6 88.8h1l.1-46.3-82.4-.3v1l81.4.3-.1 45.3zm21.4 0v-10l118.7.4v9.6h1v-10.6l-120.7-.4v11h1zm-88.1 0h1l.1-18.8-15.7-.1v1H2.9l-.1 17.9zm170 0l.2-52.6h-1l-.2 52.6h1zm3.6-52.4c0-2.1-1.7-3.9-3.9-3.9-2.1 0-3.9 1.7-3.9 3.9 0 2.1 1.7 3.9 3.9 3.9 2.1-.1 3.9-1.8 3.9-3.9zm.5 0c0-2.4-2-4.4-4.4-4.4-2.4 0-4.4 2-4.4 4.4 0 2.4 2 4.4 4.4 4.4 2.4 0 4.4-2 4.4-4.4 0-2.4 0 2.4 0 0zm-7.8 0c0-1.9 1.5-3.4 3.4-3.3 1.9 0 3.4 1.5 3.3 3.4 0 1.9-1.5 3.4-3.4 3.3-1.8-.1-3.3-1.6-3.3-3.4 0-1.9 0 1.8 0 0zM.2 668.6l120.9.4-.2 65.2h1l.2-66.2-123-.4L-1 710h-10.9v1H0l.2-42.4zm83.9 65.6l.1-35.7 20.2.1-.1 35.7h1l.1-36.7-22.2-.1-.1 36.8h1zm148.5 0l.1-27.8h-1l-.1 27.8h1zm3.5-27.6c0-2.1-1.7-3.9-3.9-3.9-2.1 0-3.9 1.7-3.9 3.9 0 2.1 1.7 3.9 3.9 3.9 2.1 0 3.9-1.8 3.9-3.9zm.5 0c0-2.4-2-4.4-4.4-4.4-2.4 0-4.4 2-4.4 4.4 0 2.4 2 4.4 4.4 4.4 2.4 0 4.4-2 4.4-4.4 0-2.4 0 2.4 0 0zm-7.8 0c0-1.9 1.5-3.4 3.4-3.3 1.9 0 3.4 1.5 3.3 3.4 0 1.9-1.5 3.4-3.4 3.3-1.8-.1-3.3-1.6-3.3-3.4 0-1.9 0 1.8 0 0zm28.8 27.6l.2-55.8h-1l-.2 55.8h1zm3.6-55.6c0-2.1-1.7-3.9-3.9-3.9-2.1 0-3.9 1.7-3.9 3.9 0 2.1 1.7 3.9 3.9 3.9 2.1 0 3.8-1.7 3.9-3.9zm.5 0c0-2.4-2-4.4-4.4-4.4-2.4 0-4.4 2-4.4 4.4 0 2.4 2 4.4 4.4 4.4 2.4 0 4.4-1.9 4.4-4.4 0-2.4 0 2.5 0 0zm-7.8 0c0-1.9 1.5-3.4 3.4-3.3 1.9 0 3.4 1.5 3.3 3.4 0 1.9-1.5 3.4-3.4 3.3-1.8 0-3.3-1.5-3.3-3.4 0-1.8 0 1.9 0 0zm-111.5 55.6l.1-51.8h-1l-.1 51.8h1zm3.5-51.6c0-2.1-1.7-3.9-3.9-3.9-2.1 0-3.9 1.7-3.9 3.9 0 2.1 1.7 3.9 3.9 3.9s3.9-1.8 3.9-3.9zm.6 0c0-2.4-2-4.4-4.4-4.4-2.4 0-4.4 2-4.4 4.4 0 2.4 2 4.4 4.4 4.4 2.4 0 4.4-2 4.4-4.4 0-2.4 0 2.4 0 0zm-7.8 0c0-1.9 1.5-3.4 3.4-3.3 1.9 0 3.4 1.5 3.3 3.4 0 1.9-1.5 3.4-3.4 3.3-1.8-.1-3.3-1.6-3.3-3.4 0-1.9 0 1.8 0 0zm1057.6 51.6l-.1-28.9h11.6v-1h-12.6l.1 29.9h1zm-92.7 0l-.2-51.5 104.4-.3v-1l-105.4.3.2 52.5h1zm-10.5 0l-.2-64.3h-1l.2 64.3h1zm-.7-60.3c2.1 0 3.9-1.7 3.9-3.9 0-2.1-1.7-3.9-3.9-3.9-2.1 0-3.9 1.7-3.9 3.9s1.7 3.9 3.9 3.9zm-4.4-3.8c0 2.4 2 4.4 4.4 4.4s4.4-2 4.4-4.4c0-2.4-2-4.4-4.4-4.4-2.5 0-4.5 2-4.4 4.4 0 2.4-.1-2.4 0 0zm7.7-.1c0 1.9-1.5 3.4-3.3 3.4-1.9 0-3.4-1.5-3.4-3.3 0-1.9 1.5-3.4 3.3-3.4 1.9 0 3.4 1.5 3.4 3.3 0 1.9 0-1.8 0 0zm37.8 64.2l-.1-39.6 74.5-.2v-1l-75.5.2.1 40.6h1zm20.3 0v-3.7l24.8-.1v3.8h1v-4.8l-26.9.1v4.7h1.1zm-39.9 0l-.1-29.6h-1l.1 29.6h1zm-.6-25.6c2.1 0 3.9-1.7 3.9-3.9 0-2.1-1.7-3.9-3.9-3.9-2.1 0-3.9 1.7-3.9 3.9s1.8 4 3.9 3.9zm-4.4-3.8c0 2.4 2 4.4 4.4 4.4 2.4 0 4.4-2 4.4-4.4 0-2.4-2-4.4-4.4-4.4-2.4 0-4.4 2-4.4 4.4 0 2.4 0-2.4 0 0zm7.8 0c0 1.9-1.5 3.4-3.3 3.4-1.9 0-3.4-1.5-3.4-3.3 0-1.9 1.5-3.4 3.3-3.4 1.8-.1 3.3 1.4 3.4 3.3 0 1.8-.1-1.9 0 0zm-257.5 29.4l.3-89h-1l-.3 89h1zm3.6-88.8c0-2.1-1.7-3.9-3.9-3.9-2.1 0-3.9 1.7-3.9 3.9 0 2.1 1.7 3.9 3.9 3.9s3.9-1.8 3.9-3.9zm-60.1 43.1c0-2.1-1.7-3.9-3.9-3.9-2.1 0-3.9 1.7-3.9 3.9 0 2.1 1.7 3.9 3.9 3.9s3.9-1.7 3.9-3.9zm60.7-43.1c0-2.4-2-4.4-4.4-4.4-2.4 0-4.4 2-4.4 4.4 0 2.4 2 4.4 4.4 4.4 2.4 0 4.4-2 4.4-4.4 0-2.4 0 2.4 0 0zm-7.8 0c0-1.9 1.5-3.4 3.4-3.3 1.9 0 3.4 1.5 3.3 3.4 0 1.9-1.5 3.4-3.4 3.3-1.8-.1-3.3-1.6-3.3-3.4 0-1.9 0 1.8 0 0zm24.5 88.8h1l.1-46.3-82.4-.3v1l81.4.3-.1 45.3zm21.5 0v-10l118.7.4v9.6h1v-10.6l-120.7-.4v11h1zm-88.1 0h1l.1-18.8-15.7-.1v1h14.7l-.1 17.9zm170 0l.2-52.6h-1l-.2 52.6h1zm3.6-52.4c0-2.1-1.7-3.9-3.9-3.9-2.1 0-3.9 1.7-3.9 3.9 0 2.1 1.7 3.9 3.9 3.9 2.1-.1 3.8-1.8 3.9-3.9zm.5 0c0-2.4-2-4.4-4.4-4.4-2.4 0-4.4 2-4.4 4.4 0 2.4 2 4.4 4.4 4.4 2.4 0 4.4-2 4.4-4.4 0-2.4 0 2.4 0 0zm-7.8 0c0-1.9 1.5-3.4 3.4-3.3 1.9 0 3.4 1.5 3.3 3.4 0 1.9-1.5 3.4-3.4 3.3-1.8-.1-3.3-1.6-3.3-3.4 0-1.9 0 1.8 0 0zm-168.9-13.2l120.9.4-.2 65.2h1l.2-66.2-123-.4-.1 42.4h-10.9v1h11.9l.2-42.4zm83.9 65.6l.1-35.7 20.2.1-.1 35.7h1l.1-36.7-22.2-.1-.1 36.8h1zm148.5 0l.1-27.8h-1l-.1 27.8h1zm3.5-27.6c0-2.1-1.7-3.9-3.9-3.9-2.1 0-3.9 1.7-3.9 3.9 0 2.1 1.7 3.9 3.9 3.9 2.1 0 3.8-1.8 3.9-3.9zm.5 0c0-2.4-2-4.4-4.4-4.4-2.4 0-4.4 2-4.4 4.4 0 2.4 2 4.4 4.4 4.4 2.4 0 4.4-2 4.4-4.4 0-2.4 0 2.4 0 0zm-7.8 0c0-1.9 1.5-3.4 3.4-3.3 1.9 0 3.4 1.5 3.3 3.4 0 1.9-1.5 3.4-3.4 3.3-1.8-.1-3.3-1.6-3.3-3.4 0-1.9 0 1.8 0 0zm28.8 27.6l.2-55.8h-1l-.2 55.8h1zm3.5-55.6c0-2.1-1.7-3.9-3.9-3.9-2.1 0-3.9 1.7-3.9 3.9 0 2.1 1.7 3.9 3.9 3.9s3.9-1.7 3.9-3.9zm.6 0c0-2.4-2-4.4-4.4-4.4-2.4 0-4.4 2-4.4 4.4 0 2.4 2 4.4 4.4 4.4 2.4 0 4.3-1.9 4.4-4.4 0-2.4-.1 2.5 0 0zm-7.8 0c0-1.9 1.5-3.4 3.4-3.3 1.9 0 3.4 1.5 3.3 3.4 0 1.9-1.5 3.4-3.4 3.3-1.8 0-3.3-1.5-3.3-3.4 0-1.8 0 1.9 0 0zm-111.5 55.6l.1-51.8h-1l-.1 51.8h1zm3.5-51.6c0-2.1-1.7-3.9-3.9-3.9-2.1 0-3.9 1.7-3.9 3.9 0 2.1 1.7 3.9 3.9 3.9s3.9-1.8 3.9-3.9zm.6 0c0-2.4-2-4.4-4.4-4.4-2.4 0-4.4 2-4.4 4.4 0 2.4 2 4.4 4.4 4.4 2.4 0 4.3-2 4.4-4.4 0-2.4-.1 2.4 0 0zm-7.8 0c0-1.9 1.5-3.4 3.4-3.3 1.9 0 3.4 1.5 3.3 3.4 0 1.9-1.5 3.4-3.4 3.3-1.8-.1-3.3-1.6-3.3-3.4 0-1.9 0 1.8 0 0zm570.5 65l.4-114.5h-1.6l-.4 114.5h1.6zm5.6-114.1c0-3.4-2.7-6.1-6.1-6.1-3.4 0-6.1 2.7-6.1 6.1 0 3.4 2.7 6.1 6.1 6.1 3.4 0 6.1-2.8 6.1-6.1zm.8 0c0-3.8-3.1-6.9-6.9-6.9-3.8 0-6.9 3.1-6.9 6.9 0 3.8 3.1 6.9 6.9 6.9 3.8 0 6.9-3.1 6.9-6.9 0-3.8 0 3.8 0 0zm-12.2-.1c0-2.9 2.4-5.3 5.3-5.3s5.3 2.4 5.3 5.3-2.4 5.3-5.3 5.3-5.3-2.3-5.3-5.3c0-2.9 0 3 0 0zm-130.7 114.2v-13.2l177 .6v12.7h1.6v-14.3l-180.2-.6v14.9h1.6zm374.6 0l.3-87.6h-1.6l-.3 87.6h1.6zm5.5-87.2c0-3.4-2.7-6.1-6.1-6.1-3.4 0-6.1 2.7-6.1 6.1 0 3.4 2.7 6.1 6.1 6.1 3.4 0 6.1-2.8 6.1-6.1zm.8 0c0-3.8-3.1-6.9-6.9-6.9-3.8 0-6.9 3.1-6.9 6.9 0 3.8 3.1 6.9 6.9 6.9 3.8 0 6.9-3.1 6.9-6.9 0-3.8 0 3.8 0 0zm-12.1-.1c0-2.9 2.4-5.3 5.3-5.3s5.3 2.4 5.3 5.3-2.4 5.3-5.3 5.3c-3 0-5.4-2.3-5.3-5.3 0-2.9-.1 3 0 0zm-325.3 87.3l.2-68.3 232.1.7-.2 67.5h1.6l.2-69.1-235.4-.8-.2 69.9h1.7zm-107.4 0l.1-22.2h-1.6l-.1 22.2h1.6zm5.4-21.8c0-3.4-2.7-6.1-6.1-6.1-3.4 0-6.1 2.7-6.1 6.1 0 3.4 2.7 6.1 6.1 6.1 3.3-.1 6-2.8 6.1-6.1zm.8 0c0-3.8-3.1-6.9-6.9-6.9-3.8 0-6.9 3.1-6.9 6.9 0 3.8 3.1 6.9 6.9 6.9 3.7 0 6.9-3.1 6.9-6.9 0-3.8 0 3.8 0 0zm-12.2-.1c0-2.9 2.4-5.3 5.3-5.3s5.3 2.4 5.3 5.3-2.4 5.3-5.3 5.3c-3 0-5.3-2.4-5.3-5.3s0 2.9 0 0zm274.6 21.9v-11.1l39 .1v11h1.6V735l-42.3-.1v12.8h1.7zm111.8 0l.1-19.6h-1.6l-.1 19.6h1.6zm5.3-19.2c0-3.4-2.7-6.1-6.1-6.1-3.4 0-6.1 2.7-6.1 6.1 0 3.4 2.7 6.1 6.1 6.1 3.4 0 6.1-2.7 6.1-6.1zm.8 0c0-3.8-3.1-6.9-6.9-6.9-3.8 0-6.9 3.1-6.9 6.9s3.1 6.9 6.9 6.9c3.8 0 6.9-3.1 6.9-6.9s0 3.8 0 0zm-12.1 0c0-2.9 2.4-5.3 5.3-5.3s5.3 2.4 5.3 5.3-2.4 5.3-5.3 5.3c-3 0-5.3-2.4-5.3-5.3s0 2.9 0 0zm232.7 19.2l.6-182.7h-1.6l-.6 182.7h1.6zm5.9-182.3c0-3.4-2.7-6.1-6.1-6.1-3.4 0-6.1 2.7-6.1 6.1 0 3.4 2.7 6.1 6.1 6.1 3.4-.1 6.1-2.8 6.1-6.1zm.8 0c0-3.8-3.1-6.9-6.9-6.9-3.8 0-6.9 3.1-6.9 6.9 0 3.8 3.1 6.9 6.9 6.9 3.8 0 6.9-3.1 6.9-6.9 0-3.8 0 3.8 0 0zm-12.2-.1c0-2.9 2.4-5.3 5.3-5.3s5.3 2.4 5.3 5.3-2.4 5.3-5.3 5.3-5.3-2.4-5.3-5.3 0 2.9 0 0zm-130.9 182.4l.3-81.5 177 .6-.3 80.9h1.6l.3-82.5-180.2-.6-.3 83.1h1.6zm-97.3 0l.1-45.5 146.5.5-.1 45h1.6l.1-46.6-149.7-.5-.2 47.1h1.7zm-58.1 0l.2-64.5 198.9.6.2-72.6 169.4.5V610l-171-.5-.2 72.6-198.9-.6-.2 66.2h1.6zm91.5 0l.3-90.4h-1.6l-.3 90.4h1.6zm5.6-90.1c0-3.4-2.7-6.1-6.1-6.1-3.4 0-6.1 2.7-6.1 6.1 0 3.4 2.7 6.1 6.1 6.1 3.3 0 6.1-2.7 6.1-6.1zm.8 0c0-3.8-3.1-6.9-6.9-6.9-3.8 0-6.9 3.1-6.9 6.9 0 3.8 3.1 6.9 6.9 6.9 3.8 0 6.9-3 6.9-6.9 0-3.8 0 3.9 0 0zm-12.2 0c0-2.9 2.4-5.3 5.3-5.3s5.3 2.4 5.3 5.3-2.4 5.3-5.3 5.3c-3 0-5.3-2.4-5.3-5.3s0 2.9 0 0zm-190.2 90.1l.1-21.3 42.1.1.3-101.7h-1.6l-.3 100.1-42.1-.1-.1 22.9h1.6zm47.8-122.5c0-3.4-2.7-6.1-6.1-6.1-3.4 0-6.1 2.7-6.1 6.1s2.7 6.1 6.1 6.1c3.3 0 6.1-2.7 6.1-6.1zm.8 0c0-3.8-3.1-6.9-6.9-6.9-3.8 0-6.9 3.1-6.9 6.9 0 3.8 3.1 6.9 6.9 6.9 3.8 0 6.9-3.1 6.9-6.9 0-3.8 0 3.8 0 0zm-12.2 0c0-2.9 2.4-5.3 5.3-5.3s5.3 2.4 5.3 5.3-2.4 5.3-5.3 5.3c-3 0-5.3-2.4-5.3-5.3s0 2.9 0 0zm-369.2 122.5h1.6v-9.7h-3.6v1.6h1.9l.1 8.1zm82.2 0h1.6l.1-45.2-85.9-.3v1.6l84.3.3-.1 43.6zm108.5 0h1.6v-11.5l-168-.5.4-99.3h-1.6l-.4 100.9 168 .5v9.9zm-160.7-110.9c0-3.4-2.7-6.1-6.1-6.1-3.4 0-6.1 2.7-6.1 6.1 0 3.4 2.7 6.1 6.1 6.1 3.4-.1 6.1-2.8 6.1-6.1zm.8 0c0-3.8-3.1-6.9-6.9-6.9-3.8 0-6.9 3.1-6.9 6.9 0 3.8 3.1 6.9 6.9 6.9 3.8 0 6.9-3.1 6.9-6.9 0-3.8 0 3.8 0 0zm-12.2-.1c0-2.9 2.4-5.3 5.3-5.3s5.3 2.4 5.3 5.3-2.4 5.3-5.3 5.3-5.3-2.4-5.3-5.3 0 2.9 0 0zm99.8 111l.2-72.3h-1.6l-.2 72.3h1.6zm5.5-71.9c0-3.4-2.7-6.1-6.1-6.1-3.4 0-6.1 2.7-6.1 6.1 0 3.4 2.7 6.1 6.1 6.1 3.4 0 6.1-2.8 6.1-6.1zm.8 0c0-3.8-3.1-6.9-6.9-6.9-3.8 0-6.9 3.1-6.9 6.9 0 3.8 3.1 6.9 6.9 6.9 3.8 0 6.9-3.1 6.9-6.9 0-3.8 0 3.8 0 0zm-12.2-.1c0-2.9 2.4-5.3 5.3-5.3s5.3 2.4 5.3 5.3-2.4 5.3-5.3 5.3-5.3-2.4-5.3-5.3 0 2.9 0 0zm45.2 72l.4-116.3h-1.6l-.4 116.3h1.6zm5.7-115.9c0-3.4-2.7-6.1-6.1-6.1-3.4 0-6.1 2.7-6.1 6.1 0 3.4 2.7 6.1 6.1 6.1 3.3 0 6.1-2.7 6.1-6.1zm.8 0c0-3.8-3.1-6.9-6.9-6.9-3.8 0-6.9 3.1-6.9 6.9 0 3.8 3.1 6.9 6.9 6.9 3.8 0 6.9-3.1 6.9-6.9 0-3.8 0 3.8 0 0zm-12.2 0c0-2.9 2.4-5.3 5.3-5.3s5.3 2.4 5.3 5.3-2.4 5.3-5.3 5.3-5.3-2.4-5.3-5.3 0 2.9 0 0zm981.1 115.9l.4-114.5h-1.6l-.4 114.5h1.6zm5.6-114.1c0-3.4-2.7-6.1-6.1-6.1-3.4 0-6.1 2.7-6.1 6.1 0 3.4 2.7 6.1 6.1 6.1 3.3 0 6.1-2.8 6.1-6.1zm.8 0c0-3.8-3.1-6.9-6.9-6.9-3.8 0-6.9 3.1-6.9 6.9 0 3.8 3.1 6.9 6.9 6.9 3.8 0 6.9-3.1 6.9-6.9 0-3.8 0 3.8 0 0zm-12.2-.1c0-2.9 2.4-5.3 5.3-5.3s5.3 2.4 5.3 5.3-2.4 5.3-5.3 5.3-5.3-2.3-5.3-5.3c0-2.9 0 3 0 0zm-130.7 114.2v-13.2l177 .6v12.7h1.6v-14.3l-180.2-.6v14.9h1.6zm43.5 0l.2-68.3 177.4.6v-1.6l-179-.6-.2 69.9h1.6zm-107.4 0l.1-22.2h-1.6l-.1 22.2h1.6zm5.3-21.8c0-3.4-2.7-6.1-6.1-6.1-3.4 0-6.1 2.7-6.1 6.1 0 3.4 2.7 6.1 6.1 6.1 3.4-.1 6.1-2.8 6.1-6.1zm.9 0c0-3.8-3.1-6.9-6.9-6.9-3.8 0-6.9 3.1-6.9 6.9 0 3.8 3.1 6.9 6.9 6.9 3.7 0 6.8-3.1 6.9-6.9 0-3.8-.1 3.8 0 0zm-12.2-.1c0-2.9 2.4-5.3 5.3-5.3s5.3 2.4 5.3 5.3-2.4 5.3-5.3 5.3c-3 0-5.3-2.4-5.3-5.3s0 2.9 0 0zm274.6 21.9v-11.1l16.5.1V735l-18.1-.1v12.8h1.6zm-57.8 0l.1-21.3 42.1.1.3-101.7h-1.6l-.3 100.1-42.1-.1-.1 22.9h1.6zm47.8-122.5c0-3.4-2.7-6.1-6.1-6.1-3.4 0-6.1 2.7-6.1 6.1s2.7 6.1 6.1 6.1c3.3 0 6-2.7 6.1-6.1zm.8 0c0-3.8-3.1-6.9-6.9-6.9-3.8 0-6.9 3.1-6.9 6.9 0 3.8 3.1 6.9 6.9 6.9 3.7 0 6.9-3.1 6.9-6.9 0-3.8 0 3.8 0 0zm-12.2 0c0-2.9 2.4-5.3 5.3-5.3s5.3 2.4 5.3 5.3-2.4 5.3-5.3 5.3c-3 0-5.3-2.4-5.3-5.3s0 2.9 0 0zm-369.2 122.5h1.6v-9.7h-3.6v1.6h1.9l.1 8.1zm82.2 0h1.6l.1-45.2-85.9-.3v1.6l84.3.3-.1 43.6zm108.5 0h1.6v-11.5l-168-.5.4-99.3h-1.6l-.4 100.9 168 .5v9.9zm-160.7-110.9c0-3.4-2.7-6.1-6.1-6.1-3.4 0-6.1 2.7-6.1 6.1 0 3.4 2.7 6.1 6.1 6.1 3.3-.1 6.1-2.8 6.1-6.1zm.8 0c0-3.8-3.1-6.9-6.9-6.9-3.8 0-6.9 3.1-6.9 6.9 0 3.8 3.1 6.9 6.9 6.9 3.8 0 6.9-3.1 6.9-6.9 0-3.8 0 3.8 0 0zm-12.2-.1c0-2.9 2.4-5.3 5.3-5.3s5.3 2.4 5.3 5.3-2.4 5.3-5.3 5.3-5.3-2.4-5.3-5.3 0 2.9 0 0zm99.8 111l.2-72.3h-1.6l-.2 72.3h1.6zm5.5-71.9c0-3.4-2.7-6.1-6.1-6.1-3.4 0-6.1 2.7-6.1 6.1 0 3.4 2.7 6.1 6.1 6.1 3.3 0 6.1-2.8 6.1-6.1zm.8 0c0-3.8-3.1-6.9-6.9-6.9-3.8 0-6.9 3.1-6.9 6.9 0 3.8 3.1 6.9 6.9 6.9 3.8 0 6.9-3.1 6.9-6.9 0-3.8 0 3.8 0 0zm-12.2-.1c0-2.9 2.4-5.3 5.3-5.3s5.3 2.4 5.3 5.3-2.4 5.3-5.3 5.3-5.3-2.4-5.3-5.3 0 2.9 0 0zm45.2 72l.4-116.3h-1.6l-.4 116.3h1.6zm5.7-115.9c0-3.4-2.7-6.1-6.1-6.1-3.4 0-6.1 2.7-6.1 6.1 0 3.4 2.7 6.1 6.1 6.1 3.3 0 6.1-2.7 6.1-6.1zm.8 0c0-3.8-3.1-6.9-6.9-6.9-3.8 0-6.9 3.1-6.9 6.9 0 3.8 3.1 6.9 6.9 6.9 3.8 0 6.9-3.1 6.9-6.9 0-3.8 0 3.8 0 0zm-12.2 0c0-2.9 2.4-5.3 5.3-5.3s5.3 2.4 5.3 5.3-2.4 5.3-5.3 5.3c-3 0-5.3-2.4-5.3-5.3s0 2.9 0 0zm-281.3 115.9l-.3-106.5h-1l.3 106.5h1zm-.8-102.4c2.1 0 3.9-1.7 3.9-3.9 0-2.1-1.7-3.9-3.9-3.9-2.1 0-3.9 1.7-3.9 3.9s1.8 4 3.9 3.9zm-4.4-3.8c0 2.4 2 4.4 4.4 4.4 2.4 0 4.4-2 4.4-4.4 0-2.4-2-4.4-4.4-4.4-2.5 0-4.4 2-4.4 4.4 0 2.4 0-2.4 0 0zm7.7 0c0 1.9-1.5 3.4-3.3 3.4-1.9 0-3.4-1.5-3.4-3.3 0-1.9 1.5-3.4 3.3-3.4 1.9-.1 3.4 1.4 3.4 3.3 0 1.8 0-1.9 0 0zm-29.2 106.2l-.1-41.7 112.5-.4.1 42.1h1l-.1-43.1-114.6.4.1 42.8h1.1zm86.2 0l-.1-17.7 67.9-.2v-1l-69 .2.1 18.7h1.1zm-107.2-9.3v9.3h1v-10.4l-126.1.4v1l125.1-.3zm-82.2 9.3l-.3-101.3h-1l.3 101.3h1zm-.9-97.2c2.1 0 3.9-1.7 3.9-3.9 0-2.1-1.7-3.9-3.9-3.9-2.1 0-3.9 1.7-3.9 3.9.1 2.2 1.8 3.9 3.9 3.9zm-4.4-3.9c0 2.4 2 4.4 4.4 4.4 2.4 0 4.4-2 4.4-4.4 0-2.4-2-4.4-4.4-4.4-2.4 0-4.4 2-4.4 4.4 0 2.5 0-2.4 0 0zm7.8 0c0 1.9-1.5 3.4-3.3 3.4-1.9 0-3.4-1.5-3.4-3.3 0-1.9 1.5-3.4 3.3-3.4 1.9 0 3.4 1.5 3.4 3.3 0 1.9 0-1.8 0 0zm37.9 101.1l-.2-76.6 147.6-.5.1 54 69.4-.2v-1l-68.4.2-.1-54-149.6.5.2 77.6h1zm20.3 0l-.1-40.7 24.8-.1.1 40.8h1l-.1-41.8-26.9.1.1 41.7h1.1zm-45.2 0l-.1-46.1h-1l.1 46.1h1zm-.7-42c2.1 0 3.9-1.7 3.9-3.9 0-2.1-1.7-3.9-3.9-3.9-2.1 0-3.9 1.7-3.9 3.9.1 2.2 1.8 3.9 3.9 3.9zm-4.4-3.9c0 2.4 2 4.4 4.4 4.4 2.4 0 4.4-2 4.4-4.4 0-2.4-2-4.4-4.4-4.4-2.4.1-4.4 2-4.4 4.4 0 2.5 0-2.4 0 0zm7.8 0c0 1.9-1.5 3.4-3.3 3.4-1.9 0-3.4-1.5-3.4-3.3 0-1.9 1.5-3.4 3.3-3.4 1.9 0 3.4 1.5 3.4 3.3 0 1.9 0-1.8 0 0zm-147.4 45.9l-.2-69.5h-1l.2 69.5h1zm-.8-65.4c2.1 0 3.9-1.7 3.9-3.9 0-2.1-1.7-3.9-3.9-3.9-2.1 0-3.9 1.7-3.9 3.9.1 2.2 1.8 3.9 3.9 3.9zm-4.4-3.8c0 2.4 2 4.4 4.4 4.4 2.4 0 4.4-2 4.4-4.4 0-2.4-2-4.4-4.4-4.4-2.4 0-4.4 2-4.4 4.4 0 2.4 0-2.4 0 0zm7.8 0c0 1.9-1.5 3.4-3.3 3.4-1.9 0-3.4-1.5-3.4-3.3 0-1.9 1.5-3.4 3.3-3.4 1.9-.1 3.4 1.4 3.4 3.3 0 1.8 0-1.9 0 0zm-29.3 69.2l-.1-28.9 112.5-.4.1 29.2h1l-.1-30.2-114.6.4.1 29.9h1.1zm-92.7 0l-.2-51.5 112.5-.4.2 51.9h1l-.2-52.9-114.6.4.2 52.5h1.1zm-10.6 0l-.2-64.3h-1l.2 64.3h1zm-.7-60.2c2.1 0 3.9-1.7 3.9-3.9 0-2.1-1.7-3.9-3.9-3.9-2.1 0-3.9 1.7-3.9 3.9s1.7 3.9 3.9 3.9zm-4.4-3.9c0 2.4 2 4.4 4.4 4.4 2.4 0 4.4-2 4.4-4.4 0-2.4-2-4.4-4.4-4.4-2.5 0-4.4 2-4.4 4.4 0 2.4 0-2.4 0 0zm7.7 0c0 1.9-1.5 3.4-3.3 3.4-1.9 0-3.4-1.5-3.4-3.3 0-1.9 1.5-3.4 3.3-3.4 1.9-.1 3.4 1.4 3.4 3.3 0 1.8 0-1.9 0 0zm37.8 64.1l-.1-39.6 147.6-.5.1 40.1h1l-.1-41.1-149.6.5.1 40.6h1zm216.9 0v-10.8h-1v10.8h1zm-.5-6.7c2.1 0 3.9-1.7 3.9-3.9 0-2.1-1.7-3.9-3.9-3.9-2.1 0-3.9 1.7-3.9 3.9s1.8 3.9 3.9 3.9zm-4.4-3.9c0 2.4 2 4.4 4.4 4.4 2.4 0 4.4-2 4.4-4.4 0-2.4-2-4.4-4.4-4.4-2.5 0-4.4 2-4.4 4.4 0 2.5 0-2.4 0 0zm7.7 0c0 1.9-1.5 3.4-3.3 3.4-1.9 0-3.4-1.5-3.4-3.3 0-1.9 1.5-3.4 3.3-3.4 1.9 0 3.4 1.5 3.4 3.3 0 1.9 0-1.8 0 0zm95.1 10.6l-.2-103.2h-1l.2 103.2h1zm-.6-99c2.1 0 3.9-1.7 3.9-3.9 0-2.1-1.7-3.9-3.9-3.9-2.1 0-3.9 1.7-3.9 3.9 0 2.1 1.7 3.9 3.9 3.9zm-4.4-3.9c0 2.4 2 4.4 4.4 4.4 2.4 0 4.4-2 4.4-4.4 0-2.4-2-4.4-4.4-4.4-2.5 0-4.4 2-4.4 4.4 0 2.4 0-2.4 0 0zm7.7 0c0 1.9-1.5 3.4-3.3 3.4-1.9 0-3.4-1.5-3.4-3.3 0-1.9 1.5-3.4 3.3-3.4 1.9-.1 3.4 1.4 3.4 3.3 0 1.8 0-1.9 0 0zm-297.2 102.9v-3.7l24.8-.1v3.8h1v-4.8l-26.9.1v4.7h1.1zm-39.9 0l-.1-29.6h-1l.1 29.6h1zm-.6-25.5c2.1 0 3.9-1.7 3.9-3.9 0-2.1-1.7-3.9-3.9-3.9-2.1 0-3.9 1.7-3.9 3.9.1 2.2 1.8 3.9 3.9 3.9zm-4.4-3.9c0 2.4 2 4.4 4.4 4.4 2.4 0 4.4-2 4.4-4.4 0-2.4-2-4.4-4.4-4.4-2.4 0-4.4 2-4.4 4.4 0 2.5 0-2.4 0 0zm7.8 0c0 1.9-1.5 3.4-3.3 3.4-1.9 0-3.4-1.5-3.4-3.3 0-1.9 1.5-3.4 3.3-3.4 1.9 0 3.4 1.5 3.4 3.3 0 1.9 0-1.8 0 0zm347.5 29.4V741h-1v6.6h1zm3.4-6.4c0-2.1-1.7-3.9-3.9-3.9-2.1 0-3.9 1.7-3.9 3.9 0 2.1 1.7 3.9 3.9 3.9 2.1 0 3.8-1.7 3.9-3.9zm.5 0c0-2.4-2-4.4-4.4-4.4-2.4 0-4.4 2-4.4 4.4 0 2.4 2 4.4 4.4 4.4 2.4 0 4.4-2 4.4-4.4 0-2.4 0 2.4 0 0zm-7.8 0c0-1.9 1.5-3.4 3.4-3.3 1.9 0 3.4 1.5 3.3 3.4 0 1.9-1.5 3.4-3.4 3.3-1.8 0-3.3-1.5-3.3-3.4 0-1.8 0 1.9 0 0zm-601.1 6.4l.3-89h-1l-.3 89h1zm3.7-88.8c0-2.1-1.7-3.9-3.9-3.9-2.1 0-3.9 1.7-3.9 3.9s1.7 3.9 3.9 3.9c2.1 0 3.9-1.7 3.9-3.9zm.5 0c0-2.4-2-4.4-4.4-4.4-2.4 0-4.4 2-4.4 4.4 0 2.4 2 4.4 4.4 4.4 2.4 0 4.4-1.9 4.4-4.4 0-2.4 0 2.5 0 0zm-7.8 0c0-1.9 1.5-3.4 3.4-3.3 1.9 0 3.4 1.5 3.3 3.4 0 1.9-1.5 3.4-3.4 3.3-1.8 0-3.3-1.5-3.3-3.4 0-1.8 0 1.9 0 0zm24.6 88.8h1l.1-46.3-82.4-.3v1l81.4.3-.1 45.3zm21.5 0v-10l118.7.4v9.6h1V737l-120.7-.4v11h1zm-88.2 0h1l.1-18.8-15.7-.1v1h14.7l-.1 17.9zm170 0l.2-52.6h-1l-.2 52.6h1zm3.6-52.4c0-2.1-1.7-3.9-3.9-3.9-2.1 0-3.9 1.7-3.9 3.9 0 2.1 1.7 3.9 3.9 3.9 2.1 0 3.9-1.7 3.9-3.9zm.5 0c0-2.4-2-4.4-4.4-4.4-2.4 0-4.4 2-4.4 4.4 0 2.4 2 4.4 4.4 4.4 2.4 0 4.4-2 4.4-4.4 0-2.4 0 2.4 0 0zm-7.8 0c0-1.9 1.5-3.4 3.4-3.3 1.9 0 3.4 1.5 3.3 3.4 0 1.9-1.5 3.4-3.4 3.3-1.8 0-3.3-1.5-3.3-3.4 0-1.8 0 1.9 0 0zm-168.8-13.1l120.9.4-.2 65.2h1l.2-66.2-123-.4-.1 42.4h-10.9v1h11.9l.2-42.4zm83.8 65.5l.1-35.7 20.2.1-.1 35.7h1l.1-36.7-22.2-.1-.1 36.8h1zm148.5 0l.1-27.8h-1l-.1 27.8h1zm3.5-27.6c0-2.1-1.7-3.9-3.9-3.9-2.1 0-3.9 1.7-3.9 3.9 0 2.1 1.7 3.9 3.9 3.9 2.1 0 3.9-1.7 3.9-3.9zm.5 0c0-2.4-2-4.4-4.4-4.4-2.4 0-4.4 2-4.4 4.4 0 2.4 2 4.4 4.4 4.4 2.4 0 4.4-2 4.4-4.4 0-2.4 0 2.4 0 0zm-7.8 0c0-1.9 1.5-3.4 3.4-3.3 1.9 0 3.4 1.5 3.3 3.4 0 1.9-1.5 3.4-3.4 3.3-1.8 0-3.3-1.5-3.3-3.4.1-1.8 0 1.9 0 0zm28.8 27.6l.2-55.8h-1l-.2 55.8h1zm3.6-55.5c0-2.1-1.7-3.9-3.9-3.9-2.1 0-3.9 1.7-3.9 3.9 0 2.1 1.7 3.9 3.9 3.9 2.1-.1 3.9-1.8 3.9-3.9zm.5 0c0-2.4-2-4.4-4.4-4.4-2.4 0-4.4 2-4.4 4.4 0 2.4 2 4.4 4.4 4.4 2.4 0 4.4-2 4.4-4.4 0-2.4 0 2.4 0 0zm-7.8 0c0-1.9 1.5-3.4 3.4-3.3 1.9 0 3.4 1.5 3.3 3.4 0 1.9-1.5 3.4-3.4 3.3-1.8-.1-3.3-1.6-3.3-3.4 0-1.9 0 1.8 0 0zm-111.4 55.5l.1-51.8h-1l-.1 51.8h1zm3.5-51.5c0-2.1-1.7-3.9-3.9-3.9-2.1 0-3.9 1.7-3.9 3.9 0 2.1 1.7 3.9 3.9 3.9 2.1-.1 3.9-1.8 3.9-3.9zm.5 0c0-2.4-2-4.4-4.4-4.4-2.4 0-4.4 2-4.4 4.4 0 2.4 2 4.4 4.4 4.4s4.4-2 4.4-4.4c0-2.5 0 2.4 0 0zm-7.8-.1c0-1.9 1.5-3.4 3.4-3.3 1.9 0 3.4 1.5 3.3 3.4 0 1.9-1.5 3.4-3.4 3.3-1.8 0-3.3-1.5-3.3-3.4 0-1.8 0 1.9 0 0zm1057.7 51.6l-.1-28.9h11.6v-1h-12.6l.1 29.9h1zm-92.8 0l-.2-51.5 104.4-.3v-1l-105.4.3.2 52.5h1zm-10.5 0l-.2-64.3h-1l.2 64.3h1zm-.7-60.2c2.1 0 3.9-1.7 3.9-3.9 0-2.1-1.7-3.9-3.9-3.9-2.1 0-3.9 1.7-3.9 3.9s1.7 3.9 3.9 3.9zm-4.4-3.9c0 2.4 2 4.4 4.4 4.4 2.4 0 4.4-2 4.4-4.4 0-2.4-2-4.4-4.4-4.4-2.5 0-4.4 2-4.4 4.4 0 2.4 0-2.4 0 0zm7.7 0c0 1.9-1.5 3.4-3.3 3.4-1.9 0-3.4-1.5-3.4-3.3 0-1.9 1.5-3.4 3.3-3.4 1.9-.1 3.4 1.4 3.4 3.3 0 1.8 0-1.9 0 0zm37.8 64.1l-.1-39.6 74.5-.2v-1l-75.5.2.1 40.6h1zm20.3 0v-3.7l24.8-.1v3.8h1v-4.8l-26.9.1v4.7h1.1zm-39.9 0l-.1-29.6h-1l.1 29.6h1zm-.6-25.5c2.1 0 3.9-1.7 3.9-3.9 0-2.1-1.7-3.9-3.9-3.9-2.1 0-3.9 1.7-3.9 3.9s1.8 3.9 3.9 3.9zm-4.4-3.9c0 2.4 2 4.4 4.4 4.4 2.4 0 4.4-2 4.4-4.4 0-2.4-2-4.4-4.4-4.4-2.4 0-4.4 2-4.4 4.4 0 2.5 0-2.4 0 0zm7.8 0c0 1.9-1.5 3.4-3.3 3.4-1.9 0-3.4-1.5-3.4-3.3 0-1.9 1.5-3.4 3.3-3.4 1.9 0 3.4 1.5 3.4 3.3 0 1.9 0-1.8 0 0zm-257.5 29.4l.3-89h-1l-.3 89h1zm3.7-88.8c0-2.1-1.7-3.9-3.9-3.9-2.1 0-3.9 1.7-3.9 3.9s1.7 3.9 3.9 3.9c2.1 0 3.9-1.7 3.9-3.9zm-60.2 43.2c0-2.1-1.7-3.9-3.9-3.9-2.1 0-3.9 1.7-3.9 3.9 0 2.1 1.7 3.9 3.9 3.9 2.2-.1 3.9-1.8 3.9-3.9zm60.7-43.2c0-2.4-2-4.4-4.4-4.4-2.4 0-4.4 2-4.4 4.4 0 2.4 2 4.4 4.4 4.4 2.4 0 4.4-1.9 4.4-4.4 0-2.4 0 2.5 0 0zm-7.8 0c0-1.9 1.5-3.4 3.4-3.3 1.9 0 3.4 1.5 3.3 3.4 0 1.9-1.5 3.4-3.4 3.3-1.8 0-3.3-1.5-3.3-3.4 0-1.8 0 1.9 0 0zm24.6 88.8h1l.1-46.3-82.4-.3v1l81.4.3-.1 45.3zm21.4 0v-10l118.7.4v9.6h1V737l-120.7-.4v11h1zm-88.1 0h1l.1-18.8-15.7-.1v1h14.7l-.1 17.9zm170 0l.2-52.6h-1l-.2 52.6h1zm3.6-52.4c0-2.1-1.7-3.9-3.9-3.9-2.1 0-3.9 1.7-3.9 3.9 0 2.1 1.7 3.9 3.9 3.9 2.1 0 3.9-1.7 3.9-3.9zm.5 0c0-2.4-2-4.4-4.4-4.4-2.4 0-4.4 2-4.4 4.4 0 2.4 2 4.4 4.4 4.4 2.4 0 4.4-2 4.4-4.4 0-2.4 0 2.4 0 0zm-7.8 0c0-1.9 1.5-3.4 3.4-3.3 1.9 0 3.4 1.5 3.3 3.4 0 1.9-1.5 3.4-3.4 3.3-1.8 0-3.3-1.5-3.3-3.4 0-1.8 0 1.9 0 0zm-168.9-13.1l120.9.4-.2 65.2h1l.2-66.2-123-.4-.1 42.4h-10.9v1h11.9l.2-42.4zm83.9 65.5l.1-35.7 20.2.1-.1 35.7h1l.1-36.7-22.2-.1-.1 36.8h1zm148.5 0l.1-27.8h-1l-.1 27.8h1zm3.5-27.6c0-2.1-1.7-3.9-3.9-3.9-2.1 0-3.9 1.7-3.9 3.9 0 2.1 1.7 3.9 3.9 3.9 2.1 0 3.9-1.7 3.9-3.9zm.5 0c0-2.4-2-4.4-4.4-4.4-2.4 0-4.4 2-4.4 4.4 0 2.4 2 4.4 4.4 4.4 2.4 0 4.4-2 4.4-4.4 0-2.4 0 2.4 0 0zm-7.8 0c0-1.9 1.5-3.4 3.4-3.3 1.9 0 3.4 1.5 3.3 3.4 0 1.9-1.5 3.4-3.4 3.3-1.8 0-3.3-1.5-3.3-3.4 0-1.8 0 1.9 0 0zm28.8 27.6l.2-55.8h-1l-.2 55.8h1zm3.6-55.5c0-2.1-1.7-3.9-3.9-3.9-2.1 0-3.9 1.7-3.9 3.9 0 2.1 1.7 3.9 3.9 3.9 2.1-.1 3.8-1.8 3.9-3.9zm.5 0c0-2.4-2-4.4-4.4-4.4-2.4 0-4.4 2-4.4 4.4 0 2.4 2 4.4 4.4 4.4 2.4 0 4.4-2 4.4-4.4 0-2.4 0 2.4 0 0zm-7.8 0c0-1.9 1.5-3.4 3.4-3.3 1.9 0 3.4 1.5 3.3 3.4 0 1.9-1.5 3.4-3.4 3.3-1.8-.1-3.3-1.6-3.3-3.4 0-1.9 0 1.8 0 0zm-111.4 55.5l.1-51.8h-1l-.1 51.8h1zm3.4-51.5c0-2.1-1.7-3.9-3.9-3.9-2.1 0-3.9 1.7-3.9 3.9 0 2.1 1.7 3.9 3.9 3.9 2.2-.1 3.9-1.8 3.9-3.9zm.6 0c0-2.4-2-4.4-4.4-4.4-2.4 0-4.4 2-4.4 4.4 0 2.4 2 4.4 4.4 4.4 2.4-.1 4.4-2 4.4-4.4 0-2.5 0 2.4 0 0zm-7.8-.1c0-1.9 1.5-3.4 3.4-3.3 1.9 0 3.4 1.5 3.3 3.4 0 1.9-1.5 3.4-3.4 3.3-1.8 0-3.3-1.5-3.3-3.4 0-1.8 0 1.9 0 0z"/><g clip-path="url(#b)"><g opacity=".02"><path fill="#D9D9D9" d="M65.3 139.3l-.4 127.1-68.1-.3v1.7l69.7.2.5-128.7z"/><path fill="#D9D9D9" d="M-3.2 225.5v1.6l172.6.6V226z"/><path fill="#D9D9D9" d="M36.3 139.2l-.7 218.5-38.8-.1v1.6l40.4.1.7-220.1zM142.5 139.5h-1.7l-.5 175-42.1-.1-.4 101.7h1.7l.3-100.1 42.1.1z"/><g fill="#D9D9D9"><circle cx="98.7" cy="415.7" r="6.1"/><path d="M91.8 415.7c0-3.8 3.1-6.9 6.9-6.9 3.8 0 6.9 3.1 6.9 6.9 0 3.8-3.1 6.9-6.9 6.9-3.9 0-7-3.1-6.9-6.9 0-3.8-.1 3.8 0 0zm12.1 0c0-2.9-2.4-5.3-5.3-5.3s-5.3 2.4-5.3 5.3 2.4 5.3 5.3 5.3c3 0 5.3-2.4 5.3-5.3.1-2.9 0 2.9 0 0z"/></g></g><g opacity=".02"><path fill="#D9D9D9" d="M245.1 117v8.3l-231.9-.5-.3 103.1-16.1-.1v1.6l17.7.1.3-103.1 231.9.5V117z"/><path fill="#D9D9D9" d="M93 116.8l-.2 67.8-96-.3v1.7l97.6.3.2-69.5z"/><path fill="#D9D9D9" d="M221.3 116.9l-.3 76.4-224.2-.5v1.6l225.8.5.3-78z"/><path fill="#D9D9D9" d="M65.28 220.568l.33-103.8 1.6.006-.33 103.8z"/><g fill="#D9D9D9"><circle cx="66.1" cy="220.2" r="6.1"/><path d="M59.2 220.2c0-3.8 3.1-6.9 6.9-6.9 3.8 0 6.9 3.1 6.9 6.9 0 3.8-3.1 6.9-6.9 6.9-3.8 0-6.9-3.1-6.9-6.9 0-3.8 0 3.8 0 0zm12.2 0c0-2.9-2.4-5.3-5.3-5.3s-5.3 2.4-5.3 5.3 2.4 5.3 5.3 5.3 5.3-2.4 5.3-5.3 0 2.9 0 0z"/></g></g><path opacity=".02" fill="#D9D9D9" d="M169.4 203.4V115h2.2v90.1h-2.2"/><g opacity=".02"><path fill="#D9D9D9" d="M572.504 549.126l-1.077-337.7 1.6-.006 1.077 337.7z"/><g fill="#D9D9D9"><circle cx="573.3" cy="548.8" r="6.1"/><path d="M580.2 548.7c0 3.8-3.1 6.9-6.9 6.9-3.8 0-6.9-3.1-6.9-6.9 0-3.8 3.1-6.9 6.9-6.9 3.8 0 6.9 3.1 6.9 6.9 0 3.8 0-3.8 0 0zm-12.2.1c0 2.9 2.4 5.3 5.3 5.3s5.3-2.4 5.3-5.3-2.4-5.3-5.3-5.3-5.3 2.4-5.3 5.3 0-2.9 0 0z"/></g><path fill="#D9D9D9" d="M250.5 212.5h1.7l.4 127 184.3-.5.4 108.8 177-.5-.3-94.4 168.4-.5-.5-141.6h1.6L784 354l-168.4.5.3 94.4-180.2.6-.4-108.9-184.4.6z"/><path fill="#D9D9D9" d="M804.8 395.9l-149.9.4-.3-95.8-168.6.5.4 110.4-146.5.5-.4-113.3-191.4.6v1.7l189.8-.7.4 113.3L488 413l-.3-110.4 165.3-.5.3 95.9 151.5-.5z"/><path fill="#D9D9D9" d="M804.8 375.5v-1.6l-28.4.1.5 167h1.6l-.5-165.4z"/><g fill="#D9D9D9"><circle cx="777.7" cy="540.7" r="6.1"/><path d="M784.6 540.7c0 3.8-3.1 6.9-6.9 6.9-3.8 0-6.9-3.1-6.9-6.9 0-3.8 3.1-6.9 6.9-6.9 3.8 0 6.9 3 6.9 6.9 0 3.8 0-3.9 0 0zm-12.2 0c0 2.9 2.4 5.3 5.3 5.3s5.3-2.4 5.3-5.3-2.4-5.3-5.3-5.3-5.3 2.4-5.3 5.3 0-2.9 0 0z"/></g><path fill="#D9D9D9" d="M804.8 298.8v-1.7l-92.3.3.7 204.7-232.2.8-.2-72.6-198.9.6-.7-218.5h-1.6l.7 220.1 198.9-.6.2 72.6 235.4-.7-.7-204.8z"/><path fill="#D9D9D9" d="M435.213 302.686l-.29-90.8 1.6-.005.29 90.8z"/><g fill="#D9D9D9"><circle cx="436" cy="302.4" r="6.1"/><path d="M442.9 302.4c0 3.8-3.1 6.9-6.9 6.9-3.8 0-6.9-3.1-6.9-6.9 0-3.8 3.1-6.9 6.9-6.9 3.8 0 6.9 3.1 6.9 6.9 0 3.8 0-3.8 0 0zm-12.2 0c0 2.9 2.4 5.3 5.3 5.3s5.3-2.4 5.3-5.3-2.4-5.3-5.3-5.3-5.3 2.4-5.3 5.3 0-2.9 0 0z"/></g><path fill="none" d="M371.774 456.804l-.78-244.7 1.6-.005.78 244.7z"/><g fill="#D9D9D9"><circle cx="372.6" cy="456.5" r="6.1"/><path d="M379.5 456.5c0 3.8-3.1 6.9-6.9 6.9-3.8 0-6.9-3.1-6.9-6.9 0-3.8 3.1-6.9 6.9-6.9 3.8 0 6.9 3.1 6.9 6.9 0 3.8 0-3.8 0 0zm-12.1 0c0 2.9 2.4 5.3 5.3 5.3s5.3-2.4 5.3-5.3-2.4-5.3-5.3-5.3c-3 0-5.4 2.4-5.3 5.3 0 2.9-.1-2.9 0 0z"/></g><g><path fill="#D9D9D9" d="M175 212.7h1.7l.5 175 42.1-.1.4 214.5H218l-.3-212.9-42.1.1z"/><g fill="#D9D9D9"><circle cx="218.8" cy="601.7" r="6.1"/><path d="M225.7 601.7c0 3.8-3.1 6.9-6.9 6.9-3.8 0-6.9-3.1-6.9-6.9 0-3.8 3.1-6.9 6.9-6.9 3.8 0 6.9 3.1 6.9 6.9.1 3.8 0-3.8 0 0zm-12.1.1c0 2.9 2.4 5.3 5.3 5.3s5.3-2.4 5.3-5.3-2.4-5.3-5.3-5.3c-3 0-5.4 2.3-5.3 5.3 0 2.9-.1-3 0 0z"/></g></g><g><path fill="#D9D9D9" d="M641.3 211.2l.7 234.5 39-.1-.7-234.5h1.6l.8 236.1-42.3.2-.8-236.2z"/></g><g><path fill="#D9D9D9" d="M752.19 454.144l-.777-243.3 1.6-.005.776 243.3z"/><g fill="#D9D9D9"><path d="M759.1 453.8c0 3.4-2.7 6.1-6.1 6.1-3.4 0-6.1-2.7-6.1-6.1 0-3.4 2.7-6.1 6.1-6.1 3.4 0 6.1 2.7 6.1 6.1z"/><path d="M759.9 453.8c0 3.8-3.1 6.9-6.9 6.9-3.8 0-6.9-3.1-6.9-6.9 0-3.8 3.1-6.9 6.9-6.9 3.8 0 6.9 3.1 6.9 6.9 0 3.8 0-3.8 0 0zm-12.2 0c0 2.9 2.4 5.3 5.3 5.3s5.3-2.4 5.3-5.3-2.4-5.3-5.3-5.3-5.3 2.4-5.3 5.3 0-2.9 0 0z"/></g></g></g><g opacity=".02"><path fill="#D9D9D9" d="M624.371 296.298l.575-180.1 1.6.005-.575 180.1z"/><g fill="#D9D9D9"><circle cx="625.2" cy="295.9" r="6.1"/><path d="M618.3 295.9c0-3.8 3.1-6.9 6.9-6.9 3.8 0 6.9 3.1 6.9 6.9 0 3.8-3.1 6.9-6.9 6.9-3.8 0-6.9-3.1-6.9-6.9 0-3.8 0 3.8 0 0zm12.2 0c0-2.9-2.4-5.3-5.3-5.3s-5.3 2.4-5.3 5.3 2.4 5.3 5.3 5.3 5.3-2.3 5.3-5.3 0 3 0 0z"/></g><path fill="#D9D9D9" d="M804.8 125l-67.8-.2-.3 103.1-145-.5.3-91.1-138.3-.5.1-20.2h-1.6l-.1 21.8 138.2.5-.2 91.1 148.2.5.3-103.1 66.2.2z"/><g fill="#D9D9D9"><path d="M558.2 116l-.2 55.9-186.6-.6.2-55.9h-1.7l-.1 57.5 189.9.6.1-57.5zM804.8 184.6l-108.1-.3.2-67.9h-1.6l-.3 69.5 109.8.3z"/></g><path fill="#D9D9D9" d="M261.5 115l-.1 24.2 168 .5-.4 99.3h1.6l.5-100.9-168.1-.5.1-22.6z"/><g fill="#D9D9D9"><circle cx="429.8" cy="238.7" r="6.1"/><path d="M422.9 238.7c0-3.8 3.1-6.9 6.9-6.9 3.8 0 6.9 3.1 6.9 6.9 0 3.8-3.1 6.9-6.9 6.9-3.8 0-6.9-3.1-6.9-6.9 0-3.8 0 3.8 0 0zm12.2 0c0-2.9-2.4-5.3-5.3-5.3s-5.3 2.4-5.3 5.3 2.4 5.3 5.3 5.3 5.3-2.4 5.3-5.3 0 2.9 0 0z"/></g><path fill="#D9D9D9" d="M804.8 193l-103.8-.3-.2 66.7-190.3-.6.5-143h-1.6l-.5 144.6 193.5.6.2-66.6 102.2.2z"/><path fill="#D9D9D9" d="M789.077 220.562l.33-103.8 1.6.005-.33 103.8z"/><g fill="#D9D9D9"><circle cx="789.9" cy="220.2" r="6.1"/><path d="M783 220.2c0-3.8 3.1-6.9 6.9-6.9 3.8 0 6.9 3.1 6.9 6.9 0 3.8-3.1 6.9-6.9 6.9-3.8 0-6.9-3.1-6.9-6.9 0-3.8 0 3.8 0 0zm12.2 0c0-2.9-2.4-5.3-5.3-5.3s-5.3 2.4-5.3 5.3 2.4 5.3 5.3 5.3 5.3-2.4 5.3-5.3 0 2.9 0 0z"/></g><path fill="#D9D9D9" d="M568.9 116l-.3 96.5-31.7-.1.3-96.5h-1.6l-.3 98.1 35 .1.3-98.1z"/><g><path fill="#D9D9D9" d="M335.086 199.98l.27-84.8 1.6.005-.27 84.8z"/><g fill="#D9D9D9"><circle cx="335.9" cy="199.7" r="6.1"/><path d="M329 199.6c0-3.8 3.1-6.9 6.9-6.9 3.8 0 6.9 3.1 6.9 6.9 0 3.8-3.1 6.9-6.9 6.9-3.8.1-6.9-3-6.9-6.9 0-3.8 0 3.9 0 0zm12.2.1c0-2.9-2.4-5.3-5.3-5.3s-5.3 2.4-5.3 5.3 2.4 5.3 5.3 5.3 5.3-2.4 5.3-5.3 0 2.9 0 0z"/></g></g><g><path fill="#D9D9D9" d="M229.3 114.9v1.6l66.7.2-.4 127.3h1.7l.4-128.9z"/><g fill="#D9D9D9"><circle cx="296.5" cy="243.6" r="6.1"/><path d="M289.6 243.6c0-3.8 3.1-6.9 6.9-6.9 3.8 0 6.9 3.1 6.9 6.9 0 3.8-3.1 6.9-6.9 6.9-3.9 0-7-3.1-6.9-6.9 0-3.8-.1 3.8 0 0zm12.1.1c0-2.9-2.4-5.3-5.3-5.3s-5.3 2.4-5.3 5.3 2.4 5.3 5.3 5.3c2.9-.1 5.3-2.4 5.3-5.3 0-3 0 2.9 0 0z"/></g></g><g><path fill="#D9D9D9" d="M476.858 237.743l.327-122 1.6.004-.327 122z"/><g fill="#D9D9D9"><circle cx="477.7" cy="237.4" r="6.1"/><path d="M470.8 237.4c0-3.8 3.1-6.9 6.9-6.9 3.8 0 6.9 3.1 6.9 6.9 0 3.8-3.1 6.9-6.9 6.9-3.9 0-6.9-3.1-6.9-6.9 0-3.9 0 3.8 0 0zm12.2 0c0-2.9-2.4-5.3-5.3-5.3s-5.3 2.4-5.3 5.3 2.4 5.3 5.3 5.3 5.2-2.4 5.3-5.3c0-2.9-.1 2.9 0 0z"/></g></g></g><g opacity=".02"><path fill="#D9D9D9" d="M867.4 139.3l-.4 127.1-68.1-.3v1.7l69.7.2.4-128.7z"/><path fill="#D9D9D9" d="M798.9 225.5v1.6l172.5.6V226z"/><path fill="#D9D9D9" d="M838.3 139.2l-.6 218.5-38.8-.1v1.6l40.4.1.7-220.1zM944.5 139.5h-1.6l-.6 175-42.1-.1-.3 101.7h1.6l.3-100.1 42.1.1z"/><g fill="#D9D9D9"><circle cx="900.7" cy="415.7" r="6.1"/><path d="M893.8 415.7c0-3.8 3.1-6.9 6.9-6.9 3.8 0 6.9 3.1 6.9 6.9 0 3.8-3.1 6.9-6.9 6.9-3.8 0-6.9-3.1-6.9-6.9 0-3.8 0 3.8 0 0zm12.2 0c0-2.9-2.4-5.3-5.3-5.3s-5.3 2.4-5.3 5.3 2.4 5.3 5.3 5.3 5.3-2.4 5.3-5.3 0 2.9 0 0z"/></g></g><g opacity=".02"><path fill="#D9D9D9" d="M1047.2 117l-.1 8.3-231.9-.5-.3 103.1-16-.1v1.6l17.6.1.3-103.1 231.9.5.1-9.9z"/><path fill="#D9D9D9" d="M895.1 116.8l-.2 67.8-96-.3v1.7l97.6.3.2-69.5z"/><path fill="#D9D9D9" d="M1023.3 116.9l-.2 76.4-224.2-.5v1.6l225.8.5.2-78z"/><path fill="#D9D9D9" d="M867.328 220.513l.33-103.8 1.6.005-.33 103.8z"/><g fill="#D9D9D9"><circle cx="868.1" cy="220.2" r="6.1"/><path d="M861.2 220.2c0-3.8 3.1-6.9 6.9-6.9 3.8 0 6.9 3.1 6.9 6.9 0 3.8-3.1 6.9-6.9 6.9-3.8 0-6.9-3.1-6.9-6.9.1-3.8 0 3.8 0 0zm12.2 0c0-2.9-2.4-5.3-5.3-5.3s-5.3 2.4-5.3 5.3 2.4 5.3 5.3 5.3 5.3-2.4 5.3-5.3 0 2.9 0 0z"/></g></g><path opacity=".02" fill="#D9D9D9" d="M971.4 203.4V115h2.2v90.1h-2.2"/><g opacity=".02"><path fill="#D9D9D9" d="M1207.9 171.4l-34.5-.1.2-55.9h-1.6l-.2 57.5 36.1.1z"/><path fill="#D9D9D9" d="M1207.9 138.1l-142.8-.5.1-22.6h-1.7v24.2l144.4.5z"/><path fill="#D9D9D9" d="M1137.134 200.024l.27-84.8 1.6.005-.27 84.8z"/><g fill="#D9D9D9"><circle cx="1138" cy="199.7" r="6.1"/><path d="M1131.1 199.6c0-3.8 3.1-6.9 6.9-6.9 3.8 0 6.9 3.1 6.9 6.9 0 3.8-3.1 6.9-6.9 6.9-3.9.1-6.9-3-6.9-6.9 0-3.8 0 3.9 0 0zm12.1.1c0-2.9-2.4-5.3-5.3-5.3s-5.3 2.4-5.3 5.3 2.4 5.3 5.3 5.3c3 0 5.3-2.4 5.3-5.3.1-2.9 0 2.9 0 0z"/></g><g><path fill="#D9D9D9" d="M1031.4 114.9v1.6l66.7.2-.4 127.3h1.6l.4-128.9z"/><g fill="#D9D9D9"><circle cx="1098.5" cy="243.6" r="6.1"/><path d="M1091.6 243.6c0-3.8 3.1-6.9 6.9-6.9 3.8 0 6.9 3.1 6.9 6.9 0 3.8-3.1 6.9-6.9 6.9-3.8 0-6.9-3.1-6.9-6.9 0-3.8 0 3.8 0 0zm12.2.1c0-2.9-2.4-5.3-5.3-5.3s-5.3 2.4-5.3 5.3 2.4 5.3 5.3 5.3c2.9-.1 5.3-2.4 5.3-5.3 0-3 0 2.9 0 0z"/></g></g></g><g opacity=".09"><path fill="#D9D9D9" d="M155.48 349.214l1.076-337.7 1.6.005-1.077 337.7z"/><g fill="#D9D9D9"><circle cx="156.3" cy="348.8" r="6.1"/><path d="M149.4 348.8c0-3.8 3.1-6.9 6.9-6.9 3.8 0 6.9 3.1 6.9 6.9 0 3.8-3.1 6.9-6.9 6.9-3.8 0-6.9-3.1-6.9-6.9 0-3.8 0 3.8 0 0zm12.2 0c0-2.9-2.4-5.3-5.3-5.3s-5.3 2.4-5.3 5.3 2.4 5.3 5.3 5.3 5.3-2.3 5.3-5.3c0-2.9 0 3 0 0z"/></g><path fill="#D9D9D9" d="M477.5 12.5l-.5 127.1-184.3-.6-.4 108.9-176.9-.5.3-94.4-118.9-.4v1.6l117.2.4-.3 94.4 180.2.5.4-108.8 184.4.5.4-128.6z"/><path fill="#D9D9D9" d="M390.1 98.7l-.4 113.2-146.5-.4.4-110.4-168.6-.6-.3 95.9-77.9-.2v1.6l79.5.2.3-95.8 165.3.5-.3 110.4 149.7.5.4-113.3 189.8.6v-1.6z"/><path fill="#D9D9D9" d="M448.4 12.5l-.7 218.5-198.9-.6-.2 72.5-232.1-.7.6-204.7-20.3-.1v1.7h18.7l-.7 204.7 235.4.8.2-72.6 198.9.6.7-220.1z"/><path fill="#D9D9D9" d="M292.813 102.81l.289-90.8 1.6.005-.29 90.8z"/><g fill="#D9D9D9"><circle cx="293.6" cy="102.5" r="6.1"/><path d="M286.7 102.4c0-3.8 3.1-6.9 6.9-6.9 3.8 0 6.9 3.1 6.9 6.9 0 3.8-3.1 6.9-6.9 6.9-3.8 0-6.9-3.1-6.9-6.9 0-3.8 0 3.8 0 0zm12.2.1c0-2.9-2.4-5.3-5.3-5.3s-5.3 2.4-5.3 5.3 2.4 5.3 5.3 5.3c2.9-.1 5.3-2.4 5.3-5.3s0 2.9 0 0z"/></g><path fill="#D9D9D9" d="M356.15 256.895l.781-244.7 1.6.005-.78 244.7z"/><g fill="#D9D9D9"><circle cx="357" cy="256.6" r="6.1"/><path d="M350.1 256.5c0-3.8 3.1-6.9 6.9-6.9 3.8 0 6.9 3.1 6.9 6.9 0 3.8-3.1 6.9-6.9 6.9-3.8 0-6.9-3.1-6.9-6.9 0-3.8 0 3.8 0 0zm12.2.1c0-2.9-2.4-5.3-5.3-5.3s-5.3 2.4-5.3 5.3 2.3 5.3 5.3 5.3c2.9-.1 5.3-2.4 5.3-5.3s0 2.9 0 0z"/></g><g><path fill="#D9D9D9" d="M554.6 12.8h-1.7l-.5 175-42.1-.2-.3 101.7h1.6l.3-100 42.1.1z"/><g fill="#D9D9D9"><circle cx="510.8" cy="289" r="6.1"/><path d="M503.9 289c0-3.8 3.1-6.9 6.9-6.9 3.8 0 6.9 3.1 6.9 6.9 0 3.8-3.1 6.9-6.9 6.9-3.9 0-6.9-3.1-6.9-6.9 0-3.8 0 3.8 0 0zm12.2 0c0-2.9-2.4-5.3-5.3-5.3s-5.3 2.4-5.3 5.3 2.4 5.3 5.3 5.3 5.2-2.4 5.3-5.3c0-2.9-.1 2.9 0 0z"/></g></g><g><path fill="#D9D9D9" d="M88.4 11.3l-.8 234.5-39-.1.7-234.5h-1.6L47 247.3l42.2.1.8-236.1z"/></g></g><g opacity=".09"><path fill="#D9D9D9" d="M312.72 169.584l.575-180.1 1.6.005-.575 180.1z"/><g fill="#D9D9D9"><circle cx="313.5" cy="169.2" r="6.1"/><path d="M306.6 169.2c0-3.8 3.1-6.9 6.9-6.9 3.8 0 6.9 3.1 6.9 6.9 0 3.8-3.1 6.9-6.9 6.9-3.8 0-6.9-3.1-6.9-6.9 0-3.8 0 3.8 0 0zm12.2 0c0-2.9-2.4-5.3-5.3-5.3s-5.3 2.4-5.3 5.3 2.4 5.3 5.3 5.3 5.3-2.4 5.3-5.3 0 2.9 0 0z"/></g><path fill="#D9D9D9" d="M658.8-9.7h-1.6v8.3l-231.9-.5-.3 103-145-.4.3-91.2L142 9.1l.1-20.2h-1.6l-.1 21.8 138.2.4-.2 91.2 148.2.5.3-103.1 231.9.5z"/><g fill="#D9D9D9"><path d="M246.5-10.8l-.1 56-186.7-.6.2-56h-1.6l-.2 57.6 189.9.6.2-57.6zM505.1-9.9l-.2 67.8-119.9-.4.2-67.8h-1.6l-.2 69.4 123.1.4.3-69.4z"/></g><path fill="#D9D9D9" d="M-3.2 11v1.6l121 .4-.5 99.3h1.7l.4-100.9z"/><g fill="#D9D9D9"><circle cx="118.1" cy="111.9" r="6.1"/><path d="M111.2 111.9c0-3.8 3.1-6.9 6.9-6.9 3.8 0 6.9 3.1 6.9 6.9 0 3.8-3.1 6.9-6.9 6.9-3.8 0-6.9-3.1-6.9-6.9.1-3.8 0 3.8 0 0zm12.2.1c0-2.9-2.4-5.3-5.3-5.3s-5.3 2.4-5.3 5.3 2.4 5.3 5.3 5.3c2.9-.1 5.3-2.4 5.3-5.3s0 2.9 0 0z"/></g><path fill="#D9D9D9" d="M635-9.8h-1.6l-.3 76.3-243.8-.5-.2 66.6-190.3-.6.5-142.9h-1.6l-.5 144.5 193.5.7.2-66.7 243.8.6z"/><path fill="#D9D9D9" d="M477.426 93.748l.33-103.8 1.6.005-.33 103.8z"/><g fill="#D9D9D9"><circle cx="478.2" cy="93.5" r="6.1"/><path d="M471.3 93.4c0-3.8 3.1-6.9 6.9-6.9 3.8 0 6.9 3.1 6.9 6.9 0 3.8-3.1 6.9-6.9 6.9-3.8 0-6.9-3.1-6.9-6.9 0-3.8 0 3.8 0 0zm12.2.1c0-2.9-2.4-5.3-5.3-5.3s-5.3 2.4-5.3 5.3 2.4 5.3 5.3 5.3 5.3-2.4 5.3-5.3 0 2.9 0 0z"/></g><g><path fill="#D9D9D9" d="M257.3-10.7l-.3 96.4-31.8-.1.3-96.4h-1.6l-.3 98 35 .2.3-98.1z"/></g><g><path fill="#D9D9D9" d="M23.435 73.266l.27-84.8 1.6.005-.27 84.8z"/><g fill="#D9D9D9"><circle cx="24.2" cy="72.9" r="6.1"/><path d="M17.3 72.9c0-3.8 3.1-6.9 6.9-6.9 3.8 0 6.9 3.1 6.9 6.9 0 3.8-3.1 6.9-6.9 6.9-3.8 0-6.9-3.1-6.9-6.9 0-3.8 0 3.8 0 0zm12.2.1c0-2.9-2.4-5.3-5.3-5.3s-5.3 2.4-5.3 5.3 2.4 5.3 5.3 5.3c2.9-.1 5.3-2.4 5.3-5.3 0-3 0 2.9 0 0z"/></g></g><g><path fill="#D9D9D9" d="M165.207 111.028l.327-122 1.6.005-.327 122z"/><g fill="#D9D9D9"><circle cx="166" cy="110.6" r="6.1"/><path d="M159.1 110.6c0-3.8 3.1-6.9 6.9-6.9 3.8 0 6.9 3.1 6.9 6.9 0 3.8-3.1 6.9-6.9 6.9-3.8 0-6.9-3.1-6.9-6.9 0-3.8 0 3.8 0 0zm12.2.1c0-2.9-2.4-5.3-5.3-5.3s-5.3 2.4-5.3 5.3 2.4 5.3 5.3 5.3c2.9-.1 5.3-2.4 5.3-5.3 0-3 0 2.9 0 0z"/></g></g></g><path opacity=".09" fill="#D9D9D9" d="M581.5 76.7v-88.4h2.2v90h-2.2"/><g opacity=".09"><path fill="#D9D9D9" d="M804.8 146.5l-131.1.4-.4-127h-1.6l.4 128.7 132.7-.5z"/><path fill="#D9D9D9" d="M804.8 211.1l-43.8.2-.3-113.3-191.5.6.1 1.7 189.7-.6.4 113.2 45.4-.2z"/><path fill="#D9D9D9" d="M804.8 238l-101.8.3-.7-218.5h-1.6l.7 220.1 103.4-.3z"/><path fill="#D9D9D9" d="M792.89 264.212l-.78-244.7 1.6-.005.78 244.7z"/><g fill="#D9D9D9"><circle cx="793.7" cy="263.9" r="6.1"/><path d="M800.6 263.9c0 3.8-3.1 6.9-6.9 6.9-3.8 0-6.9-3.1-6.9-6.9 0-3.8 3.1-6.9 6.9-6.9 3.8 0 6.9 3 6.9 6.9.1 3.8 0-3.9 0 0zm-12.1 0c0 2.9 2.4 5.3 5.3 5.3s5.3-2.4 5.3-5.3-2.4-5.3-5.3-5.3c-3 0-5.3 2.4-5.3 5.3s0-2.9 0 0z"/></g><g><path fill="#D9D9D9" d="M596.2 20.1h1.6l.5 175 42.1-.1.4 214.5h-1.7l-.3-212.9-42.1.1z"/><g fill="#D9D9D9"><circle cx="640" cy="409.1" r="6.1"/><path d="M646.9 409.1c0 3.8-3.1 6.9-6.9 6.9-3.8 0-6.9-3.1-6.9-6.9 0-3.8 3.1-6.9 6.9-6.9 3.7 0 6.8 3.1 6.9 6.9 0 3.8-.1-3.8 0 0zm-12.2.1c0 2.9 2.4 5.3 5.3 5.3s5.3-2.4 5.3-5.3-2.4-5.3-5.3-5.3c-3 0-5.3 2.3-5.3 5.3 0 2.9 0-3 0 0z"/></g></g></g><g opacity=".09"><path fill="#D9D9D9" d="M804.8 44.6h-21.3l.2-56h-1.6l-.2 57.6 22.9.1z"/><path fill="#D9D9D9" d="M804.8 11.3l-129.6-.4v-22.6h-1.6l-.1 24.2 131.3.4z"/><path fill="#D9D9D9" d="M747.233 73.26l.27-84.8 1.6.005-.27 84.8z"/><g fill="#D9D9D9"><circle cx="748" cy="72.9" r="6.1"/><path d="M741.1 72.9c0-3.8 3.1-6.9 6.9-6.9 3.8 0 6.9 3.1 6.9 6.9 0 3.8-3.1 6.9-6.9 6.9-3.8 0-6.9-3.1-6.9-6.9 0-3.8 0 3.8 0 0zm12.2.1c0-2.9-2.4-5.3-5.3-5.3s-5.3 2.4-5.3 5.3 2.4 5.3 5.3 5.3c2.9-.1 5.3-2.4 5.3-5.3 0-3 0 2.9 0 0z"/></g><g><path fill="#D9D9D9" d="M641.4-11.8v1.5l66.8.2-.4 127.3h1.6l.4-128.8z"/><g fill="#D9D9D9"><circle cx="708.6" cy="116.9" r="6.1"/><path d="M701.7 116.9c0-3.8 3.1-6.9 6.9-6.9 3.8 0 6.9 3.1 6.9 6.9 0 3.8-3.1 6.9-6.9 6.9-3.9 0-6.9-3.1-6.9-6.9 0-3.8 0 3.8 0 0zm12.1 0c0-2.9-2.4-5.3-5.3-5.3s-5.3 2.4-5.3 5.3 2.4 5.3 5.3 5.3c3 0 5.3-2.4 5.3-5.3.1-2.9 0 2.9 0 0z"/></g></g></g><g opacity=".09"><path fill="#D9D9D9" d="M957.528 349.158l1.077-337.7 1.6.005-1.077 337.7z"/><g fill="#D9D9D9"><circle cx="958.4" cy="348.8" r="6.1"/><path d="M951.5 348.8c0-3.8 3.1-6.9 6.9-6.9 3.8 0 6.9 3.1 6.9 6.9 0 3.8-3.1 6.9-6.9 6.9-3.8 0-6.9-3.1-6.9-6.9 0-3.8 0 3.8 0 0zm12.2 0c0-2.9-2.4-5.3-5.3-5.3s-5.3 2.4-5.3 5.3 2.4 5.3 5.3 5.3 5.3-2.3 5.3-5.3c0-2.9 0 3 0 0z"/></g><path fill="#D9D9D9" d="M1207.9 139.4l-113.2-.4-.3 108.9-177-.5.3-94.4-118.8-.4v1.6l117.2.4-.3 94.4 180.2.5.3-108.8 111.6.3z"/><path fill="#D9D9D9" d="M1207.9 98.7h-15.8l-.3 113.2-146.5-.4.3-110.4-168.6-.6-.2 95.9-77.9-.2v1.6l79.5.2.3-95.8 165.3.5-.3 110.4 149.7.5.3-113.3 14.2.1z"/><path fill="#D9D9D9" d="M1207.9 230.9l-157-.5-.3 72.5-232.1-.7.7-204.7-20.3-.1v1.7h18.6l-.6 204.7 235.4.8.2-72.6 155.4.5zM1094.861 102.754l.29-90.8 1.6.005-.29 90.8z"/><g fill="#D9D9D9"><circle cx="1095.6" cy="102.5" r="6.1"/><path d="M1088.7 102.4c0-3.8 3.1-6.9 6.9-6.9 3.8 0 6.9 3.1 6.9 6.9 0 3.8-3.1 6.9-6.9 6.9-3.8 0-6.9-3.1-6.9-6.9 0-3.8 0 3.8 0 0zm12.2.1c0-2.9-2.4-5.3-5.3-5.3s-5.3 2.4-5.3 5.3 2.4 5.3 5.3 5.3c2.9-.1 5.3-2.4 5.3-5.3s0 2.9 0 0z"/></g><g><path fill="#D9D9D9" d="M1158.2 256.84l.78-244.7 1.6.004-.78 244.7z"/><g fill="#D9D9D9"><circle cx="1159" cy="256.6" r="6.1"/><path d="M1152.1 256.5c0-3.8 3.1-6.9 6.9-6.9 3.8 0 6.9 3.1 6.9 6.9 0 3.8-3.1 6.9-6.9 6.9-3.8 0-6.9-3.1-6.9-6.9 0-3.8 0 3.8 0 0zm12.2.1c0-2.9-2.4-5.3-5.3-5.3s-5.3 2.4-5.3 5.3 2.3 5.3 5.3 5.3c2.9-.1 5.3-2.4 5.3-5.3s0 2.9 0 0z"/></g></g><g><path fill="#D9D9D9" d="M890.4 11.3l-.7 234.5-39.1-.1.8-234.5h-1.6l-.8 236.1 42.3.1.7-236.1z"/></g></g><g opacity=".09"><path fill="#D9D9D9" d="M1114.769 169.528l.574-180.1 1.6.005-.574 180.1z"/><g fill="#D9D9D9"><circle cx="1115.6" cy="169.2" r="6.1"/><path d="M1108.7 169.2c0-3.8 3.1-6.9 6.9-6.9 3.8 0 6.9 3.1 6.9 6.9s-3.1 6.9-6.9 6.9c-3.9 0-7-3.1-6.9-6.9s-.1 3.8 0 0zm12.1 0c0-2.9-2.4-5.3-5.3-5.3s-5.3 2.4-5.3 5.3 2.4 5.3 5.3 5.3c3 0 5.3-2.4 5.3-5.3.1-2.9 0 2.9 0 0z"/></g><path fill="#D9D9D9" d="M1207.9 102.7v-1.6l-125.8-.4.2-91.2-138.2-.4v-20.2h-1.6v21.8l138.2.4-.2 91.2z"/><g fill="#D9D9D9"><path d="M1048.6-10.8l-.2 56-186.7-.6.2-56h-1.6l-.2 57.6 189.9.6.2-57.6zM1207.9 57.6l-20.9-.1.3-67.8h-1.7l-.2 69.4 22.5.1z"/></g><path fill="#D9D9D9" d="M798.9 11v1.6l120.9.4-.4 99.3h1.6l.4-100.9z"/><g fill="#D9D9D9"><circle cx="920.2" cy="111.9" r="6.1"/><path d="M913.3 111.9c0-3.8 3.1-6.9 6.9-6.9 3.8 0 6.9 3.1 6.9 6.9 0 3.8-3.1 6.9-6.9 6.9-3.8 0-6.9-3.1-6.9-6.9 0-3.8 0 3.8 0 0zm12.2.1c0-2.9-2.4-5.3-5.3-5.3s-5.3 2.4-5.3 5.3 2.4 5.3 5.3 5.3c2.9-.1 5.3-2.4 5.3-5.3s0 2.9 0 0z"/></g><path fill="#D9D9D9" d="M1207.9 66h-16.6l-.2 66.6-190.2-.6.4-142.9h-1.6l-.4 144.5 193.5.7.1-66.7 15 .1z"/><path fill="#D9D9D9" d="M1059.3-10.7l-.3 96.4-31.7-.1.3-96.4h-1.7l-.3 98 35 .2.3-98.1z"/><g><path fill="#D9D9D9" d="M825.483 73.31l.27-84.8 1.6.005-.27 84.8z"/><g fill="#D9D9D9"><circle cx="826.3" cy="72.9" r="6.1"/><path d="M819.4 72.9c0-3.8 3.1-6.9 6.9-6.9 3.8 0 6.9 3.1 6.9 6.9 0 3.8-3.1 6.9-6.9 6.9-3.8 0-6.9-3.1-6.9-6.9 0-3.8 0 3.8 0 0zm12.2.1c0-2.9-2.4-5.3-5.3-5.3S821 70.1 821 73s2.4 5.3 5.3 5.3c2.9-.1 5.3-2.4 5.3-5.3 0-3 0 2.9 0 0z"/></g></g><g><path fill="#D9D9D9" d="M967.255 110.974l.328-122 1.6.004-.328 122z"/><g fill="#D9D9D9"><circle cx="968" cy="110.6" r="6.1"/><path d="M961.1 110.6c0-3.8 3.1-6.9 6.9-6.9 3.8 0 6.9 3.1 6.9 6.9 0 3.8-3.1 6.9-6.9 6.9-3.8 0-6.9-3.1-6.9-6.9 0-3.8 0 3.8 0 0zm12.2.1c0-2.9-2.4-5.3-5.3-5.3s-5.3 2.4-5.3 5.3 2.4 5.3 5.3 5.3c2.9-.1 5.3-2.4 5.3-5.3 0-3 0 2.9 0 0z"/></g></g></g><g opacity=".84"><path fill="#D9D9D9" d="M139.659 214.09l.684-214.7 1 .003-.684 214.7z"/><g fill="#D9D9D9"><circle cx="140.2" cy="213.9" r="3.9"/><path d="M135.8 213.9c0-2.4 2-4.4 4.4-4.4 2.4 0 4.4 2 4.4 4.4 0 2.4-2 4.4-4.4 4.4-2.5 0-4.4-2-4.4-4.4 0-2.4 0 2.4 0 0zm7.7 0c0-1.9-1.5-3.4-3.3-3.4-1.9 0-3.4 1.5-3.4 3.3 0 1.9 1.5 3.4 3.3 3.4 1.9.1 3.4-1.4 3.4-3.3 0-1.8 0 1.9 0 0z"/></g><path fill="#D9D9D9" d="M345.3.1h-1l-.3 80.8-117.2-.4-.2 69.3-112.5-.4.2-60-107.1-.3L7.5-1h-1l-.3 91.1 107.1.3-.2 60 114.5.4.3-69.2 117.2.3z"/><path fill="#D9D9D9" d="M288.7 54.9l-.2 72-93.1-.3.2-70.2-107.2-.3-.1 60.9-91.5-.3v1l92.5.3.2-60.9 105.1.3-.2 70.2 95.1.3.3-72 120.6.4v-1z"/><path fill="#D9D9D9" d="M325.8.1l-.4 138.9-126.4-.4-.2 46.1-147.6-.4.5-130.2-54.9-.1v1l53.8.2-.4 130.1 149.6.5.2-46.2 126.4.4.5-139.9z"/><path fill="#D9D9D9" d="M226.895 57.523l.184-57.7 1 .003-.184 57.7z"/><g fill="#D9D9D9"><circle cx="227.4" cy="57.3" r="3.9"/><path d="M223 57.3c0-2.4 2-4.4 4.4-4.4 2.4 0 4.4 2 4.4 4.4 0 2.4-2 4.4-4.4 4.4-2.4 0-4.4-2-4.4-4.4 0-2.5 0 2.4 0 0zm7.8 0c0-1.9-1.5-3.4-3.3-3.4-1.9 0-3.4 1.5-3.4 3.3 0 1.9 1.5 3.4 3.3 3.4 1.9 0 3.4-1.5 3.4-3.3 0-1.9 0 1.8 0 0z"/></g><path fill="#D9D9D9" d="M267.247 155.424l.496-155.6 1 .004-.496 155.6z"/><g fill="#D9D9D9"><circle cx="267.7" cy="155.2" r="3.9"/><path d="M263.3 155.2c0-2.4 2-4.4 4.4-4.4 2.4 0 4.4 2 4.4 4.4 0 2.4-2 4.4-4.4 4.4-2.4 0-4.4-2-4.4-4.4 0-2.4 0 2.4 0 0zm7.8.1c0-1.9-1.5-3.4-3.3-3.4-1.9 0-3.4 1.5-3.4 3.3 0 1.9 1.5 3.4 3.3 3.4 1.9 0 3.4-1.5 3.4-3.3 0-1.9 0 1.8 0 0z"/></g><g><path fill="#D9D9D9" d="M393.3.3h-1l-.4 111.2-26.7-.1-.2 64.7h1l.2-63.6H393z"/><g fill="#D9D9D9"><circle cx="365.5" cy="175.9" r="3.9"/><path d="M361.1 175.8c0-2.4 2-4.4 4.4-4.4 2.4 0 4.4 2 4.4 4.4 0 2.4-2 4.4-4.4 4.4-2.4 0-4.4-1.9-4.4-4.4 0-2.4 0 2.5 0 0zm7.7.1c0-1.9-1.5-3.4-3.3-3.4-1.9 0-3.4 1.5-3.4 3.3 0 1.9 1.5 3.4 3.3 3.4 1.9 0 3.4-1.5 3.4-3.3 0-1.9 0 1.8 0 0z"/></g></g><g><path fill="#D9D9D9" d="M96.9-.7l-.4 149.1-24.8-.1.4-149.1h-1l-.5 150.2h26.9L98-.7z"/></g><g><path fill="#D9D9D9" d="M25.363 153.776l.493-154.7 1 .003-.493 154.7z"/><g fill="#D9D9D9"><circle cx="25.9" cy="153.5" r="3.9"/><path d="M21.5 153.5c0-2.4 2-4.4 4.4-4.4 2.4 0 4.4 2 4.4 4.4 0 2.4-2 4.4-4.4 4.4-2.4 0-4.4-1.9-4.4-4.4 0-2.4 0 2.5 0 0zm7.8.1c0-1.9-1.5-3.4-3.3-3.4-1.9 0-3.4 1.5-3.4 3.3 0 1.9 1.5 3.4 3.3 3.4 1.8 0 3.3-1.5 3.4-3.3 0-1.9-.1 1.8 0 0z"/></g></g></g><g opacity=".76"><path fill="#D9D9D9" d="M239.546 114.29l.365-114.5 1 .004-.365 114.5z"/><g fill="#D9D9D9"><circle cx="240.1" cy="114.1" r="3.9"/><path d="M235.7 114c0-2.4 2-4.4 4.4-4.4 2.4 0 4.4 2 4.4 4.4 0 2.4-2 4.4-4.4 4.4-2.5 0-4.4-1.9-4.4-4.4 0-2.4 0 2.5 0 0zm7.7.1c0-1.9-1.5-3.4-3.3-3.4-1.9 0-3.4 1.5-3.4 3.3 0 1.9 1.5 3.4 3.3 3.4 1.9 0 3.4-1.5 3.4-3.3 0-1.9 0 1.8 0 0z"/></g><path fill="#D9D9D9" d="M459.6.3h-1v5.3l-147.5-.3-.2 65.5-92.1-.3.1-57.9-87.8-.3V-.6h-1l-.1 13.9 87.9.3-.1 57.9 94.2.3.2-65.5 147.4.3z"/><g fill="#D9D9D9"><path d="M197.5-.4l-.1 35.6-118.7-.4.1-35.5h-1l-.1 36.6 120.7.4.1-36.6zM361.9.2l-.1 43.1-76.3-.2.2-43.2h-1.1l-.1 44.2 78.3.3.1-44.2z"/></g><path fill="#D9D9D9" d="M8.9-1l-.1 15.4 106.8.4-.2 63.1h1l.3-64.2-106.9-.3.1-14.3z"/><g fill="#D9D9D9"><circle cx="115.9" cy="77.7" r="3.9"/><path d="M111.5 77.7c0-2.4 2-4.4 4.4-4.4 2.4 0 4.4 2 4.4 4.4 0 2.4-2 4.4-4.4 4.4-2.5-.1-4.4-2-4.4-4.4 0-2.5 0 2.4 0 0zm7.7 0c0-1.9-1.5-3.4-3.3-3.4-1.9 0-3.4 1.5-3.4 3.3 0 1.9 1.5 3.4 3.3 3.4 1.9 0 3.4-1.5 3.4-3.3 0-1.9 0 1.8 0 0z"/></g><path fill="#D9D9D9" d="M444.5.3h-1.1l-.1 48.5-155.1-.3-.1 42.3-120.9-.4.3-90.8h-1.1l-.3 91.9 123.1.3.1-42.3 155 .3z"/><path fill="#D9D9D9" d="M344.256 66.105l.21-66 1 .003-.21 66z"/><g fill="#D9D9D9"><circle cx="344.8" cy="65.9" r="3.9"/><path d="M340.4 65.9c0-2.4 2-4.4 4.4-4.4 2.4 0 4.4 2 4.4 4.4 0 2.4-2 4.4-4.4 4.4-2.5 0-4.4-2-4.4-4.4 0-2.4 0 2.4 0 0zm7.7 0c0-1.9-1.5-3.4-3.3-3.4-1.9 0-3.4 1.5-3.4 3.3 0 1.9 1.5 3.4 3.3 3.4 1.9.1 3.4-1.4 3.4-3.3 0-1.8 0 1.9 0 0z"/></g><path fill="#D9D9D9" d="M204.3-.3l-.2 61.3-20.2-.1.2-61.3h-1l-.2 62.4h22.3l.2-62.3z"/><g><path fill="#D9D9D9" d="M55.636 53.104l.172-53.9 1 .003-.172 53.9z"/><g fill="#D9D9D9"><circle cx="56.2" cy="52.9" r="3.9"/><path d="M51.8 52.9c0-2.4 2-4.4 4.4-4.4 2.4 0 4.4 2 4.4 4.4 0 2.4-2 4.4-4.4 4.4-2.5-.1-4.4-2-4.4-4.4 0-2.5 0 2.4 0 0zm7.7 0c0-1.9-1.5-3.4-3.3-3.4-1.9 0-3.4 1.5-3.4 3.3 0 1.9 1.5 3.4 3.3 3.4 1.9 0 3.4-1.5 3.4-3.3 0-1.9 0 1.8 0 0z"/></g></g><g><path fill="#D9D9D9" d="M-3.2-1v1l34 .1-.2 80.9h1l.3-81.9z"/><g fill="#D9D9D9"><circle cx="31.1" cy="80.8" r="3.9"/><path d="M26.7 80.8c0-2.4 2-4.4 4.4-4.4 2.4 0 4.4 2 4.4 4.4 0 2.4-2 4.4-4.4 4.4-2.4 0-4.4-2-4.4-4.4 0-2.4 0 2.4 0 0zm7.7 0c0-1.9-1.5-3.4-3.3-3.4-1.9 0-3.4 1.5-3.4 3.3 0 1.9 1.5 3.4 3.3 3.4 1.9.1 3.4-1.4 3.4-3.3.1-1.8 0 1.9 0 0z"/></g></g><g><path fill="#D9D9D9" d="M145.822 77.069l.208-77.6 1 .002-.208 77.6z"/><g fill="#D9D9D9"><circle cx="146.3" cy="76.8" r="3.9"/><path d="M141.9 76.8c0-2.4 2-4.4 4.4-4.4 2.4 0 4.4 2 4.4 4.4 0 2.4-2 4.4-4.4 4.4-2.4 0-4.4-2-4.4-4.4 0-2.4 0 2.4 0 0zm7.8 0c0-1.9-1.5-3.4-3.3-3.4-1.9 0-3.4 1.5-3.4 3.3 0 1.9 1.5 3.4 3.3 3.4 1.8.1 3.3-1.4 3.4-3.3 0-1.8-.1 1.9 0 0z"/></g></g></g><path fill="#D9D9D9" d="M410.4 55.3V-1h1.4v57.3h-1.4"/><g opacity=".84"><path fill="#D9D9D9" d="M682.023 214.17l-.685-214.7 1-.004.685 214.7z"/><g fill="#D9D9D9"><circle cx="682.5" cy="213.9" r="3.9"/><path d="M686.9 213.9c0 2.4-2 4.4-4.4 4.4-2.4 0-4.4-2-4.4-4.4 0-2.4 2-4.4 4.4-4.4 2.4 0 4.4 2 4.4 4.4 0 2.4 0-2.4 0 0zm-7.7 0c0 1.9 1.5 3.4 3.4 3.3 1.9 0 3.4-1.5 3.3-3.4 0-1.9-1.5-3.4-3.4-3.3-1.8.1-3.3 1.6-3.3 3.4 0 1.9 0-1.8 0 0z"/></g><path fill="#D9D9D9" d="M804.8 90.1v-1l-96.4.3.2 60-112.5.4-.3-69.3-117.2.4-.2-80.8h-1.1l.3 81.8 117.2-.3.2 69.2 114.6-.4-.2-60z"/><path fill="#D9D9D9" d="M804.8 116.8l-70.4.2-.2-60.9-107.1.3.2 70.2-93.1.3-.3-72-121.7.4v1l120.7-.4.2 72 95.2-.3-.2-70.2 105.1-.3.2 60.9 71.4-.2z"/><path fill="#D9D9D9" d="M804.8 55v-1l-33.8.1.4 130.2-147.5.4-.2-46.1-126.4.4L496.8.1h-1l.4 139.9 126.5-.4.1 46.2 149.7-.5-.4-130.1z"/><path fill="#D9D9D9" d="M594.738 57.483l-.184-57.7 1-.003.184 57.7z"/><g fill="#D9D9D9"><circle cx="595.3" cy="57.3" r="3.9"/><path d="M599.6 57.3c0 2.4-2 4.4-4.4 4.4-2.4 0-4.4-2-4.4-4.4 0-2.4 2-4.4 4.4-4.4 2.5 0 4.4 1.9 4.4 4.4.1 2.4 0-2.5 0 0zm-7.7 0c0 1.9 1.5 3.4 3.4 3.3 1.9 0 3.4-1.5 3.3-3.4 0-1.9-1.5-3.4-3.4-3.3-1.8 0-3.3 1.5-3.3 3.4 0 1.8 0-1.9 0 0z"/></g><path fill="#D9D9D9" d="M554.493 155.476l-.496-155.6 1-.003.496 155.6z"/><g fill="#D9D9D9"><circle cx="555" cy="155.2" r="3.9"/><path d="M559.3 155.2c0 2.4-2 4.4-4.4 4.4-2.4 0-4.4-2-4.4-4.4 0-2.4 2-4.4 4.4-4.4 2.5 0 4.4 2 4.4 4.4.1 2.4 0-2.4 0 0zm-7.7.1c0 1.9 1.5 3.4 3.4 3.3 1.9 0 3.4-1.5 3.3-3.4 0-1.9-1.5-3.4-3.4-3.3-1.8 0-3.3 1.5-3.3 3.4s0-1.9 0 0z"/></g><g><path fill="#D9D9D9" d="M429.3.3h1.1l.3 111.2 26.8-.1.2 136.4h-1l-.2-135.3h-26.8z"/><g fill="#D9D9D9"><circle cx="457.2" cy="247.6" r="3.9"/><path d="M461.6 247.6c0 2.4-2 4.4-4.4 4.4-2.4 0-4.4-2-4.4-4.4 0-2.4 2-4.4 4.4-4.4 2.4 0 4.4 1.9 4.4 4.4 0 2.4 0-2.5 0 0zm-7.8 0c0 1.9 1.5 3.4 3.4 3.3 1.9 0 3.4-1.5 3.3-3.4 0-1.9-1.5-3.4-3.4-3.3-1.8 0-3.3 1.5-3.3 3.4 0 1.8 0-1.9 0 0z"/></g></g><g><path fill="#D9D9D9" d="M725.7-.7l.5 149.1 24.8-.1-.5-149.1h1.1l.4 150.2h-26.8L724.7-.7z"/></g><g><path fill="#D9D9D9" d="M796.24 153.76l-.492-154.7 1-.003.493 154.7z"/><g fill="#D9D9D9"><circle cx="796.8" cy="153.5" r="3.9"/><path d="M801.2 153.5c0 2.4-2 4.4-4.4 4.4-2.4 0-4.4-2-4.4-4.4 0-2.4 2-4.4 4.4-4.4 2.4 0 4.4 2 4.4 4.4 0 2.5 0-2.4 0 0zm-7.8.1c0 1.9 1.5 3.4 3.4 3.3 1.9 0 3.4-1.5 3.3-3.4 0-1.9-1.5-3.4-3.4-3.3-1.8 0-3.3 1.5-3.3 3.4 0 1.8 0-1.9 0 0z"/></g></g></g><g opacity=".76"><path fill="#D9D9D9" d="M699.683 114.225l.365-114.5 1 .003-.365 114.5z"/><g fill="#D9D9D9"><circle cx="700.2" cy="114.1" r="3.9"/><path d="M695.8 114c0-2.4 2-4.4 4.4-4.4 2.4 0 4.4 2 4.4 4.4 0 2.4-2 4.4-4.4 4.4-2.4 0-4.4-1.9-4.4-4.4 0-2.4 0 2.5 0 0zm7.8.1c0-1.9-1.5-3.4-3.3-3.4-1.9 0-3.4 1.5-3.4 3.3 0 1.9 1.5 3.4 3.3 3.4 1.9 0 3.4-1.5 3.4-3.3 0-1.9 0 1.8 0 0z"/></g><path fill="#D9D9D9" d="M804.8 5.3h-33.5l-.2 65.5-92.2-.3.2-57.9-87.9-.3V-.6h-1v13.9l87.9.3-.2 57.9 94.2.3.2-65.5 32.5.1z"/><g fill="#D9D9D9"><path d="M657.6-.4l-.1 35.6-118.6-.4.1-35.5h-1.1l-.1 36.6 120.8.4.1-36.6zM808.9 43.3l-63.2-.2.1-43.2h-1l-.2 44.2 64.3.2z"/></g><path fill="#D9D9D9" d="M469-1v15.4l106.8.4-.3 63.1h1l.3-64.2-106.8-.3V-.9z"/><g fill="#D9D9D9"><circle cx="576" cy="77.7" r="3.9"/><path d="M571.6 77.7c0-2.4 2-4.4 4.4-4.4 2.4 0 4.4 2 4.4 4.4 0 2.4-2 4.4-4.4 4.4-2.4-.1-4.4-2-4.4-4.4 0-2.5 0 2.4 0 0zm7.8 0c0-1.9-1.5-3.4-3.3-3.4-1.9 0-3.4 1.5-3.4 3.3 0 1.9 1.5 3.4 3.3 3.4 1.9 0 3.4-1.5 3.4-3.3 0-1.9 0 1.8 0 0z"/></g><path fill="#D9D9D9" d="M808.9 48.6l-60.5-.1-.1 42.3-121-.4.3-90.8h-1l-.3 91.9 123 .3.1-42.3 59.5.1z"/><path fill="#D9D9D9" d="M664.5-.3l-.2 61.3-20.2-.1.2-61.3h-1.1L643 62h22.3l.2-62.3zM515.773 53.038l.172-53.9 1 .003-.172 53.9z"/><g fill="#D9D9D9"><circle cx="516.3" cy="52.9" r="3.9"/><path d="M511.9 52.9c0-2.4 2-4.4 4.4-4.4 2.4 0 4.4 2 4.4 4.4 0 2.4-2 4.4-4.4 4.4-2.4-.1-4.4-2-4.4-4.4 0-2.5 0 2.4 0 0zm7.8 0c0-1.9-1.5-3.4-3.3-3.4-1.9 0-3.4 1.5-3.4 3.3 0 1.9 1.5 3.4 3.3 3.4 1.9 0 3.4-1.5 3.4-3.3 0-1.9 0 1.8 0 0z"/></g><g><path fill="#D9D9D9" d="M448.5-1v1l42.5.1-.3 80.9h1L492-.9z"/><g fill="#D9D9D9"><circle cx="491.2" cy="80.8" r="3.9"/><path d="M486.8 80.8c0-2.4 2-4.4 4.4-4.4 2.4 0 4.4 2 4.4 4.4 0 2.4-2 4.4-4.4 4.4-2.4 0-4.4-2-4.4-4.4 0-2.4 0 2.4 0 0zm7.8 0c0-1.9-1.5-3.4-3.3-3.4-1.9 0-3.4 1.5-3.4 3.3 0 1.9 1.5 3.4 3.3 3.4 1.9.1 3.4-1.4 3.4-3.3 0-1.8 0 1.9 0 0z"/></g></g><g><path fill="#D9D9D9" d="M605.958 77.104l.209-77.6 1 .002-.209 77.6z"/><g fill="#D9D9D9"><circle cx="606.4" cy="76.8" r="3.9"/><path d="M602 76.8c0-2.4 2-4.4 4.4-4.4 2.4 0 4.4 2 4.4 4.4 0 2.4-2 4.4-4.4 4.4-2.4 0-4.4-2-4.4-4.4.1-2.4 0 2.4 0 0zm7.8 0c0-1.9-1.5-3.4-3.3-3.4-1.9 0-3.4 1.5-3.4 3.3 0 1.9 1.5 3.4 3.3 3.4 1.9.1 3.4-1.4 3.4-3.3 0-1.8 0 1.9 0 0z"/></g></g></g><g opacity=".84"><path fill="#D9D9D9" d="M941.707 214.134l.684-214.7 1 .003-.684 214.7z"/><g fill="#D9D9D9"><circle cx="942.2" cy="213.9" r="3.9"/><path d="M937.8 213.9c0-2.4 2-4.4 4.4-4.4 2.4 0 4.4 2 4.4 4.4 0 2.4-2 4.4-4.4 4.4-2.4 0-4.4-2-4.4-4.4 0-2.4 0 2.4 0 0zm7.8 0c0-1.9-1.5-3.4-3.3-3.4-1.9 0-3.4 1.5-3.4 3.3 0 1.9 1.5 3.4 3.3 3.4 1.8.1 3.4-1.4 3.4-3.3 0-1.8 0 1.9 0 0z"/></g><path fill="#D9D9D9" d="M1147.4.1h-1.1l-.2 80.8-117.2-.4-.2 69.3-112.5-.4.1-60-107-.3.3-90.1h-1.1l-.2 91.1 107 .3-.2 60 114.6.4.2-69.2 117.2.3z"/><path fill="#D9D9D9" d="M1207.9 55.3l-117.1-.4-.2 72-93.1-.3.2-70.2-107.2-.3-.2 60.9-91.4-.3v1l92.4.3.2-60.9 105.1.3-.2 70.2 95.2.3.2-72 116.1.4z"/><path fill="#D9D9D9" d="M1127.9.1l-.5 138.9-126.4-.4-.1 46.1-147.6-.4.4-130.2-54.8-.1v1l53.8.2-.5 130.1 149.7.5.1-46.2 126.5.4.4-139.9z"/><path fill="#D9D9D9" d="M1028.944 57.467l.184-57.7 1 .004-.184 57.7z"/><g fill="#D9D9D9"><circle cx="1029.5" cy="57.3" r="3.9"/><path d="M1025.1 57.3c0-2.4 2-4.4 4.4-4.4 2.4 0 4.4 2 4.4 4.4 0 2.4-2 4.4-4.4 4.4-2.5 0-4.4-2-4.4-4.4 0-2.5 0 2.4 0 0zm7.7 0c0-1.9-1.5-3.4-3.3-3.4-1.9 0-3.4 1.5-3.4 3.3 0 1.9 1.5 3.4 3.3 3.4 1.9 0 3.4-1.5 3.4-3.3 0-1.9 0 1.8 0 0z"/></g><path fill="#D9D9D9" d="M1069.295 155.469l.496-155.6 1 .003-.496 155.6z"/><g fill="#D9D9D9"><circle cx="1069.8" cy="155.2" r="3.9"/><path d="M1065.4 155.2c0-2.4 2-4.4 4.4-4.4 2.4 0 4.4 2 4.4 4.4 0 2.4-2 4.4-4.4 4.4-2.5 0-4.4-2-4.4-4.4 0-2.4 0 2.4 0 0zm7.7.1c0-1.9-1.5-3.4-3.3-3.4-1.9 0-3.4 1.5-3.4 3.3 0 1.9 1.5 3.4 3.3 3.4 1.9 0 3.4-1.5 3.4-3.3 0-1.9 0 1.8 0 0z"/></g><g><path fill="#D9D9D9" d="M1195.4.3h-1.1l-.3 111.2-26.8-.1-.2 64.7h1l.2-63.6h26.8z"/><g fill="#D9D9D9"><circle cx="1167.5" cy="175.9" r="3.9"/><path d="M1163.1 175.8c0-2.4 2-4.4 4.4-4.4 2.4 0 4.4 2 4.4 4.4 0 2.4-2 4.4-4.4 4.4-2.4 0-4.4-1.9-4.4-4.4.1-2.4 0 2.5 0 0zm7.8.1c0-1.9-1.5-3.4-3.3-3.4-1.9 0-3.4 1.5-3.4 3.3 0 1.9 1.5 3.4 3.3 3.4 1.9 0 3.4-1.5 3.4-3.3 0-1.9 0 1.8 0 0z"/></g></g><g><path fill="#D9D9D9" d="M899-.7l-.5 149.1-24.8-.1.5-149.1h-1.1l-.4 150.2h26.8L900-.7z"/></g><g><path fill="#D9D9D9" d="M827.411 153.72l.493-154.7 1 .003-.493 154.7z"/><g fill="#D9D9D9"><circle cx="827.9" cy="153.5" r="3.9"/><path d="M823.6 153.5c0-2.4 2-4.4 4.4-4.4 2.4 0 4.4 2 4.4 4.4 0 2.4-2 4.4-4.4 4.4-2.5 0-4.4-1.9-4.4-4.4 0-2.4 0 2.5 0 0zm7.7.1c0-1.9-1.5-3.4-3.3-3.4-1.9 0-3.4 1.5-3.4 3.3 0 1.9 1.5 3.4 3.3 3.4 1.9 0 3.4-1.5 3.4-3.3 0-1.9 0 1.8 0 0z"/></g></g></g><g opacity=".76"><path fill="#D9D9D9" d="M1041.594 114.235l.366-114.5 1 .003-.366 114.5z"/><g fill="#D9D9D9"><circle cx="1042.1" cy="114.1" r="3.9"/><path d="M1037.7 114c0-2.4 2-4.4 4.4-4.4 2.4 0 4.4 2 4.4 4.4 0 2.4-2 4.4-4.4 4.4-2.4 0-4.4-1.9-4.4-4.4 0-2.4 0 2.5 0 0zm7.8.1c0-1.9-1.5-3.4-3.3-3.4-1.9 0-3.4 1.5-3.4 3.3 0 1.9 1.5 3.4 3.3 3.4 1.9 0 3.4-1.5 3.4-3.3 0-1.9 0 1.8 0 0z"/></g><path fill="#D9D9D9" d="M1207.9 5.5l-94.7-.2-.2 65.5-92.2-.3.2-57.9-87.9-.3.1-12.9h-1.1v13.9l87.9.3-.2 57.9 94.2.3.2-65.5 93.7.2z"/><g fill="#D9D9D9"><path d="M999.6-.4l-.2 35.6-118.6-.4.1-35.5h-1l-.2 36.6 120.8.4.1-36.6zM1163.9.2l-.1 43.1-76.2-.2.1-43.2h-1l-.2 44.2 78.3.3.2-44.2z"/></g><path fill="#D9D9D9" d="M810.9-1v15.4l106.8.4-.3 63.1h1l.3-64.2-106.8-.3V-.9z"/><g fill="#D9D9D9"><circle cx="917.9" cy="77.7" r="3.9"/><path d="M913.5 77.7c0-2.4 2-4.4 4.4-4.4 2.4 0 4.4 2 4.4 4.4 0 2.4-2 4.4-4.4 4.4-2.4-.1-4.4-2-4.4-4.4 0-2.5 0 2.4 0 0zm7.8 0c0-1.9-1.5-3.4-3.3-3.4-1.9 0-3.4 1.5-3.4 3.3 0 1.9 1.5 3.4 3.3 3.4 1.9 0 3.4-1.5 3.4-3.3 0-1.9 0 1.8 0 0z"/></g><path fill="#D9D9D9" d="M1207.9 48.7l-117.6-.2-.1 42.3-121-.4.3-90.8h-1l-.3 91.9 123 .3.1-42.3 116.6.2z"/><path fill="#D9D9D9" d="M1146.305 66.15l.21-66 1 .003-.21 66z"/><g fill="#D9D9D9"><circle cx="1146.8" cy="65.9" r="3.9"/><path d="M1142.4 65.9c0-2.4 2-4.4 4.4-4.4 2.4 0 4.4 2 4.4 4.4 0 2.4-2 4.4-4.4 4.4-2.4 0-4.4-2-4.4-4.4 0-2.4 0 2.4 0 0zm7.8 0c0-1.9-1.5-3.4-3.3-3.4-1.9 0-3.4 1.5-3.4 3.3 0 1.9 1.5 3.4 3.3 3.4 1.9.1 3.4-1.4 3.4-3.3 0-1.8 0 1.9 0 0z"/></g><path fill="#D9D9D9" d="M1006.4-.3l-.2 61.3-20.2-.1.2-61.3h-1L985 62h22.2l.2-62.3z"/><g><path fill="#D9D9D9" d="M857.684 53.048l.172-53.9 1 .003-.172 53.9z"/><g fill="#D9D9D9"><circle cx="858.2" cy="52.9" r="3.9"/><path d="M853.8 52.9c0-2.4 2-4.4 4.4-4.4 2.4 0 4.4 2 4.4 4.4 0 2.4-2 4.4-4.4 4.4-2.4-.1-4.4-2-4.4-4.4 0-2.5 0 2.4 0 0zm7.8 0c0-1.9-1.5-3.4-3.3-3.4-1.9 0-3.4 1.5-3.4 3.3 0 1.9 1.5 3.4 3.3 3.4 1.9 0 3.4-1.5 3.4-3.3 0-1.9 0 1.8 0 0z"/></g></g><g><path fill="#D9D9D9" d="M798.9-1v1l34 .1-.3 80.9h1.1l.2-81.9z"/><g fill="#D9D9D9"><circle cx="833.1" cy="80.8" r="3.9"/><path d="M828.7 80.8c0-2.4 2-4.4 4.4-4.4 2.4 0 4.4 2 4.4 4.4 0 2.4-2 4.4-4.4 4.4-2.4 0-4.4-2-4.4-4.4.1-2.4 0 2.4 0 0zm7.8 0c0-1.9-1.5-3.4-3.3-3.4-1.9 0-3.4 1.5-3.4 3.3 0 1.9 1.5 3.4 3.3 3.4 1.9.1 3.4-1.4 3.4-3.3 0-1.8 0 1.9 0 0z"/></g></g><g><path fill="#D9D9D9" d="M947.87 77.014l.208-77.6 1 .003-.208 77.6z"/><g fill="#D9D9D9"><circle cx="948.3" cy="76.8" r="3.9"/><path d="M944 76.8c0-2.4 2-4.4 4.4-4.4 2.4 0 4.4 2 4.4 4.4 0 2.4-2 4.4-4.4 4.4-2.5 0-4.5-2-4.4-4.4 0-2.4-.1 2.4 0 0zm7.7 0c0-1.9-1.5-3.4-3.3-3.4-1.9 0-3.4 1.5-3.4 3.3 0 1.9 1.5 3.4 3.3 3.4 1.9.1 3.4-1.4 3.4-3.3 0-1.8 0 1.9 0 0z"/></g></g></g><g opacity=".02"><path fill="#D9D9D9" d="M1272.7 152.7l-.4 127.1-68.1-.2v1.6l69.8.2.4-128.7z"/><path fill="#D9D9D9" d="M1204.2 238.9v1.6l172.6.6v-1.6z"/><path fill="#D9D9D9" d="M1243.7 152.6l-.7 218.6-38.8-.2v1.7l40.4.1.7-220.2zM1349.9 153h-1.7l-.5 174.9-42.1-.1-.3 101.7h1.6l.3-100.1 42.1.2z"/><g fill="#D9D9D9"><circle cx="1306.1" cy="429.2" r="6.1"/><path d="M1299.2 429.1c0-3.8 3.1-6.9 6.9-6.9 3.8 0 6.9 3.1 6.9 6.9 0 3.8-3.1 6.9-6.9 6.9-3.9 0-6.9-3.1-6.9-6.9 0-3.8 0 3.8 0 0zm12.2.1c0-2.9-2.4-5.3-5.3-5.3s-5.3 2.4-5.3 5.3 2.4 5.3 5.3 5.3 5.2-2.4 5.3-5.3c0-2.9-.1 2.9 0 0z"/></g></g><g opacity=".02"><path fill="#D9D9D9" d="M1452.5 130.5v8.2l-231.9-.4-.3 103h-16.1v1.6l17.7.1.3-103.1 231.9.5v-9.9z"/><path fill="#D9D9D9" d="M1300.4 130.2l-.2 67.9-96-.3v1.6l97.6.3.3-69.5z"/><path fill="#D9D9D9" d="M1428.7 130.4l-.3 76.3-224.2-.5v1.6l225.8.5.3-77.9z"/><path fill="#D9D9D9" d="M1272.646 233.92l.331-103.8 1.6.005-.33 103.8z"/><g fill="#D9D9D9"><circle cx="1273.5" cy="233.6" r="6.1"/><path d="M1266.6 233.6c0-3.8 3.1-6.9 6.9-6.9 3.8 0 6.9 3.1 6.9 6.9 0 3.8-3.1 6.9-6.9 6.9-3.8 0-6.9-3.1-6.9-6.9 0-3.8 0 3.8 0 0zm12.2 0c0-2.9-2.4-5.3-5.3-5.3s-5.3 2.4-5.3 5.3 2.4 5.3 5.3 5.3 5.3-2.3 5.3-5.3c0-2.9 0 3 0 0z"/></g></g><path opacity=".02" fill="#D9D9D9" d="M1376.8 216.9v-88.5h2.2v90.1h-2.2"/><g opacity=".02"><path fill="#D9D9D9" d="M1779.871 562.578l-1.077-337.7 1.6-.005 1.077 337.7z"/><g fill="#D9D9D9"><circle cx="1780.7" cy="562.2" r="6.1"/><path d="M1787.6 562.2c0 3.8-3.1 6.9-6.9 6.9-3.8 0-6.9-3.1-6.9-6.9 0-3.8 3.1-6.9 6.9-6.9 3.8 0 6.9 3.1 6.9 6.9 0 3.8 0-3.8 0 0zm-12.2 0c0 2.9 2.4 5.3 5.3 5.3s5.3-2.4 5.3-5.3-2.4-5.3-5.3-5.3-5.3 2.4-5.3 5.3 0-2.9 0 0z"/></g><path fill="#D9D9D9" d="M1458 225.9h1.6l.4 127.1 184.4-.6.3 108.9 177-.6-.3-94.3 168.4-.6-.5-141.6h1.6l.5 143.2-168.4.6.3 94.3-180.2.6-.4-108.9-184.3.6z"/><path fill="#D9D9D9" d="M2012.2 409.3l-149.9.5-.3-95.9-168.5.5.3 110.4-146.5.5-.3-113.2-191.5.6.1 1.6 189.7-.6.4 113.2 149.7-.4-.3-110.4 165.3-.6.3 95.9 151.5-.5z"/><path fill="#D9D9D9" d="M2012.2 389v-1.6h-28.4l.5 167.1h1.6l-.5-165.4z"/><g fill="#D9D9D9"><circle cx="1985.1" cy="554.1" r="6.1"/><path d="M1992 554.1c0 3.8-3.1 6.9-6.9 6.9-3.8 0-6.9-3.1-6.9-6.9 0-3.8 3.1-6.9 6.9-6.9 3.8 0 6.9 3.1 6.9 6.9 0 3.8 0-3.8 0 0zm-12.2 0c0 2.9 2.4 5.3 5.3 5.3s5.3-2.4 5.3-5.3-2.4-5.3-5.3-5.3-5.3 2.4-5.3 5.3 0-2.9 0 0z"/></g><path fill="#D9D9D9" d="M2012.2 312.2v-1.6l-92.3.3.7 204.7-232.2.7-.2-72.6-198.9.7-.7-218.6h-1.6l.7 220.2 198.9-.6.2 72.5 235.4-.7-.7-204.7z"/><path fill="#D9D9D9" d="M1642.58 316.138l-.29-90.8 1.6-.005.29 90.8z"/><g fill="#D9D9D9"><circle cx="1643.4" cy="315.8" r="6.1"/><path d="M1650.3 315.8c0 3.8-3.1 6.9-6.9 6.9-3.8 0-6.9-3.1-6.9-6.9 0-3.8 3.1-6.9 6.9-6.9 3.8 0 6.9 3.1 6.9 6.9 0 3.8 0-3.8 0 0zm-12.1 0c0 2.9 2.4 5.3 5.3 5.3s5.3-2.4 5.3-5.3-2.4-5.3-5.3-5.3c-3 .1-5.4 2.4-5.3 5.3 0 3-.1-2.9 0 0z"/></g><path fill="#D9D9D9" d="M1579.24 470.256l-.78-244.7 1.6-.006.78 244.7z"/><g fill="#D9D9D9"><circle cx="1580" cy="469.9" r="6.1"/><path d="M1586.9 469.9c0 3.8-3.1 6.9-6.9 6.9-3.8 0-6.9-3.1-6.9-6.9 0-3.8 3.1-6.9 6.9-6.9 3.8 0 6.9 3.1 6.9 6.9.1 3.8 0-3.8 0 0zm-12.1 0c0 2.9 2.4 5.3 5.3 5.3s5.3-2.4 5.3-5.3-2.4-5.3-5.3-5.3c-3 .1-5.3 2.4-5.3 5.3 0 3 0-2.9 0 0z"/></g><g><path fill="#D9D9D9" d="M1382.5 226.2h1.6l.5 174.9 42.1-.1.4 214.5h-1.7l-.3-212.9-42.1.2z"/><g fill="#D9D9D9"><circle cx="1426.3" cy="615.2" r="6.1"/><path d="M1433.2 615.2c0 3.8-3.1 6.9-6.9 6.9-3.8 0-6.9-3.1-6.9-6.9 0-3.8 3.1-6.9 6.9-6.9 3.7 0 6.8 3.1 6.9 6.9 0 3.8-.1-3.8 0 0zm-12.2 0c0 2.9 2.4 5.3 5.3 5.3s5.3-2.4 5.3-5.3-2.4-5.3-5.3-5.3c-3 0-5.3 2.4-5.3 5.3s0-2.9 0 0z"/></g></g><g><path fill="#D9D9D9" d="M1848.7 224.7l.7 234.5 39-.1-.7-234.5h1.6l.8 236.1-42.3.1-.8-236.1z"/></g><g><path fill="#D9D9D9" d="M1959.656 467.596l-.776-243.3 1.6-.006.776 243.3z"/><g fill="#D9D9D9"><path d="M1966.5 467.2c0 3.4-2.7 6.1-6.1 6.1-3.4 0-6.1-2.7-6.1-6.1 0-3.4 2.7-6.1 6.1-6.1 3.4.1 6.1 2.8 6.1 6.1z"/><path d="M1967.3 467.2c0 3.8-3.1 6.9-6.9 6.9-3.8 0-6.9-3.1-6.9-6.9 0-3.8 3.1-6.9 6.9-6.9 3.8 0 6.9 3.1 6.9 6.9 0 3.8 0-3.8 0 0zm-12.2.1c0 2.9 2.4 5.3 5.3 5.3s5.3-2.4 5.3-5.3-2.4-5.3-5.3-5.3-5.3 2.4-5.3 5.3 0-2.9 0 0z"/></g></g></g><g opacity=".02"><path fill="#D9D9D9" d="M1831.839 309.75l.574-180.1 1.6.005-.574 180.1z"/><g fill="#D9D9D9"><circle cx="1832.6" cy="309.4" r="6.1"/><path d="M1825.7 309.4c0-3.8 3.1-6.9 6.9-6.9 3.8 0 6.9 3.1 6.9 6.9 0 3.8-3.1 6.9-6.9 6.9-3.8 0-6.9-3.1-6.9-6.9 0-3.9 0 3.8 0 0zm12.2 0c0-2.9-2.4-5.3-5.3-5.3s-5.3 2.4-5.3 5.3 2.4 5.3 5.3 5.3 5.3-2.4 5.3-5.3 0 2.9 0 0z"/></g><path fill="#D9D9D9" d="M2012.2 138.4l-67.8-.1-.3 103-145-.4.3-91.2-138.3-.4.1-20.2h-1.6l-.1 21.8 138.2.4-.2 91.2 148.2.5.3-103.1 66.2.1z"/><g fill="#D9D9D9"><path d="M1765.6 129.4l-.1 56-186.7-.6.2-56h-1.7l-.1 57.6 189.9.6.2-57.6zM2012.2 198.1l-108.1-.4.2-67.9h-1.6l-.2 69.5 109.7.4z"/></g><path fill="#D9D9D9" d="M1468.9 128.5l-.1 24.2 168.1.5-.5 99.3h1.6l.5-100.9-168-.6v-22.5z"/><g fill="#D9D9D9"><circle cx="1637.2" cy="252.1" r="6.1"/><path d="M1630.3 252.1c0-3.8 3.1-6.9 6.9-6.9 3.8 0 6.9 3.1 6.9 6.9 0 3.8-3.1 6.9-6.9 6.9-3.8 0-6.9-3.1-6.9-6.9 0-3.8 0 3.8 0 0zm12.2 0c0-2.9-2.4-5.3-5.3-5.3s-5.3 2.4-5.3 5.3 2.4 5.3 5.3 5.3 5.3-2.3 5.3-5.3c0-2.9 0 3 0 0z"/></g><path fill="#D9D9D9" d="M2012.2 206.4l-103.8-.2-.2 66.6-190.3-.6.5-142.9-1.6-.1-.5 144.6 193.5.6.2-66.6 102.2.2z"/><path fill="#D9D9D9" d="M1996.444 233.914l.33-103.8 1.6.005-.33 103.8z"/><g fill="#D9D9D9"><circle cx="1997.3" cy="233.6" r="6.1"/><path d="M1990.4 233.6c0-3.8 3.1-6.9 6.9-6.9 3.8 0 6.9 3.1 6.9 6.9 0 3.8-3.1 6.9-6.9 6.9-3.8 0-6.9-3.1-6.9-6.9 0-3.8 0 3.8 0 0zm12.2 0c0-2.9-2.4-5.3-5.3-5.3s-5.3 2.4-5.3 5.3 2.4 5.3 5.3 5.3 5.3-2.3 5.3-5.3c0-2.9 0 3 0 0z"/></g><path fill="#D9D9D9" d="M1776.4 129.4l-.3 96.5-31.8-.1.3-96.5h-1.6l-.3 98.1 35 .1.3-98.1z"/><g><path fill="#D9D9D9" d="M1542.553 213.432l.27-84.8 1.6.005-.27 84.8z"/><g fill="#D9D9D9"><circle cx="1543.3" cy="213.1" r="6.1"/><path d="M1536.4 213.1c0-3.8 3.1-6.9 6.9-6.9 3.8 0 6.9 3.1 6.9 6.9 0 3.8-3.1 6.9-6.9 6.9-3.8 0-6.9-3.1-6.9-6.9 0-3.8 0 3.8 0 0zm12.2 0c0-2.9-2.4-5.3-5.3-5.3s-5.3 2.4-5.3 5.3 2.4 5.3 5.3 5.3 5.3-2.4 5.3-5.3 0 2.9 0 0z"/></g></g><g><path fill="#D9D9D9" d="M1436.7 128.4v1.5l66.8.2-.4 127.3h1.6l.4-128.8z"/><g fill="#D9D9D9"><circle cx="1503.9" cy="257.1" r="6.1"/><path d="M1497 257.1c0-3.8 3.1-6.9 6.9-6.9 3.8 0 6.9 3.1 6.9 6.9 0 3.8-3.1 6.9-6.9 6.9-3.9 0-6.9-3.1-6.9-6.9 0-3.8 0 3.8 0 0zm12.1 0c0-2.9-2.4-5.3-5.3-5.3s-5.3 2.4-5.3 5.3 2.4 5.3 5.3 5.3c3 0 5.3-2.4 5.3-5.3.1-2.9 0 2.9 0 0z"/></g></g><g><path fill="#D9D9D9" d="M1684.225 251.196l.327-122 1.6.005-.327 122z"/><g fill="#D9D9D9"><circle cx="1685.1" cy="250.8" r="6.1"/><path d="M1678.2 250.8c0-3.8 3.1-6.9 6.9-6.9 3.8 0 6.9 3.1 6.9 6.9 0 3.8-3.1 6.9-6.9 6.9-3.8 0-6.9-3.1-6.9-6.9 0-3.8 0 3.8 0 0zm12.2 0c0-2.9-2.4-5.3-5.3-5.3s-5.3 2.4-5.3 5.3 2.4 5.3 5.3 5.3 5.3-2.3 5.3-5.3c0-2.9 0 3 0 0z"/></g></g></g><g opacity=".02"><path fill="#D9D9D9" d="M2074.8 152.7l-.4 127.1-68.1-.2v1.6l69.7.2.4-128.7z"/><path fill="#D9D9D9" d="M2006.3 238.9v1.6l172.5.6v-1.6z"/><path fill="#D9D9D9" d="M2045.8 152.6l-.7 218.6-38.8-.2v1.7l40.4.1.7-220.2zM2151.9 153h-1.6l-.6 174.9-42.1-.1-.3 101.7h1.6l.3-100.1 42.2.2z"/><g fill="#D9D9D9"><circle cx="2108.1" cy="429.2" r="6.1"/><path d="M2101.2 429.1c0-3.8 3.1-6.9 6.9-6.9 3.8 0 6.9 3.1 6.9 6.9 0 3.8-3.1 6.9-6.9 6.9-3.8 0-6.9-3.1-6.9-6.9 0-3.8 0 3.8 0 0zm12.2.1c0-2.9-2.4-5.3-5.3-5.3s-5.3 2.4-5.3 5.3 2.4 5.3 5.3 5.3 5.3-2.4 5.3-5.3 0 2.9 0 0z"/></g></g><g opacity=".02"><path fill="#D9D9D9" d="M2254.6 130.5l-.1 8.2-231.9-.4-.3 103h-16v1.6l17.6.1.3-103.1 232 .5v-9.9z"/><path fill="#D9D9D9" d="M2102.5 130.2l-.2 67.9-96-.3v1.6l97.6.3.2-69.5z"/><path fill="#D9D9D9" d="M2230.7 130.4l-.2 76.3-224.2-.5v1.6l225.8.5.3-77.9z"/><path fill="#D9D9D9" d="M2074.695 233.965l.33-103.8 1.6.005-.33 103.8z"/><g fill="#D9D9D9"><circle cx="2075.6" cy="233.6" r="6.1"/><path d="M2068.7 233.6c0-3.8 3.1-6.9 6.9-6.9 3.8 0 6.9 3.1 6.9 6.9 0 3.8-3.1 6.9-6.9 6.9-3.9 0-7-3.1-6.9-6.9 0-3.8-.1 3.8 0 0zm12.1 0c0-2.9-2.4-5.3-5.3-5.3s-5.3 2.4-5.3 5.3 2.4 5.3 5.3 5.3c3 0 5.3-2.3 5.3-5.3 0-2.9 0 3 0 0z"/></g></g><path opacity=".02" fill="#D9D9D9" d="M2178.8 216.9v-88.5h2.2v90.1h-2.2"/><g opacity=".02"><path fill="#D9D9D9" d="M2415.3 184.9l-34.5-.1.2-56h-1.6l-.2 57.6 36.1.1z"/><path fill="#D9D9D9" d="M2415.3 151.5l-142.8-.5.1-22.5h-1.6l-.1 24.2 144.4.4z"/><path fill="#D9D9D9" d="M2344.601 213.476l.27-84.8 1.6.005-.27 84.8z"/><g fill="#D9D9D9"><circle cx="2345.4" cy="213.1" r="6.1"/><path d="M2338.5 213.1c0-3.8 3.1-6.9 6.9-6.9 3.8 0 6.9 3.1 6.9 6.9 0 3.8-3.1 6.9-6.9 6.9-3.8 0-6.9-3.1-6.9-6.9 0-3.8 0 3.8 0 0zm12.2 0c0-2.9-2.4-5.3-5.3-5.3s-5.3 2.4-5.3 5.3 2.4 5.3 5.3 5.3 5.3-2.4 5.3-5.3 0 2.9 0 0z"/></g><g><path fill="#D9D9D9" d="M2238.8 128.4v1.5l66.7.2-.4 127.3h1.6l.4-128.8z"/><g fill="#D9D9D9"><circle cx="2305.9" cy="257.1" r="6.1"/><path d="M2299 257.1c0-3.8 3.1-6.9 6.9-6.9 3.8 0 6.9 3.1 6.9 6.9 0 3.8-3.1 6.9-6.9 6.9-3.8 0-6.9-3.1-6.9-6.9 0-3.8 0 3.8 0 0zm12.2 0c0-2.9-2.4-5.3-5.3-5.3s-5.3 2.4-5.3 5.3 2.4 5.3 5.3 5.3 5.3-2.4 5.3-5.3 0 2.9 0 0z"/></g></g></g><g opacity=".09"><path fill="#D9D9D9" d="M1362.947 362.566l1.077-337.7 1.6.005-1.077 337.7z"/><g fill="#D9D9D9"><circle cx="1363.7" cy="362.3" r="6.1"/><path d="M1356.8 362.3c0-3.8 3.1-6.9 6.9-6.9 3.8 0 6.9 3.1 6.9 6.9 0 3.8-3.1 6.9-6.9 6.9-3.8 0-6.9-3.1-6.9-6.9.1-3.9 0 3.8 0 0zm12.2 0c0-2.9-2.4-5.3-5.3-5.3s-5.3 2.4-5.3 5.3 2.4 5.3 5.3 5.3 5.3-2.4 5.3-5.3 0 2.9 0 0z"/></g><path fill="#D9D9D9" d="M1684.9 26l-.4 127.1-184.4-.6-.4 108.9-176.9-.6.3-94.4-118.9-.3v1.6l117.2.3-.3 94.4 180.2.6.4-108.9 184.4.6.4-128.7z"/><path fill="#D9D9D9" d="M1597.5 112.1l-.4 113.3-146.4-.5.3-110.4-168.6-.5-.3 95.9-77.9-.3v1.6l79.5.3.3-95.9 165.4.5-.4 110.4 149.7.5.4-113.2 189.8.6v-1.7z"/><path fill="#D9D9D9" d="M1655.8 25.9l-.7 218.5-198.9-.6-.2 72.6-232.1-.7.6-204.8h-20.3v1.6l18.7.1-.7 204.7 235.4.7.2-72.6 198.9.7.7-220.2z"/><path fill="#D9D9D9" d="M1500.18 116.261l.289-90.8 1.6.005-.29 90.8z"/><g fill="#D9D9D9"><circle cx="1501" cy="115.9" r="6.1"/><path d="M1494.1 115.9c0-3.8 3.1-6.9 6.9-6.9 3.8 0 6.9 3.1 6.9 6.9 0 3.8-3.1 6.9-6.9 6.9-3.8 0-6.9-3.1-6.9-6.9 0-3.8 0 3.8 0 0zm12.2 0c0-2.9-2.4-5.3-5.3-5.3s-5.3 2.4-5.3 5.3 2.4 5.3 5.3 5.3 5.3-2.4 5.3-5.3 0 2.9 0 0z"/></g><path fill="#D9D9D9" d="M1563.618 270.347l.78-244.7 1.6.005-.78 244.7z"/><g fill="#D9D9D9"><circle cx="1564.4" cy="270" r="6.1"/><path d="M1557.5 270c0-3.8 3.1-6.9 6.9-6.9 3.8 0 6.9 3.1 6.9 6.9 0 3.8-3.1 6.9-6.9 6.9-3.8 0-6.9-3.1-6.9-6.9 0-3.8 0 3.8 0 0zm12.2 0c0-2.9-2.4-5.3-5.3-5.3s-5.3 2.4-5.3 5.3 2.3 5.3 5.3 5.3c2.9 0 5.3-2.4 5.3-5.3s0 2.9 0 0z"/></g><g><path fill="#D9D9D9" d="M1762 26.2h-1.6l-.6 175-42.1-.1-.3 101.7h1.6l.3-100.1 42.1.1z"/><g fill="#D9D9D9"><circle cx="1718.2" cy="302.4" r="6.1"/><path d="M1711.3 302.4c0-3.8 3.1-6.9 6.9-6.9 3.8 0 6.9 3.1 6.9 6.9 0 3.8-3.1 6.9-6.9 6.9-3.8 0-6.9-3.1-6.9-6.9 0-3.8 0 3.8 0 0zm12.2 0c0-2.9-2.4-5.3-5.3-5.3s-5.3 2.4-5.3 5.3 2.4 5.3 5.3 5.3 5.3-2.3 5.3-5.3c0-2.9 0 3 0 0z"/></g></g><g><path fill="#D9D9D9" d="M1295.8 24.8l-.8 234.5-39-.2.7-234.5h-1.6l-.7 236.1 42.2.2.8-236.1z"/></g></g><g opacity=".09"><path fill="#D9D9D9" d="M1520.088 182.936l.574-180.1 1.6.005-.574 180.1z"/><g fill="#D9D9D9"><circle cx="1520.9" cy="182.6" r="6.1"/><path d="M1514 182.6c0-3.8 3.1-6.9 6.9-6.9 3.8 0 6.9 3.1 6.9 6.9s-3.1 6.9-6.9 6.9c-3.8 0-6.9-3.1-6.9-6.9 0-3.8 0 3.8 0 0zm12.2.1c0-2.9-2.4-5.3-5.3-5.3s-5.3 2.4-5.3 5.3 2.4 5.3 5.3 5.3c2.9-.1 5.3-2.4 5.3-5.3 0-3 0 2.9 0 0z"/></g><path fill="#D9D9D9" d="M1866.3 3.7h-1.7V12l-231.9-.5-.3 103.1-145-.5.3-91.1-138.3-.5.1-20.2h-1.6l-.1 21.9 138.3.4-.3 91.1 148.2.5.3-103.1 231.9.5z"/><g fill="#D9D9D9"><path d="M1454 2.7l-.2 55.9-186.7-.6.2-55.9h-1.6l-.2 57.5 189.9.6.2-57.5zM1712.5 3.5l-.2 67.9-119.9-.4.2-67.9h-1.6l-.2 69.5 123.1.4.3-69.5z"/></g><path fill="#D9D9D9" d="M1204.2 24.5v1.6l121 .4-.5 99.2h1.7l.4-100.9z"/><g fill="#D9D9D9"><circle cx="1325.6" cy="125.4" r="6.1"/><path d="M1318.7 125.4c0-3.8 3.1-6.9 6.9-6.9 3.8 0 6.9 3.1 6.9 6.9 0 3.8-3.1 6.9-6.9 6.9-3.9 0-7-3.1-6.9-6.9 0-3.8-.1 3.8 0 0zm12.1 0c0-2.9-2.4-5.3-5.3-5.3s-5.3 2.4-5.3 5.3 2.4 5.3 5.3 5.3c3 0 5.3-2.4 5.3-5.3s0 2.9 0 0z"/></g><path fill="#D9D9D9" d="M1842.4 3.7l-1.6-.1-.3 76.4-243.8-.5-.2 66.6-190.2-.6.4-143h-1.6l-.5 144.6 193.5.6.2-66.6 243.9.5z"/><path fill="#D9D9D9" d="M1684.793 107.2l.33-103.8 1.6.005-.33 103.8z"/><g fill="#D9D9D9"><circle cx="1685.6" cy="106.9" r="6.1"/><path d="M1678.7 106.9c0-3.8 3.1-6.9 6.9-6.9 3.8 0 6.9 3.1 6.9 6.9 0 3.8-3.1 6.9-6.9 6.9-3.8 0-6.9-3.1-6.9-6.9 0-3.8 0 3.8 0 0zm12.2 0c0-2.9-2.4-5.3-5.3-5.3s-5.3 2.4-5.3 5.3 2.4 5.3 5.3 5.3 5.3-2.4 5.3-5.3 0 2.9 0 0z"/></g><g><path fill="#D9D9D9" d="M1464.7 2.7l-.3 96.5-31.8-.1.3-96.5h-1.6l-.3 98.1 35 .1.3-98.1z"/></g><g><path fill="#D9D9D9" d="M1230.802 86.718l.27-84.8 1.6.005-.27 84.8z"/><g fill="#D9D9D9"><circle cx="1231.6" cy="86.4" r="6.1"/><path d="M1224.7 86.4c0-3.8 3.1-6.9 6.9-6.9 3.8 0 6.9 3.1 6.9 6.9 0 3.8-3.1 6.9-6.9 6.9-3.8 0-6.9-3.1-6.9-6.9.1-3.8 0 3.8 0 0zm12.2 0c0-2.9-2.4-5.3-5.3-5.3s-5.3 2.4-5.3 5.3 2.4 5.3 5.3 5.3 5.3-2.4 5.3-5.3 0 2.9 0 0z"/></g></g><g><path fill="#D9D9D9" d="M1372.574 124.382l.327-122 1.6.004-.327 122z"/><g fill="#D9D9D9"><circle cx="1373.4" cy="124.1" r="6.1"/><path d="M1366.5 124.1c0-3.8 3.1-6.9 6.9-6.9 3.8 0 6.9 3.1 6.9 6.9 0 3.8-3.1 6.9-6.9 6.9-3.8 0-6.9-3.1-6.9-6.9 0-3.8 0 3.8 0 0zm12.2 0c0-2.9-2.4-5.3-5.3-5.3s-5.3 2.4-5.3 5.3 2.4 5.3 5.3 5.3 5.3-2.4 5.3-5.3 0 2.9 0 0z"/></g></g></g><path opacity=".09" fill="#D9D9D9" d="M1788.9 90.2V1.7h2.2v90.1h-2.2"/><g opacity=".09"><path fill="#D9D9D9" d="M2012.2 160l-131.1.4-.4-127.1h-1.6l.4 128.7 132.7-.4z"/><path fill="#D9D9D9" d="M2012.2 224.6l-43.8.1-.3-113.2-191.4.6v1.6l189.8-.6.3 113.2 45.4-.1z"/><path fill="#D9D9D9" d="M2012.2 251.4l-101.8.4-.7-218.6h-1.6l.7 220.2 103.4-.3z"/><path fill="#D9D9D9" d="M2000.356 277.664l-.78-244.7 1.6-.005.78 244.7z"/><g fill="#D9D9D9"><circle cx="2001.2" cy="277.3" r="6.1"/><path d="M2008.1 277.3c0 3.8-3.1 6.9-6.9 6.9-3.8 0-6.9-3.1-6.9-6.9 0-3.8 3.1-6.9 6.9-6.9 3.7 0 6.8 3.1 6.9 6.9 0 3.8-.1-3.8 0 0zm-12.2 0c0 2.9 2.4 5.3 5.3 5.3s5.3-2.4 5.3-5.3-2.4-5.3-5.3-5.3c-3 .1-5.3 2.4-5.3 5.3s0-2.9 0 0z"/></g><g><path fill="#D9D9D9" d="M1803.6 33.6h1.6l.5 174.9 42.2-.1.3 214.5h-1.6l-.4-212.9-42.1.2z"/><g fill="#D9D9D9"><circle cx="1847.4" cy="422.6" r="6.1"/><path d="M1854.3 422.6c0 3.8-3.1 6.9-6.9 6.9-3.8 0-6.9-3.1-6.9-6.9 0-3.8 3.1-6.9 6.9-6.9 3.7 0 6.9 3 6.9 6.9 0 3.8 0-3.9 0 0zm-12.2 0c0 2.9 2.4 5.3 5.3 5.3s5.3-2.4 5.3-5.3-2.4-5.3-5.3-5.3c-3 0-5.3 2.4-5.3 5.3s0-2.9 0 0z"/></g></g></g><g opacity=".09"><path fill="#D9D9D9" d="M2012.2 58.1l-21.3-.1.2-55.9h-1.6l-.2 57.5 22.9.1z"/><path fill="#D9D9D9" d="M2012.2 24.7l-129.6-.4V1.7h-1.6l-.1 24.2 131.3.4z"/><path fill="#D9D9D9" d="M1954.6 86.711l.27-84.8 1.6.006-.27 84.8z"/><g fill="#D9D9D9"><circle cx="1955.4" cy="86.4" r="6.1"/><path d="M1948.5 86.4c0-3.8 3.1-6.9 6.9-6.9 3.8 0 6.9 3.1 6.9 6.9 0 3.8-3.1 6.9-6.9 6.9-3.8 0-6.9-3.1-6.9-6.9.1-3.8 0 3.8 0 0zm12.2 0c0-2.9-2.4-5.3-5.3-5.3s-5.3 2.4-5.3 5.3 2.4 5.3 5.3 5.3 5.3-2.4 5.3-5.3 0 2.9 0 0z"/></g><g><path fill="#D9D9D9" d="M1848.8 1.6v1.6l66.8.2-.4 127.3h1.6l.4-128.9z"/><g fill="#D9D9D9"><circle cx="1916" cy="130.3" r="6.1"/><path d="M1909.1 130.3c0-3.8 3.1-6.9 6.9-6.9 3.8 0 6.9 3.1 6.9 6.9 0 3.8-3.1 6.9-6.9 6.9-3.8 0-6.9-3.1-6.9-6.9 0-3.8 0 3.8 0 0zm12.2.1c0-2.9-2.4-5.3-5.3-5.3s-5.3 2.4-5.3 5.3 2.4 5.3 5.3 5.3c2.9-.1 5.3-2.4 5.3-5.3s0 2.9 0 0z"/></g></g></g><g opacity=".09"><path fill="#D9D9D9" d="M2164.995 362.61l1.077-337.7 1.6.005-1.077 337.7z"/><g fill="#D9D9D9"><circle cx="2165.8" cy="362.3" r="6.1"/><path d="M2158.9 362.3c0-3.8 3.1-6.9 6.9-6.9 3.8 0 6.9 3.1 6.9 6.9 0 3.8-3.1 6.9-6.9 6.9-3.8 0-6.9-3.1-6.9-6.9 0-3.9 0 3.8 0 0zm12.2 0c0-2.9-2.4-5.3-5.3-5.3s-5.3 2.4-5.3 5.3 2.4 5.3 5.3 5.3 5.3-2.4 5.3-5.3 0 2.9 0 0z"/></g><path fill="#D9D9D9" d="M2415.3 152.8l-113.2-.3-.3 108.9-177-.6.3-94.4-118.8-.3v1.6l117.2.3-.3 94.4 180.2.6.3-108.9 111.6.4z"/><path fill="#D9D9D9" d="M2415.3 112.2l-15.8-.1-.3 113.3-146.5-.5.3-110.4-168.5-.5-.3 95.9-77.9-.3v1.6l79.5.3.3-95.9 165.3.5-.3 110.4 149.7.5.3-113.2h14.2z"/><path fill="#D9D9D9" d="M2415.3 244.3l-157-.5-.3 72.6-232.1-.7.7-204.8h-20.3v1.6l18.6.1-.6 204.7 235.4.7.2-72.6 155.4.5zM2302.228 116.205l.29-90.8 1.6.005-.29 90.8z"/><g fill="#D9D9D9"><circle cx="2303.1" cy="115.9" r="6.1"/><path d="M2296.1 115.9c0-3.8 3.1-6.9 6.9-6.9 3.8 0 6.9 3.1 6.9 6.9 0 3.8-3.1 6.9-6.9 6.9-3.8 0-6.9-3.1-6.9-6.9.1-3.8 0 3.8 0 0zm12.2 0c0-2.9-2.4-5.3-5.3-5.3s-5.3 2.4-5.3 5.3 2.4 5.3 5.3 5.3 5.3-2.4 5.3-5.3 0 2.9 0 0z"/></g><g><path fill="#D9D9D9" d="M2365.666 270.291l.78-244.7 1.6.005-.78 244.7z"/><g fill="#D9D9D9"><circle cx="2366.4" cy="270" r="6.1"/><path d="M2359.5 270c0-3.8 3.1-6.9 6.9-6.9 3.8 0 6.9 3.1 6.9 6.9 0 3.8-3.1 6.9-6.9 6.9-3.8 0-6.9-3.1-6.9-6.9.1-3.8 0 3.8 0 0zm12.2 0c0-2.9-2.4-5.3-5.3-5.3s-5.3 2.4-5.3 5.3 2.3 5.3 5.3 5.3c2.9 0 5.3-2.4 5.3-5.3s0 2.9 0 0z"/></g></g><g><path fill="#D9D9D9" d="M2097.8 24.8l-.7 234.5-39.1-.2.8-234.5h-1.6l-.8 236.1 42.3.2.7-236.1z"/></g></g><g opacity=".09"><path fill="#D9D9D9" d="M2322.136 182.98l.574-180.1 1.6.005-.574 180.1z"/><g fill="#D9D9D9"><circle cx="2323" cy="182.6" r="6.1"/><path d="M2316.1 182.6c0-3.8 3.1-6.9 6.9-6.9 3.8 0 6.9 3.1 6.9 6.9 0 3.8-3.1 6.9-6.9 6.9-3.9 0-6.9-3.1-6.9-6.9s0 3.8 0 0zm12.2.1c0-2.9-2.4-5.3-5.3-5.3s-5.3 2.4-5.3 5.3 2.4 5.3 5.3 5.3c2.9-.1 5.2-2.4 5.3-5.3 0-3-.1 2.9 0 0z"/></g><path fill="#D9D9D9" d="M2415.3 116.2v-1.7l-125.8-.4.2-91.1-138.2-.5.1-20.2h-1.7v21.9l138.2.4-.2 91.1z"/><g fill="#D9D9D9"><path d="M2256 2.7l-.2 55.9-186.6-.6.1-55.9h-1.6l-.2 57.5 189.9.6.2-57.5zM2415.3 71h-20.9l.3-67.9h-1.7l-.2 69.5 22.5.1z"/></g><path fill="#D9D9D9" d="M2006.3 24.5v1.6l120.9.4-.4 99.2h1.6l.4-100.9z"/><g fill="#D9D9D9"><circle cx="2127.6" cy="125.4" r="6.1"/><path d="M2120.7 125.4c0-3.8 3.1-6.9 6.9-6.9 3.8 0 6.9 3.1 6.9 6.9 0 3.8-3.1 6.9-6.9 6.9-3.8 0-6.9-3.1-6.9-6.9 0-3.8 0 3.8 0 0zm12.2 0c0-2.9-2.4-5.3-5.3-5.3s-5.3 2.4-5.3 5.3 2.4 5.3 5.3 5.3 5.3-2.4 5.3-5.3 0 2.9 0 0z"/></g><path fill="#D9D9D9" d="M2415.3 79.5h-16.6l-.2 66.6-190.2-.6.5-143h-1.7l-.4 144.6 193.5.6.2-66.6h14.9z"/><path fill="#D9D9D9" d="M2266.7 2.7l-.3 96.5-31.7-.1.3-96.5h-1.6l-.4 98.1 35 .1.3-98.1z"/><g><path fill="#D9D9D9" d="M2032.85 86.762l.27-84.8 1.6.005-.27 84.8z"/><g fill="#D9D9D9"><circle cx="2033.7" cy="86.4" r="6.1"/><path d="M2026.8 86.4c0-3.8 3.1-6.9 6.9-6.9 3.8 0 6.9 3.1 6.9 6.9 0 3.8-3.1 6.9-6.9 6.9-3.8 0-6.9-3.1-6.9-6.9 0-3.8 0 3.8 0 0zm12.2 0c0-2.9-2.4-5.3-5.3-5.3s-5.3 2.4-5.3 5.3 2.4 5.3 5.3 5.3 5.3-2.4 5.3-5.3 0 2.9 0 0z"/></g></g><g><path fill="#D9D9D9" d="M2174.622 124.428l.328-122 1.6.004-.328 122z"/><g fill="#D9D9D9"><circle cx="2175.4" cy="124.1" r="6.1"/><path d="M2168.5 124.1c0-3.8 3.1-6.9 6.9-6.9 3.8 0 6.9 3.1 6.9 6.9 0 3.8-3.1 6.9-6.9 6.9-3.8 0-6.9-3.1-6.9-6.9.1-3.8 0 3.8 0 0zm12.2 0c0-2.9-2.4-5.3-5.3-5.3s-5.3 2.4-5.3 5.3 2.4 5.3 5.3 5.3 5.3-2.4 5.3-5.3 0 2.9 0 0z"/></g></g></g><g opacity=".84"><path fill="#D9D9D9" d="M1347.026 227.542l.684-214.7 1 .003-.684 214.7z"/><g fill="#D9D9D9"><circle cx="1347.6" cy="227.3" r="3.9"/><path d="M1343.2 227.3c0-2.4 2-4.4 4.4-4.4 2.4 0 4.4 2 4.4 4.4 0 2.4-2 4.4-4.4 4.4-2.5 0-4.4-1.9-4.4-4.4 0-2.4 0 2.5 0 0zm7.7.1c0-1.9-1.5-3.4-3.3-3.4-1.9 0-3.4 1.5-3.4 3.3 0 1.9 1.5 3.4 3.3 3.4 1.9 0 3.4-1.5 3.4-3.3 0-1.9 0 1.8 0 0z"/></g><path fill="#D9D9D9" d="M1552.7 13.6h-1l-.2 80.7-117.3-.3-.2 69.2-112.5-.4.2-60-107.1-.3.3-90h-1l-.3 91 107.1.4-.2 60 114.5.3.3-69.2 117.2.4z"/><path fill="#D9D9D9" d="M1496.2 68.3l-.3 72-93.1-.3.2-70.2-107.1-.3-.2 60.9-91.5-.2v1l92.5.3.2-61 105.1.4-.2 70.1 95.2.4.2-72 120.6.3v-1z"/><path fill="#D9D9D9" d="M1533.3 13.5l-.5 138.9-126.4-.4-.2 46.2-147.6-.5.5-130.1-54.9-.2v1l53.8.2-.4 130.1 149.6.5.2-46.1 126.4.4.5-140z"/><path fill="#D9D9D9" d="M1434.362 70.975l.184-57.7 1 .004-.184 57.7z"/><g fill="#D9D9D9"><circle cx="1434.8" cy="70.7" r="3.9"/><path d="M1430.4 70.7c0-2.4 2-4.4 4.4-4.4 2.4 0 4.4 2 4.4 4.4 0 2.4-2 4.4-4.4 4.4-2.4 0-4.4-2-4.4-4.4 0-2.4 0 2.4 0 0zm7.8 0c0-1.9-1.5-3.4-3.3-3.4-1.9 0-3.4 1.5-3.4 3.3 0 1.9 1.5 3.4 3.3 3.4 1.9.1 3.4-1.4 3.4-3.3 0-1.8 0 1.9 0 0z"/></g><path fill="#D9D9D9" d="M1474.614 168.876l.496-155.6 1 .003-.496 155.6z"/><g fill="#D9D9D9"><circle cx="1475.1" cy="168.7" r="3.9"/><path d="M1470.7 168.7c0-2.4 2-4.4 4.4-4.4 2.4 0 4.4 2 4.4 4.4 0 2.4-2 4.4-4.4 4.4-2.4 0-4.4-2-4.4-4.4 0-2.5 0 2.4 0 0zm7.8 0c0-1.9-1.5-3.4-3.3-3.4-1.9 0-3.4 1.5-3.4 3.3 0 1.9 1.5 3.4 3.3 3.4 1.9 0 3.4-1.5 3.4-3.3 0-1.9 0 1.8 0 0z"/></g><g><path fill="#D9D9D9" d="M1600.7 13.7h-1l-.3 111.3-26.8-.1-.2 64.6h1l.2-63.6 26.8.1z"/><g fill="#D9D9D9"><circle cx="1572.9" cy="189.3" r="3.9"/><path d="M1568.5 189.3c0-2.4 2-4.4 4.4-4.4 2.4 0 4.4 2 4.4 4.4 0 2.4-2 4.4-4.4 4.4-2.4 0-4.4-2-4.4-4.4 0-2.4 0 2.4 0 0zm7.8 0c0-1.9-1.5-3.4-3.3-3.4-1.9 0-3.4 1.5-3.4 3.3 0 1.9 1.5 3.4 3.3 3.4 1.8.1 3.3-1.4 3.4-3.3 0-1.8-.1 1.9 0 0z"/></g></g><g><path fill="#D9D9D9" d="M1304.4 12.8l-.5 149.1-24.8-.1.4-149.1h-1l-.5 150.1 26.9.1.5-150.1z"/></g><g><path fill="#D9D9D9" d="M1232.83 167.228l.493-154.7 1 .003-.494 154.7z"/><g fill="#D9D9D9"><circle cx="1233.3" cy="167" r="3.9"/><path d="M1228.9 167c0-2.4 2-4.4 4.4-4.4 2.4 0 4.4 2 4.4 4.4 0 2.4-2 4.4-4.4 4.4-2.4 0-4.4-2-4.4-4.4 0-2.4 0 2.4 0 0zm7.8 0c0-1.9-1.5-3.4-3.3-3.4-1.9 0-3.4 1.5-3.4 3.3 0 1.9 1.5 3.4 3.3 3.4 1.9.1 3.4-1.4 3.4-3.3s0 1.9 0 0z"/></g></g></g><g opacity=".76"><path fill="#D9D9D9" d="M1447.013 127.743l.365-114.5 1 .003-.365 114.5z"/><g fill="#D9D9D9"><circle cx="1447.5" cy="127.5" r="3.9"/><path d="M1443.1 127.5c0-2.4 2-4.4 4.4-4.4 2.4 0 4.4 2 4.4 4.4 0 2.4-2 4.4-4.4 4.4-2.4 0-4.4-2-4.4-4.4 0-2.4 0 2.4 0 0zm7.7 0c0-1.9-1.5-3.4-3.3-3.4-1.9 0-3.4 1.5-3.4 3.3 0 1.9 1.5 3.4 3.3 3.4 1.9.1 3.4-1.4 3.4-3.3.1-1.8 0 1.9 0 0z"/></g><path fill="#D9D9D9" d="M1667 13.8h-1V19l-147.5-.3-.1 65.5-92.2-.2.2-58-87.9-.3V12.9h-1l-.1 13.8 87.9.3-.1 58 94.2.3.2-65.5 147.4.3z"/><g fill="#D9D9D9"><path d="M1404.9 13.1l-.1 35.6-118.7-.4.1-35.6h-1l-.1 36.6 120.7.4.1-36.6zM1569.3 13.6l-.1 43.2-76.3-.3.2-43.1h-1.1l-.1 44.1 78.3.3.1-44.2z"/></g><path fill="#D9D9D9" d="M1216.3 12.5l-.1 15.4 106.8.3-.2 63.1h1l.3-64.1-106.8-.3V12.5z"/><g fill="#D9D9D9"><circle cx="1323.3" cy="91.1" r="3.9"/><path d="M1318.9 91.1c0-2.4 2-4.4 4.4-4.4 2.4 0 4.4 2 4.4 4.4 0 2.4-2 4.4-4.4 4.4-2.4 0-4.4-2-4.4-4.4 0-2.4 0 2.4 0 0zm7.7 0c0-1.9-1.5-3.4-3.3-3.4-1.9 0-3.4 1.5-3.4 3.3 0 1.9 1.5 3.4 3.3 3.4 1.9.1 3.4-1.4 3.4-3.3.1-1.8 0 1.9 0 0z"/></g><path fill="#D9D9D9" d="M1651.9 13.7h-1.1l-.1 48.5-155-.3-.2 42.4-120.9-.4.3-90.9h-1l-.3 91.9 123 .4.1-42.4 155 .4z"/><path fill="#D9D9D9" d="M1551.723 79.557l.21-66 1 .004-.21 66z"/><g fill="#D9D9D9"><circle cx="1552.2" cy="79.4" r="3.9"/><path d="M1547.8 79.3c0-2.4 2-4.4 4.4-4.4 2.4 0 4.4 2 4.4 4.4 0 2.4-2 4.4-4.4 4.4-2.4 0-4.4-1.9-4.4-4.4 0-2.4 0 2.5 0 0zm7.8.1c0-1.9-1.5-3.4-3.3-3.4-1.9 0-3.4 1.5-3.4 3.3 0 1.9 1.5 3.4 3.3 3.4 1.8 0 3.3-1.5 3.4-3.3 0-1.9-.1 1.8 0 0z"/></g><path fill="#D9D9D9" d="M1411.7 13.1l-.2 61.3h-20.1l.2-61.3-1.1-.1-.2 62.4 22.3.1.2-62.4z"/><g><path fill="#D9D9D9" d="M1263.103 66.556l.172-53.9 1 .003-.172 53.9z"/><g fill="#D9D9D9"><circle cx="1263.6" cy="66.3" r="3.9"/><path d="M1259.2 66.3c0-2.4 2-4.4 4.4-4.4 2.4 0 4.4 2 4.4 4.4 0 2.4-2 4.4-4.4 4.4-2.4 0-4.4-2-4.4-4.4 0-2.4 0 2.4 0 0zm7.7 0c0-1.9-1.5-3.4-3.3-3.4-1.9 0-3.4 1.5-3.4 3.3 0 1.9 1.5 3.4 3.3 3.4 1.9.1 3.4-1.4 3.4-3.3.1-1.8 0 1.9 0 0z"/></g></g><g><path fill="#D9D9D9" d="M1204.2 12.5v.9l34 .2-.2 80.9h1l.3-81.9z"/><g fill="#D9D9D9"><circle cx="1238.5" cy="94.3" r="3.9"/><path d="M1234.1 94.2c0-2.4 2-4.4 4.4-4.4 2.4 0 4.4 2 4.4 4.4 0 2.4-2 4.4-4.4 4.4-2.4 0-4.4-1.9-4.4-4.4 0-2.4 0 2.5 0 0zm7.8.1c0-1.9-1.5-3.4-3.3-3.4-1.9 0-3.4 1.5-3.4 3.3 0 1.9 1.5 3.4 3.3 3.4 1.8 0 3.4-1.5 3.4-3.3 0-1.9 0 1.8 0 0z"/></g></g><g><path fill="#D9D9D9" d="M1353.189 90.522l.208-77.6 1 .003-.208 77.6z"/><g fill="#D9D9D9"><circle cx="1353.7" cy="90.3" r="3.9"/><path d="M1349.3 90.3c0-2.4 2-4.4 4.4-4.4 2.4 0 4.4 2 4.4 4.4 0 2.4-2 4.4-4.4 4.4-2.4 0-4.4-2-4.4-4.4 0-2.4 0 2.4 0 0zm7.8 0c0-1.9-1.5-3.4-3.3-3.4-1.9 0-3.4 1.5-3.4 3.3 0 1.9 1.5 3.4 3.3 3.4 1.8 0 3.4-1.5 3.4-3.3 0-1.9 0 1.8 0 0z"/></g></g></g><path fill="#D9D9D9" d="M1617.8 68.7V12.5h1.4v57.2h-1.4"/><g opacity=".84"><path fill="#D9D9D9" d="M1889.39 227.521l-.685-214.7 1-.003.684 214.7z"/><g fill="#D9D9D9"><circle cx="1889.9" cy="227.3" r="3.9"/><path d="M1894.3 227.3c0 2.4-2 4.4-4.4 4.4-2.4 0-4.4-2-4.4-4.4 0-2.4 2-4.4 4.4-4.4 2.4.1 4.4 2 4.4 4.4 0 2.5 0-2.4 0 0zm-7.7.1c0 1.9 1.5 3.4 3.4 3.3 1.9 0 3.4-1.5 3.3-3.4 0-1.9-1.5-3.4-3.4-3.3-1.8 0-3.3 1.5-3.3 3.4 0 1.8 0-1.9 0 0z"/></g><path fill="#D9D9D9" d="M2012.2 103.6v-1.1l-96.4.3.2 60-112.5.4-.2-69.2-117.3.3-.2-80.7h-1l.2 81.8 117.2-.4.3 69.2 114.5-.3-.2-60z"/><path fill="#D9D9D9" d="M2012.2 130.2l-70.4.2-.2-60.9-107.1.3.2 70.2-93.1.3-.3-72-121.6.4v1l120.6-.3.2 72 95.2-.4-.2-70.1 105.1-.4.2 61 71.4-.2z"/><path fill="#D9D9D9" d="M2012.2 68.5v-1l-33.8.1.4 130.1-147.5.5-.2-46.2-126.4.4-.5-138.9h-1l.5 140 126.4-.4.2 46.1 149.6-.5-.4-130.1z"/><path fill="#D9D9D9" d="M1802.205 70.935l-.184-57.7 1-.004.184 57.7z"/><g fill="#D9D9D9"><circle cx="1802.7" cy="70.7" r="3.9"/><path d="M1807.1 70.7c0 2.4-2 4.4-4.4 4.4-2.4 0-4.4-2-4.4-4.4 0-2.4 2-4.4 4.4-4.4 2.4 0 4.4 2 4.4 4.4 0 2.4 0-2.4 0 0zm-7.8 0c0 1.9 1.5 3.4 3.4 3.3 1.9 0 3.4-1.5 3.3-3.4 0-1.9-1.5-3.4-3.4-3.3-1.8.1-3.3 1.6-3.3 3.4 0 1.9 0-1.8 0 0z"/></g><path fill="#D9D9D9" d="M1761.86 168.928l-.496-155.6 1-.003.496 155.6z"/><g fill="#D9D9D9"><circle cx="1762.4" cy="168.7" r="3.9"/><path d="M1766.8 168.7c0 2.4-2 4.4-4.4 4.4-2.4 0-4.4-2-4.4-4.4 0-2.4 2-4.4 4.4-4.4 2.4 0 4.4 1.9 4.4 4.4 0 2.4 0-2.5 0 0zm-7.8 0c0 1.9 1.5 3.4 3.4 3.3 1.9 0 3.4-1.5 3.3-3.4 0-1.9-1.5-3.4-3.4-3.3-1.8 0-3.3 1.5-3.3 3.4 0 1.8 0-1.9 0 0z"/></g><g><path fill="#D9D9D9" d="M1636.8 13.7h1l.3 111.3 26.8-.1.2 136.3h-1l-.2-135.3-26.8.1z"/><g fill="#D9D9D9"><circle cx="1664.6" cy="261" r="3.9"/><path d="M1669 261c0 2.4-2 4.4-4.4 4.4-2.4 0-4.4-2-4.4-4.4 0-2.4 2-4.4 4.4-4.4 2.4 0 4.4 2 4.4 4.4 0 2.4 0-2.4 0 0zm-7.8 0c0 1.9 1.5 3.4 3.4 3.3 1.9 0 3.4-1.5 3.3-3.4 0-1.9-1.5-3.4-3.4-3.3-1.8.1-3.3 1.6-3.3 3.4 0 1.9 0-1.8 0 0z"/></g></g><g><path fill="#D9D9D9" d="M1933.1 12.8l.5 149.1 24.8-.1-.4-149.1h1l.5 150.1-26.9.1-.5-150.1z"/></g><g><path fill="#D9D9D9" d="M2003.708 167.212l-.493-154.7 1-.003.493 154.7z"/><g fill="#D9D9D9"><circle cx="2004.2" cy="167" r="3.9"/><path d="M2008.6 167c0 2.4-2 4.4-4.4 4.4-2.4 0-4.4-2-4.4-4.4 0-2.4 2-4.4 4.4-4.4 2.4 0 4.4 2 4.4 4.4 0 2.4 0-2.4 0 0zm-7.8 0c0 1.9 1.5 3.4 3.4 3.3 1.9 0 3.4-1.5 3.3-3.4 0-1.9-1.5-3.4-3.4-3.3-1.8 0-3.3 1.5-3.3 3.4s0-1.9 0 0z"/></g></g></g><g opacity=".76"><path fill="#D9D9D9" d="M1907.15 127.677l.365-114.5 1 .003-.365 114.5z"/><g fill="#D9D9D9"><circle cx="1907.6" cy="127.5" r="3.9"/><path d="M1903.2 127.5c0-2.4 2-4.4 4.4-4.4 2.4 0 4.4 2 4.4 4.4 0 2.4-2 4.4-4.4 4.4-2.4 0-4.4-2-4.4-4.4 0-2.4 0 2.4 0 0zm7.8 0c0-1.9-1.5-3.4-3.3-3.4-1.9 0-3.4 1.5-3.4 3.3 0 1.9 1.5 3.4 3.3 3.4 1.9.1 3.4-1.4 3.4-3.3 0-1.8 0 1.9 0 0z"/></g><path fill="#D9D9D9" d="M2012.2 18.8l-33.5-.1-.2 65.5-92.2-.2.2-58-87.9-.3.1-12.8h-1.1v13.8l87.9.3-.2 58 94.2.3.2-65.5h32.5z"/><g fill="#D9D9D9"><path d="M1865.1 13.1l-.2 35.6-118.6-.4.1-35.6h-1l-.2 36.6 120.8.4.1-36.6zM2016.3 56.7l-63.2-.2.1-43.1h-1l-.2 44.1 64.3.2z"/></g><path fill="#D9D9D9" d="M1676.4 12.5v15.4l106.8.3-.3 63.1h1l.3-64.1-106.8-.3V12.5z"/><g fill="#D9D9D9"><circle cx="1783.4" cy="91.1" r="3.9"/><path d="M1779 91.1c0-2.4 2-4.4 4.4-4.4 2.4 0 4.4 2 4.4 4.4 0 2.4-2 4.4-4.4 4.4-2.4 0-4.4-2-4.4-4.4 0-2.4 0 2.4 0 0zm7.8 0c0-1.9-1.5-3.4-3.3-3.4-1.9 0-3.4 1.5-3.4 3.3 0 1.9 1.5 3.4 3.3 3.4 1.9.1 3.4-1.4 3.4-3.3 0-1.8 0 1.9 0 0z"/></g><path fill="#D9D9D9" d="M2016.3 62l-60.5-.1-.1 42.4-121-.4.3-90.9h-1l-.3 91.9 123 .4.1-42.4 59.5.2z"/><path fill="#D9D9D9" d="M1871.9 13.1l-.2 61.3h-20.2l.2-61.3-1-.1-.2 62.4 22.2.1.2-62.4zM1723.24 66.49l.172-53.9 1 .003-.172 53.9z"/><g fill="#D9D9D9"><circle cx="1723.7" cy="66.3" r="3.9"/><path d="M1719.3 66.3c0-2.4 2-4.4 4.4-4.4 2.4 0 4.4 2 4.4 4.4 0 2.4-2 4.4-4.4 4.4-2.4 0-4.4-2-4.4-4.4 0-2.4 0 2.4 0 0zm7.8 0c0-1.9-1.5-3.4-3.3-3.4-1.9 0-3.4 1.5-3.4 3.3 0 1.9 1.5 3.4 3.3 3.4 1.9.1 3.4-1.4 3.4-3.3 0-1.8 0 1.9 0 0z"/></g><g><path fill="#D9D9D9" d="M1656 12.4v1l42.4.2-.3 80.9h1.1l.2-81.9z"/><g fill="#D9D9D9"><circle cx="1698.6" cy="94.3" r="3.9"/><path d="M1694.3 94.2c0-2.4 2-4.4 4.4-4.4 2.4 0 4.4 2 4.4 4.4 0 2.4-2 4.4-4.4 4.4-2.5 0-4.5-1.9-4.4-4.4 0-2.4-.1 2.5 0 0zm7.7.1c0-1.9-1.5-3.4-3.3-3.4-1.9 0-3.4 1.5-3.4 3.3 0 1.9 1.5 3.4 3.3 3.4 1.9 0 3.4-1.5 3.4-3.3 0-1.9 0 1.8 0 0z"/></g></g><g><path fill="#D9D9D9" d="M1813.326 90.457l.208-77.6 1 .003-.208 77.6z"/><g fill="#D9D9D9"><circle cx="1813.8" cy="90.3" r="3.9"/><path d="M1809.5 90.3c0-2.4 2-4.4 4.4-4.4 2.4 0 4.4 2 4.4 4.4 0 2.4-2 4.4-4.4 4.4-2.5 0-4.5-2-4.4-4.4 0-2.4-.1 2.4 0 0zm7.7 0c0-1.9-1.5-3.4-3.3-3.4-1.9 0-3.4 1.5-3.4 3.3 0 1.9 1.5 3.4 3.3 3.4 1.9 0 3.4-1.5 3.4-3.3 0-1.9 0 1.8 0 0z"/></g></g></g><g opacity=".84"><path fill="#D9D9D9" d="M2149.074 227.586l.685-214.7 1 .003-.685 214.7z"/><g fill="#D9D9D9"><circle cx="2149.6" cy="227.3" r="3.9"/><path d="M2145.2 227.3c0-2.4 2-4.4 4.4-4.4 2.4 0 4.4 2 4.4 4.4 0 2.4-2 4.4-4.4 4.4-2.4 0-4.4-1.9-4.4-4.4 0-2.4 0 2.5 0 0zm7.8.1c0-1.9-1.5-3.4-3.3-3.4-1.9 0-3.4 1.5-3.4 3.3 0 1.9 1.5 3.4 3.3 3.4 1.9 0 3.4-1.5 3.4-3.3 0-1.9 0 1.8 0 0z"/></g><path fill="#D9D9D9" d="M2354.8 13.6h-1l-.3 80.7-117.2-.3-.2 69.2-112.5-.4.2-60-107.1-.3.3-90h-1l-.3 91 107 .4-.2 60 114.6.3.2-69.2 117.2.4z"/><path fill="#D9D9D9" d="M2415.3 68.7l-117.1-.4-.2 72-93.1-.3.2-70.2-107.2-.3-.2 60.9-91.4-.2v1l92.5.3.1-61 105.1.4-.2 70.1 95.2.4.2-72 116.1.3z"/><path fill="#D9D9D9" d="M2335.3 13.5l-.4 138.9-126.5-.4-.1 46.2-147.6-.5.4-130.1-54.8-.2v1l53.8.2-.4 130.1 149.6.5.1-46.1 126.5.4.4-140z"/><path fill="#D9D9D9" d="M2236.41 70.92l.185-57.7 1 .003-.184 57.7z"/><g fill="#D9D9D9"><circle cx="2236.9" cy="70.7" r="3.9"/><path d="M2232.5 70.7c0-2.4 2-4.4 4.4-4.4 2.4 0 4.4 2 4.4 4.4 0 2.4-2 4.4-4.4 4.4-2.5 0-4.4-2-4.4-4.4 0-2.4 0 2.4 0 0zm7.7 0c0-1.9-1.5-3.4-3.3-3.4-1.9 0-3.4 1.5-3.4 3.3 0 1.9 1.5 3.4 3.3 3.4 1.9.1 3.4-1.4 3.4-3.3 0-1.8 0 1.9 0 0z"/></g><path fill="#D9D9D9" d="M2276.662 168.92l.496-155.6 1 .004-.496 155.6z"/><g fill="#D9D9D9"><circle cx="2277.2" cy="168.7" r="3.9"/><path d="M2272.8 168.7c0-2.4 2-4.4 4.4-4.4 2.4 0 4.4 2 4.4 4.4 0 2.4-2 4.4-4.4 4.4-2.5 0-4.4-2-4.4-4.4 0-2.5 0 2.4 0 0zm7.7 0c0-1.9-1.5-3.4-3.3-3.4-1.9 0-3.4 1.5-3.4 3.3 0 1.9 1.5 3.4 3.3 3.4 1.9 0 3.4-1.5 3.4-3.3s0 1.8 0 0z"/></g><g><path fill="#D9D9D9" d="M2402.8 13.7h-1l-.4 111.3-26.8-.1-.2 64.6h1.1l.2-63.6 26.7.1z"/><g fill="#D9D9D9"><circle cx="2374.9" cy="189.3" r="3.9"/><path d="M2370.6 189.3c0-2.4 2-4.4 4.4-4.4 2.4 0 4.4 2 4.4 4.4 0 2.4-2 4.4-4.4 4.4-2.5 0-4.5-2-4.4-4.4 0-2.4-.1 2.4 0 0zm7.7 0c0-1.9-1.5-3.4-3.3-3.4-1.9 0-3.4 1.5-3.4 3.3 0 1.9 1.5 3.4 3.3 3.4 1.9.1 3.4-1.4 3.4-3.3 0-1.8 0 1.9 0 0z"/></g></g><g><path fill="#D9D9D9" d="M2106.4 12.8l-.5 149.1-24.8-.1.5-149.1h-1l-.5 150.1 26.9.1.4-150.1z"/></g><g><path fill="#D9D9D9" d="M2034.878 167.172l.493-154.7 1 .004-.493 154.7z"/><g fill="#D9D9D9"><circle cx="2035.4" cy="167" r="3.9"/><path d="M2031 167c0-2.4 2-4.4 4.4-4.4 2.4 0 4.4 2 4.4 4.4 0 2.4-2 4.4-4.4 4.4-2.5 0-4.4-2-4.4-4.4 0-2.4 0 2.4 0 0zm7.7 0c0-1.9-1.5-3.4-3.3-3.4-1.9 0-3.4 1.5-3.4 3.3 0 1.9 1.5 3.4 3.3 3.4 1.9.1 3.4-1.4 3.4-3.3s0 1.9 0 0z"/></g></g></g><g opacity=".76"><path fill="#D9D9D9" d="M2249.061 127.687l.365-114.5 1 .003-.365 114.5z"/><g fill="#D9D9D9"><circle cx="2249.5" cy="127.5" r="3.9"/><path d="M2245.2 127.5c0-2.4 2-4.4 4.4-4.4 2.4 0 4.4 2 4.4 4.4 0 2.4-2 4.4-4.4 4.4-2.5 0-4.5-2-4.4-4.4 0-2.4-.1 2.4 0 0zm7.7 0c0-1.9-1.5-3.4-3.3-3.4-1.9 0-3.4 1.5-3.4 3.3 0 1.9 1.5 3.4 3.3 3.4 1.9.1 3.4-1.4 3.4-3.3 0-1.8 0 1.9 0 0z"/></g><path fill="#D9D9D9" d="M2415.3 18.9l-94.7-.2-.2 65.5-92.1-.2.1-58-87.9-.3.1-12.8h-1.1v13.8l87.9.3-.2 58 94.2.3.2-65.5 93.7.1z"/><g fill="#D9D9D9"><path d="M2207 13.1l-.1 35.6-118.7-.4.1-35.6h-1l-.2 36.6 120.8.4.1-36.6zM2371.4 13.6l-.2 43.2-76.2-.3.1-43.1h-1l-.2 44.1 78.4.3.1-44.2z"/></g><path fill="#D9D9D9" d="M2018.3 12.5v15.4l106.8.3-.3 63.1h1.1l.2-64.1-106.8-.3.1-14.4z"/><g fill="#D9D9D9"><circle cx="2125.3" cy="91.1" r="3.9"/><path d="M2121 91.1c0-2.4 2-4.4 4.4-4.4 2.4 0 4.4 2 4.4 4.4 0 2.4-2 4.4-4.4 4.4-2.5 0-4.5-2-4.4-4.4 0-2.4-.1 2.4 0 0zm7.7 0c0-1.9-1.5-3.4-3.3-3.4-1.9 0-3.4 1.5-3.4 3.3 0 1.9 1.5 3.4 3.3 3.4 1.9.1 3.4-1.4 3.4-3.3 0-1.8 0 1.9 0 0z"/></g><path fill="#D9D9D9" d="M2415.3 62.2l-117.6-.3-.1 42.4-121-.4.3-90.9h-1l-.3 91.9 123 .4.1-42.4 116.6.3z"/><path fill="#D9D9D9" d="M2353.772 79.602l.21-66 1 .003-.21 66z"/><g fill="#D9D9D9"><circle cx="2354.2" cy="79.4" r="3.9"/><path d="M2349.9 79.3c0-2.4 2-4.4 4.4-4.4 2.4 0 4.4 2 4.4 4.4 0 2.4-2 4.4-4.4 4.4-2.5 0-4.5-1.9-4.4-4.4 0-2.4-.1 2.5 0 0zm7.7.1c0-1.9-1.5-3.4-3.3-3.4-1.9 0-3.4 1.5-3.4 3.3 0 1.9 1.5 3.4 3.3 3.4 1.9 0 3.4-1.5 3.4-3.3 0-1.9 0 1.8 0 0z"/></g><path fill="#D9D9D9" d="M2213.8 13.1l-.2 61.3h-20.2l.2-61.3-1-.1-.2 62.4 22.2.1.2-62.4z"/><g><path fill="#D9D9D9" d="M2065.151 66.5l.172-53.9 1 .003-.172 53.9z"/><g fill="#D9D9D9"><circle cx="2065.6" cy="66.3" r="3.9"/><path d="M2061.3 66.3c0-2.4 2-4.4 4.4-4.4 2.4 0 4.4 2 4.4 4.4 0 2.4-2 4.4-4.4 4.4-2.5 0-4.5-2-4.4-4.4 0-2.4-.1 2.4 0 0zm7.7 0c0-1.9-1.5-3.4-3.3-3.4-1.9 0-3.4 1.5-3.4 3.3 0 1.9 1.5 3.4 3.3 3.4 1.9.1 3.4-1.4 3.4-3.3 0-1.8 0 1.9 0 0z"/></g></g><g><path fill="#D9D9D9" d="M2006.3 12.5v.9l34 .2-.3 80.9h1.1l.2-81.9z"/><g fill="#D9D9D9"><circle cx="2040.5" cy="94.3" r="3.9"/><path d="M2036.2 94.2c0-2.4 2-4.4 4.4-4.4 2.4 0 4.4 2 4.4 4.4 0 2.4-2 4.4-4.4 4.4-2.5 0-4.4-1.9-4.4-4.4 0-2.4 0 2.5 0 0zm7.7.1c0-1.9-1.5-3.4-3.3-3.4-1.9 0-3.4 1.5-3.4 3.3 0 1.9 1.5 3.4 3.3 3.4 1.9 0 3.4-1.5 3.4-3.3 0-1.9 0 1.8 0 0z"/></g></g><g><path fill="#D9D9D9" d="M2155.237 90.468l.208-77.6 1 .002-.208 77.6z"/><g fill="#D9D9D9"><circle cx="2155.8" cy="90.3" r="3.9"/><path d="M2151.4 90.3c0-2.4 2-4.4 4.4-4.4 2.4 0 4.4 2 4.4 4.4 0 2.4-2 4.4-4.4 4.4-2.5 0-4.4-2-4.4-4.4 0-2.4 0 2.4 0 0zm7.7 0c0-1.9-1.5-3.4-3.3-3.4-1.9 0-3.4 1.5-3.4 3.3 0 1.9 1.5 3.4 3.3 3.4 1.9 0 3.4-1.5 3.4-3.3 0-1.9 0 1.8 0 0z"/></g></g></g></g></svg>