<?xml version="1.0" encoding="utf-8"?>
<!-- Generator: Adobe Illustrator 17.1.0, SVG Export Plug-In . SVG Version: 6.00 Build 0)  -->
<!DOCTYPE svg PUBLIC "-//W3C//DTD SVG 1.1//EN" "http://www.w3.org/Graphics/SVG/1.1/DTD/svg11.dtd">
<svg version="1.1" id="Слой_1" xmlns="http://www.w3.org/2000/svg" xmlns:xlink="http://www.w3.org/1999/xlink" x="0px" y="0px"
	 viewBox="0 0 191.3 191.3" enable-background="new 0 0 191.3 191.3" xml:space="preserve">
<linearGradient id="SVGID_1_" gradientUnits="userSpaceOnUse" x1="-561.8041" y1="589.0233" x2="-389.128" y2="761.6993" gradientTransform="matrix(2.838720e-004 1 1 -2.838720e-004 -575.3591 575.5224)">
	<stop  offset="0" style="stop-color:#C6C6C6"/>
	<stop  offset="3.295243e-003" style="stop-color:#BEBEBE"/>
	<stop  offset="2.071793e-002" style="stop-color:#999898"/>
	<stop  offset="3.947986e-002" style="stop-color:#797777"/>
	<stop  offset="5.956119e-002" style="stop-color:#5E5C5C"/>
	<stop  offset="8.141900e-002" style="stop-color:#4A4848"/>
	<stop  offset="0.106" style="stop-color:#3C3939"/>
	<stop  offset="0.1354" style="stop-color:#343131"/>
	<stop  offset="0.1828" style="stop-color:#312E2E"/>
	<stop  offset="0.2261" style="stop-color:#373434"/>
	<stop  offset="0.2837" style="stop-color:#474545"/>
	<stop  offset="0.3493" style="stop-color:#636161"/>
	<stop  offset="0.421" style="stop-color:#888787"/>
	<stop  offset="0.4968" style="stop-color:#B8B8B8"/>
	<stop  offset="0.5161" style="stop-color:#C6C6C6"/>
	<stop  offset="0.7742" style="stop-color:#5B5A5A"/>
	<stop  offset="1" style="stop-color:#908E8E"/>
</linearGradient>
<linearGradient id="SVGID_2_" gradientUnits="userSpaceOnUse" x1="-575.3329" y1="671.137" x2="-384.0485" y2="671.137" gradientTransform="matrix(2.838720e-004 1 1 -2.838720e-004 -575.3591 575.5224)">
	<stop  offset="0" style="stop-color:#C6C6C6"/>
	<stop  offset="3.295243e-003" style="stop-color:#BEBEBE"/>
	<stop  offset="2.071793e-002" style="stop-color:#999898"/>
	<stop  offset="3.947986e-002" style="stop-color:#797777"/>
	<stop  offset="5.956119e-002" style="stop-color:#5E5C5C"/>
	<stop  offset="8.141900e-002" style="stop-color:#4A4848"/>
	<stop  offset="0.106" style="stop-color:#3C3939"/>
	<stop  offset="0.1354" style="stop-color:#343131"/>
	<stop  offset="0.1828" style="stop-color:#312E2E"/>
	<stop  offset="0.2261" style="stop-color:#373434"/>
	<stop  offset="0.2837" style="stop-color:#474545"/>
	<stop  offset="0.3493" style="stop-color:#636161"/>
	<stop  offset="0.421" style="stop-color:#888787"/>
	<stop  offset="0.4968" style="stop-color:#B8B8B8"/>
	<stop  offset="0.5161" style="stop-color:#C6C6C6"/>
	<stop  offset="0.7742" style="stop-color:#5B5A5A"/>
	<stop  offset="1" style="stop-color:#908E8E"/>
</linearGradient>
<path opacity="0.54" fill="url(#SVGID_1_)" stroke="url(#SVGID_2_)" stroke-width="0.9921" stroke-miterlimit="10" d="M154,162.9
	l6,2.9l4.2-4.1l-2.8-6.1l-3.4-3.5c1-1.1,1.9-2.2,2.9-3.3l4,2.9l6.4,1.9l3.4-4.7l-3.8-5.5l-4-2.9c0.8-1.2,1.5-2.5,2.2-3.8l4.4,2.1
	l6.6,0.7l2.5-5.3l-4.7-4.7l-4.4-2.1c0.6-1.4,1.1-2.7,1.6-4.1l4.7,1.3l6.6-0.4l1.6-5.6l-5.4-3.9l-4.7-1.3c0.3-1.4,0.6-2.9,0.8-4.3
	l4.9,0.5l6.5-1.6l0.6-5.8l-6-2.8l-4.9-0.5c0.1-1.5,0.1-2.9,0.1-4.4l4.9-0.4l6.1-2.7l-0.4-5.8l-6.4-1.8l-4.9,0.4
	c-0.2-1.4-0.4-2.9-0.7-4.3l4.7-1.2l5.5-3.7l-1.4-5.6l-6.6-0.6l-4.7,1.2c-0.4-1.4-0.9-2.8-1.4-4.1l4.5-2l4.8-4.6l-2.4-5.3l-6.6,0.5
	l-4.5,2c-0.7-1.3-1.4-2.6-2.1-3.8l4-2.7l3.9-5.4l-3.3-4.8l-6.4,1.7l-4,2.8c-0.9-1.2-1.8-2.3-2.8-3.4l3.5-3.4l2.9-6l-4.1-4.2
	l-6.1,2.8l-3.5,3.4c-1.1-1-2.2-1.9-3.3-2.9l2.9-4l1.9-6.4l-4.7-3.4l-5.5,3.8l-2.9,4c-1.2-0.8-2.5-1.5-3.8-2.2l2.1-4.4l0.7-6.6
	l-5.2-2.5l-4.7,4.7l-2.1,4.4c-1.4-0.6-2.7-1.1-4.1-1.6l1.3-4.7l-0.4-6.7l-5.6-1.6l-3.9,5.4l-1.3,4.7c-1.4-0.3-2.9-0.6-4.3-0.8
	l0.5-4.9l-1.6-6.5l-5.8-0.6l-2.8,6l-0.5,4.9c-1.5-0.1-2.9-0.1-4.4-0.1l-0.4-4.9l-2.7-6.1L85.7,1l-1.8,6.4l0.4,4.9
	c-1.4,0.2-2.9,0.4-4.3,0.7l-1.2-4.7L75,2.7l-5.6,1.4l-0.6,6.6l1.2,4.7c-1.4,0.4-2.8,0.9-4.1,1.4l-2-4.5l-4.6-4.8l-5.3,2.4l0.5,6.6
	l2,4.5c-1.3,0.7-2.6,1.4-3.8,2.1l-2.8-4l-5.4-3.9l-4.8,3.3l1.7,6.4l2.8,4c-1.1,0.9-2.3,1.8-3.4,2.8l-3.4-3.5l-6-2.9l-4.2,4.1
	l2.8,6.1l3.4,3.5c-1,1.1-1.9,2.2-2.9,3.3l-4-2.9l-6.4-1.9l-3.4,4.7l3.8,5.5l4,2.9c-0.8,1.2-1.5,2.5-2.2,3.8l-4.4-2.1l-6.6-0.7
	l-2.5,5.2l4.7,4.7l4.4,2.1c-0.6,1.4-1.1,2.7-1.6,4.1l-4.7-1.3L4.8,67l-1.6,5.6l5.4,3.9l4.7,1.3c-0.3,1.4-0.6,2.9-0.8,4.3l-4.9-0.5
	l-6.5,1.6L0.7,89l6,2.8l4.9,0.5c-0.1,1.5-0.1,2.9-0.1,4.4l-4.9,0.4l-6.1,2.7l0.4,5.8l6.4,1.8l4.9-0.4c0.2,1.4,0.4,2.9,0.7,4.3
	l-4.7,1.2l-5.5,3.7l1.4,5.6l6.6,0.6l4.7-1.2c0.4,1.4,0.9,2.8,1.4,4.1l-4.5,2l-4.8,4.6l2.4,5.3l6.6-0.5l4.5-2
	c0.7,1.3,1.4,2.6,2.1,3.8l-4,2.8l-3.9,5.4l3.3,4.8l6.4-1.7l4-2.8c0.9,1.2,1.8,2.3,2.8,3.4l-3.5,3.4l-2.9,6l4.1,4.2l6.1-2.8l3.5-3.4
	c1.1,1,2.2,1.9,3.3,2.9l-2.9,4l-1.9,6.4l4.7,3.4l5.5-3.8l2.9-4c1.2,0.8,2.5,1.5,3.8,2.2l-2.1,4.4l-0.7,6.6l5.2,2.5l4.7-4.7l2.1-4.4
	c1.4,0.6,2.7,1.1,4.1,1.6l-1.3,4.7l0.4,6.7l5.6,1.6l3.9-5.4l1.3-4.7c1.4,0.3,2.9,0.6,4.3,0.8l-0.5,4.9l1.6,6.5l5.8,0.6l2.8-6
	l0.5-4.9c1.5,0.1,2.9,0.1,4.4,0.1l0.4,4.9l2.7,6.1l5.8-0.4l1.8-6.4L107,179c1.5-0.2,2.9-0.4,4.3-0.7l1.2,4.7l3.7,5.5l5.6-1.4
	l0.6-6.6l-1.2-4.7c1.4-0.4,2.8-0.9,4.1-1.4l2,4.5l4.6,4.8l5.3-2.4l-0.5-6.6l-2-4.5c1.3-0.7,2.6-1.4,3.8-2.1l2.8,4l5.4,3.9l4.8-3.3
	l-1.7-6.4l-2.8-4c1.2-0.9,2.3-1.8,3.4-2.8L154,162.9z M87.9,103.1c-4.2-4.3-4.1-11.2,0.2-15.5c4.3-4.2,11.2-4.1,15.5,0.2
	c4.2,4.3,4.1,11.2-0.2,15.5C99,107.6,92.1,107.5,87.9,103.1z M124.8,100.4c0.5-2.9,0.5-5.9,0.2-8.8l8.2-8c2.6,8.1,2.4,16.9-0.4,25
	L124.8,100.4z M100.5,66.4c-1.4-0.2-2.9-0.4-4.4-0.4c-1.5,0-3,0.1-4.5,0.3l-8-8.2c4-1.3,8.3-2,12.6-1.9c4.3,0.1,8.5,0.8,12.5,2.2
	L100.5,66.4z M66.6,90.9c-0.2,1.4-0.3,2.8-0.4,4.2c0,1.5,0.1,3,0.3,4.4l-8.2,8c-1.3-4-1.9-8.2-1.9-12.5c0.1-4.3,0.8-8.4,2.1-12.3
	L66.6,90.9z M91,124.6c2.8,0.4,5.7,0.5,8.5,0.1l8,8.2c-8,2.5-16.7,2.4-24.7-0.4L91,124.6z M152.7,129.1l-7.6-7.8
	c8-15.6,8.3-34.2,0.7-50l7.8-7.6C164.8,84,164.5,109,152.7,129.1z M129.1,38.6l-7.8,7.6c-15.6-8-34.2-8.3-50-0.7l-7.6-7.8
	C84,26.5,109,26.8,129.1,38.6z M38.6,62.2l7.6,7.8c-8,15.6-8.3,34.2-0.7,50l-7.8,7.6C26.5,107.2,26.8,82.2,38.6,62.2z M62.2,152.7
	l7.8-7.6c15.6,8,34.2,8.3,50,0.7l7.6,7.8C107.2,164.8,82.2,164.5,62.2,152.7z"/>
</svg>
