<?xml version="1.0" encoding="utf-8"?>
<!-- Generator: Adobe Illustrator 17.1.0, SVG Export Plug-In . SVG Version: 6.00 Build 0)  -->
<!DOCTYPE svg PUBLIC "-//W3C//DTD SVG 1.1//EN" "http://www.w3.org/Graphics/SVG/1.1/DTD/svg11.dtd">
<svg version="1.1" id="Слой_1" xmlns="http://www.w3.org/2000/svg" xmlns:xlink="http://www.w3.org/1999/xlink" x="0px" y="0px"
	 viewBox="0 0 166.6 166.6" enable-background="new 0 0 166.6 166.6" xml:space="preserve">
<g opacity="0.54">
	
		<linearGradient id="SVGID_1_" gradientUnits="userSpaceOnUse" x1="-575.2348" y1="659.2056" x2="-409.6065" y2="659.2056" gradientTransform="matrix(2.838720e-004 1 1 -2.838720e-004 -575.7553 575.9188)">
		<stop  offset="0" style="stop-color:#C6C6C6"/>
		<stop  offset="3.295243e-003" style="stop-color:#BEBEBE"/>
		<stop  offset="2.071793e-002" style="stop-color:#999898"/>
		<stop  offset="3.947986e-002" style="stop-color:#797777"/>
		<stop  offset="5.956119e-002" style="stop-color:#5E5C5C"/>
		<stop  offset="8.141900e-002" style="stop-color:#4A4848"/>
		<stop  offset="0.106" style="stop-color:#3C3939"/>
		<stop  offset="0.1354" style="stop-color:#343131"/>
		<stop  offset="0.1828" style="stop-color:#312E2E"/>
		<stop  offset="0.2261" style="stop-color:#373434"/>
		<stop  offset="0.2837" style="stop-color:#474545"/>
		<stop  offset="0.3493" style="stop-color:#636161"/>
		<stop  offset="0.421" style="stop-color:#888787"/>
		<stop  offset="0.4968" style="stop-color:#B8B8B8"/>
		<stop  offset="0.5161" style="stop-color:#C6C6C6"/>
		<stop  offset="0.7742" style="stop-color:#5B5A5A"/>
		<stop  offset="1" style="stop-color:#908E8E"/>
	</linearGradient>
	
		<linearGradient id="SVGID_2_" gradientUnits="userSpaceOnUse" x1="-575.7308" y1="659.2054" x2="-409.1105" y2="659.2054" gradientTransform="matrix(2.838720e-004 1 1 -2.838720e-004 -575.7553 575.9188)">
		<stop  offset="0" style="stop-color:#C6C6C6"/>
		<stop  offset="3.295243e-003" style="stop-color:#BEBEBE"/>
		<stop  offset="2.071793e-002" style="stop-color:#999898"/>
		<stop  offset="3.947986e-002" style="stop-color:#797777"/>
		<stop  offset="5.956119e-002" style="stop-color:#5E5C5C"/>
		<stop  offset="8.141900e-002" style="stop-color:#4A4848"/>
		<stop  offset="0.106" style="stop-color:#3C3939"/>
		<stop  offset="0.1354" style="stop-color:#343131"/>
		<stop  offset="0.1828" style="stop-color:#312E2E"/>
		<stop  offset="0.2261" style="stop-color:#373434"/>
		<stop  offset="0.2837" style="stop-color:#474545"/>
		<stop  offset="0.3493" style="stop-color:#636161"/>
		<stop  offset="0.421" style="stop-color:#888787"/>
		<stop  offset="0.4968" style="stop-color:#B8B8B8"/>
		<stop  offset="0.5161" style="stop-color:#C6C6C6"/>
		<stop  offset="0.7742" style="stop-color:#5B5A5A"/>
		<stop  offset="1" style="stop-color:#908E8E"/>
	</linearGradient>
	<path fill="url(#SVGID_1_)" stroke="url(#SVGID_2_)" stroke-width="0.9921" stroke-miterlimit="10" d="M166.1,85.2l0-3.7l-3.8,0
		c0-1.5-0.1-3-0.2-4.5l3.8-0.4l-0.4-3.7l-3.8,0.4c-0.2-1.5-0.4-3-0.7-4.5l3.7-0.8l-0.8-3.7l-3.7,0.8c-0.3-1.5-0.7-2.9-1.2-4.4
		l3.6-1.2l-1.2-3.6l-3.6,1.2c-0.5-1.4-1-2.8-1.6-4.2l3.4-1.5l-1.5-3.4l-3.4,1.5c-0.7-1.4-1.3-2.7-2.1-4l3.3-1.9l-1.9-3.2l-3.3,1.9
		c-0.8-1.3-1.6-2.6-2.5-3.8l3.1-2.2l-2.2-3l-3.1,2.2c-0.9-1.2-1.9-2.4-2.9-3.5l2.8-2.5l-2.5-2.8l-2.8,2.5c-1-1.1-2.1-2.2-3.2-3.2
		l2.5-2.8l-2.8-2.5l-2.5,2.8c-1.1-1-2.3-1.9-3.5-2.9l2.2-3.1l-3-2.2l-2.2,3.1c-1.2-0.9-2.5-1.7-3.8-2.5l1.9-3.3l-3.2-1.9l-1.9,3.3
		c-1.3-0.7-2.7-1.4-4-2.1l1.5-3.4l-3.4-1.5l-1.5,3.4c-1.4-0.6-2.8-1.1-4.2-1.6l1.2-3.6L107.1,4l-1.2,3.6c-1.4-0.4-2.9-0.8-4.4-1.2
		l0.8-3.7l-3.7-0.8l-0.8,3.7c-1.5-0.3-3-0.5-4.5-0.7l0.4-3.8l-3.7-0.4l-0.4,3.8c-1.5-0.1-3-0.2-4.5-0.2l0-3.8l-3.7,0l0,3.8
		c-1.5,0-3,0.1-4.5,0.2l-0.4-3.8l-3.7,0.4l0.4,3.8c-1.5,0.2-3,0.4-4.5,0.7l-0.8-3.7l-3.7,0.8L65,6.4c-1.5,0.4-2.9,0.7-4.4,1.2
		L59.5,4l-3.6,1.2l1.2,3.6c-1.4,0.5-2.8,1-4.2,1.6l-1.5-3.4l-3.4,1.5l1.5,3.4c-1.4,0.7-2.7,1.3-4,2.1l-1.9-3.3l-3.2,1.9l1.9,3.3
		c-1.3,0.8-2.5,1.6-3.8,2.5l-2.2-3.1l-3,2.2l2.2,3.1c-1.2,0.9-2.4,1.9-3.5,2.9l-2.5-2.8L26.5,23l2.5,2.8c-1.1,1-2.2,2.1-3.2,3.2
		L23,26.5l-2.5,2.8l2.8,2.5c-1,1.1-1.9,2.3-2.9,3.5l-3.1-2.2l-2.2,3l3.1,2.2c-0.9,1.2-1.7,2.5-2.5,3.8l-3.3-1.9l-1.9,3.2l3.3,1.9
		c-0.7,1.3-1.4,2.7-2.1,4l-3.4-1.5l-1.5,3.4l3.4,1.5c-0.6,1.4-1.1,2.8-1.6,4.2L5.1,56L4,59.5l3.6,1.2c-0.4,1.4-0.8,2.9-1.2,4.4
		l-3.7-0.8l-0.8,3.7l3.7,0.8c-0.3,1.5-0.5,3-0.7,4.5l-3.8-0.4l-0.4,3.7l3.8,0.4c-0.1,1.5-0.2,3-0.2,4.5l-3.8,0l0,3.7l3.8,0
		c0,1.5,0.1,3,0.2,4.5l-3.8,0.4l0.4,3.7l3.8-0.4c0.2,1.5,0.4,3,0.7,4.5l-3.7,0.8l0.8,3.7l3.7-0.8c0.4,1.5,0.7,2.9,1.2,4.4L4,107.1
		l1.2,3.6l3.6-1.2c0.5,1.4,1,2.8,1.6,4.2l-3.4,1.5l1.5,3.4l3.4-1.5c0.7,1.4,1.3,2.7,2.1,4l-3.3,1.9l1.9,3.2l3.3-1.9
		c0.8,1.3,1.6,2.5,2.5,3.8l-3.1,2.2l2.2,3l3.1-2.2c0.9,1.2,1.9,2.4,2.9,3.5l-2.8,2.5l2.5,2.8l2.8-2.5c1,1.1,2.1,2.2,3.2,3.2
		l-2.5,2.8l2.8,2.5l2.5-2.8c1.1,1,2.3,1.9,3.5,2.9l-2.2,3.1l3,2.2l2.2-3.1c1.2,0.9,2.5,1.7,3.8,2.5l-1.9,3.3l3.2,1.9l1.9-3.3
		c1.3,0.7,2.7,1.4,4,2.1l-1.5,3.4l3.4,1.5l1.5-3.4c1.4,0.6,2.8,1.1,4.2,1.6l-1.2,3.6l3.6,1.2l1.2-3.6c1.4,0.4,2.9,0.8,4.4,1.2
		l-0.8,3.7l3.7,0.8l0.8-3.7c1.5,0.3,3,0.5,4.5,0.7l-0.4,3.8l3.7,0.4l0.4-3.8c1.5,0.1,3,0.2,4.5,0.2l0,3.8l3.7,0l0-3.8
		c1.5,0,3-0.1,4.5-0.2l0.4,3.8l3.7-0.4l-0.4-3.8c1.5-0.2,3-0.4,4.5-0.7l0.8,3.7l3.7-0.8l-0.8-3.7c1.5-0.4,2.9-0.7,4.4-1.2l1.2,3.6
		l3.6-1.2l-1.2-3.6c1.4-0.5,2.8-1,4.2-1.6l1.5,3.4l3.4-1.5l-1.5-3.4c1.4-0.7,2.7-1.3,4-2.1l1.9,3.3l3.2-1.9l-1.9-3.3
		c1.3-0.8,2.5-1.6,3.8-2.5l2.2,3.1l3-2.2l-2.2-3.1c1.2-0.9,2.4-1.9,3.5-2.9l2.5,2.8l2.8-2.5l-2.5-2.8c1.1-1,2.2-2.1,3.2-3.2l2.8,2.5
		l2.5-2.8l-2.8-2.5c1-1.1,1.9-2.3,2.9-3.5l3.1,2.2l2.2-3l-3.1-2.2c0.9-1.2,1.7-2.5,2.5-3.8l3.3,1.9l1.9-3.2l-3.3-1.9
		c0.7-1.3,1.4-2.7,2.1-4l3.4,1.5l1.5-3.4l-3.4-1.5c0.6-1.4,1.1-2.8,1.6-4.2l3.6,1.2l1.2-3.6l-3.6-1.2c0.4-1.4,0.8-2.9,1.2-4.4
		l3.7,0.8l0.8-3.7l-3.7-0.8c0.3-1.5,0.5-3,0.7-4.5l3.8,0.4l0.4-3.7l-3.8-0.4c0.1-1.5,0.2-3,0.2-4.5L166.1,85.2z M86.6,14
		c16.6,0.8,31.7,7.4,43.3,17.9l-13.4,13.4c-8.1-7.1-18.5-11.6-29.9-12.4L86.6,14z M79.9,14l0,18.9C68.5,33.7,58.1,38.2,50,45.3
		L36.7,32C48.2,21.5,63.3,14.8,79.9,14z M31.9,36.7l13.4,13.4C38.2,58.2,33.7,68.6,32.9,80L14,80C14.8,63.4,21.5,48.3,31.9,36.7z
		 M32,129.9C21.5,118.4,14.8,103.3,14,86.7l18.9,0c0.8,11.4,5.3,21.8,12.4,29.9L32,129.9z M80,152.6c-16.6-0.8-31.7-7.4-43.3-17.9
		l13.4-13.4c8.1,7.1,18.5,11.6,29.9,12.4L80,152.6z M83.3,106.3c-12.7,0-23-10.3-23-23c0-12.7,10.3-23,23-23s23,10.3,23,23
		C106.3,96,96,106.3,83.3,106.3z M86.7,152.6l0-18.9c11.4-0.8,21.8-5.3,29.9-12.4l13.4,13.4C118.4,145.1,103.3,151.8,86.7,152.6z
		 M134.7,129.9l-13.4-13.4c7.1-8.1,11.6-18.5,12.4-29.9l18.9,0C151.8,103.3,145.2,118.4,134.7,129.9z M133.7,79.9
		c-0.8-11.4-5.3-21.8-12.4-29.9l13.4-13.4c10.5,11.5,17.1,26.6,17.9,43.3L133.7,79.9z M83.3,73.4c-5.4,0-9.9,4.4-9.9,9.9
		c0,5.4,4.4,9.9,9.9,9.9c5.5,0,9.9-4.4,9.9-9.9C93.2,77.9,88.8,73.4,83.3,73.4z"/>
	<g>
		
			<linearGradient id="SVGID_3_" gradientUnits="userSpaceOnUse" x1="-183.6508" y1="1639.5874" x2="-29.4118" y2="1639.5874" gradientTransform="matrix(-0.7073 -0.7069 0.7069 -0.7073 -1159.2421 1159.5122)">
			<stop  offset="0" style="stop-color:#C6C6C6"/>
			<stop  offset="4.328320e-002" style="stop-color:#AFAFAF"/>
			<stop  offset="0.1437" style="stop-color:#807E7E"/>
			<stop  offset="0.1935" style="stop-color:#6D6B6B"/>
			<stop  offset="0.2664" style="stop-color:#7C7A7A"/>
			<stop  offset="0.4067" style="stop-color:#A3A2A2"/>
			<stop  offset="0.5161" style="stop-color:#C6C6C6"/>
			<stop  offset="0.5667" style="stop-color:#C0C0C0"/>
			<stop  offset="0.6351" style="stop-color:#AFAFAF"/>
			<stop  offset="0.7137" style="stop-color:#939292"/>
			<stop  offset="0.7992" style="stop-color:#6C6B6B"/>
			<stop  offset="0.8172" style="stop-color:#636262"/>
			<stop  offset="1" style="stop-color:#908E8E"/>
		</linearGradient>
		<path fill="url(#SVGID_3_)" d="M48.3,48.4C67.6,29,99,29,118.3,48.3c19.3,19.3,19.3,50.6,0,69.9c-19.3,19.3-50.6,19.3-69.9,0
			C29,99,29,67.7,48.3,48.4z"/>
		<g>
			<g>
				<g opacity="0.4">
					<image overflow="visible" width="81" height="81" xlink:href="C1CE3E38.png"  transform="matrix(1 0 0 1 17.2955 67.6951)">
					</image>
				</g>
				<g>
					
						<linearGradient id="SVGID_4_" gradientUnits="userSpaceOnUse" x1="-114.8267" y1="1605.9615" x2="-120.6069" y2="1601.6221" gradientTransform="matrix(-0.7073 -0.7069 0.7069 -0.7073 -1159.2421 1159.5122)">
						<stop  offset="0" style="stop-color:#000000"/>
						<stop  offset="0.3009" style="stop-color:#030303"/>
						<stop  offset="0.5047" style="stop-color:#0C0C0C"/>
						<stop  offset="0.6798" style="stop-color:#1B1B1B"/>
						<stop  offset="0.8377" style="stop-color:#303030"/>
						<stop  offset="0.9844" style="stop-color:#4C4C4C"/>
						<stop  offset="0.9946" style="stop-color:#4E4E4E"/>
					</linearGradient>
					<path fill="url(#SVGID_4_)" d="M54.2,109.2c0.1,0.7,0.4,1.5,1,2.1c1.4,1.4,3.8,1.4,5.2,0c0.6-0.6,0.9-1.3,1-2.1
						c0.1-0.4,0.1-0.7,0-1.1c-0.1-0.8-0.4-1.5-1-2.1c-1.4-1.4-3.8-1.4-5.2,0c-0.6,0.6-0.9,1.3-1,2.1l0,0l0,0
						C54.2,108.5,54.2,108.9,54.2,109.2z"/>
					<image overflow="visible" width="9" height="4" xlink:href="C1CE3E39.png"  transform="matrix(1 0 0 1 53.2955 104.6951)">
					</image>
					<image overflow="visible" width="9" height="4" xlink:href="C1CE3E3F.png"  transform="matrix(1 0 0 1 53.2955 108.6951)">
					</image>
					<path fill="#FFFFFF" d="M54.3,109.5l7.1,0c0,0,0-0.1,0-0.1l-7.2,0C54.3,109.4,54.3,109.4,54.3,109.5z"/>
					<path fill="#FFFFFF" d="M54.3,108.1c0,0,0,0.1,0,0.1l7.2,0c0,0,0-0.1,0-0.1L54.3,108.1z"/>
					
						<linearGradient id="SVGID_5_" gradientUnits="userSpaceOnUse" x1="-125.8929" y1="1599.7744" x2="-119.0522" y2="1606.1921" gradientTransform="matrix(-0.7073 -0.7069 0.7069 -0.7073 -1161.9147 1155.3743)">
						<stop  offset="0" style="stop-color:#FFFFFF"/>
						<stop  offset="0.1169" style="stop-color:#F9F9F9"/>
						<stop  offset="0.2734" style="stop-color:#E8E8E8"/>
						<stop  offset="0.4523" style="stop-color:#CCCCCC"/>
						<stop  offset="0.6478" style="stop-color:#A5A5A5"/>
						<stop  offset="0.8544" style="stop-color:#747474"/>
						<stop  offset="0.9946" style="stop-color:#4E4E4E"/>
					</linearGradient>
					<path fill="url(#SVGID_5_)" d="M54.3,108.2L54.3,108.2c0.1,0.4,0.1,0.7,0,1.1l7.2,0c0.1-0.4,0.1-0.7,0-1.1L54.3,108.2
						L54.3,108.2z"/>
					
						<linearGradient id="SVGID_6_" gradientUnits="userSpaceOnUse" x1="-118.5077" y1="1603.2073" x2="-117.6143" y2="1604.1011" gradientTransform="matrix(-0.7073 -0.7069 0.7069 -0.7073 -1159.2421 1159.5122)">
						<stop  offset="0" style="stop-color:#000000"/>
						<stop  offset="1.849813e-002" style="stop-color:#0B0B0B"/>
						<stop  offset="7.129517e-002" style="stop-color:#232323"/>
						<stop  offset="0.1307" style="stop-color:#363636"/>
						<stop  offset="0.1997" style="stop-color:#444444"/>
						<stop  offset="0.2868" style="stop-color:#4C4C4C"/>
						<stop  offset="0.4516" style="stop-color:#4E4E4E"/>
						<stop  offset="0.5288" style="stop-color:#545454"/>
						<stop  offset="0.6312" style="stop-color:#656565"/>
						<stop  offset="0.7477" style="stop-color:#808080"/>
						<stop  offset="0.8739" style="stop-color:#A6A6A6"/>
						<stop  offset="1" style="stop-color:#D4D4D4"/>
					</linearGradient>
					<path fill="url(#SVGID_6_)" d="M54.3,108.2L54.3,108.2c0.1,0.4,0.1,0.7,0,1.1l7.2,0c0.1-0.4,0.1-0.7,0-1.1L54.3,108.2
						L54.3,108.2z"/>
				</g>
			</g>
			<g>
				<g opacity="0.4">
					<image overflow="visible" width="82" height="81" xlink:href="C1CE3E3A.png"  transform="matrix(1 0 0 1 42.2955 78.6951)">
					</image>
				</g>
				<g>
					
						<linearGradient id="SVGID_7_" gradientUnits="userSpaceOnUse" x1="-400.1735" y1="714.5569" x2="-405.9538" y2="710.2175" gradientTransform="matrix(-1 2.838720e-004 -2.838720e-004 -1 -319.9191 831.6079)">
						<stop  offset="0" style="stop-color:#000000"/>
						<stop  offset="0.3009" style="stop-color:#030303"/>
						<stop  offset="0.5047" style="stop-color:#0C0C0C"/>
						<stop  offset="0.6798" style="stop-color:#1B1B1B"/>
						<stop  offset="0.8377" style="stop-color:#303030"/>
						<stop  offset="0.9844" style="stop-color:#4C4C4C"/>
						<stop  offset="0.9946" style="stop-color:#4E4E4E"/>
					</linearGradient>
					<path fill="url(#SVGID_7_)" d="M81,122.3c0.6,0.5,1.4,0.7,2.2,0.7c2,0,3.7-1.7,3.7-3.7c0-0.8-0.3-1.6-0.7-2.2
						c-0.2-0.3-0.5-0.6-0.8-0.8c-0.6-0.5-1.4-0.7-2.2-0.7c-2,0-3.7,1.7-3.7,3.7c0,0.8,0.3,1.6,0.7,2.2l0,0l0,0
						C80.5,121.7,80.8,122,81,122.3z"/>
					<image overflow="visible" width="7" height="7" xlink:href="C1CE3E3B.png"  transform="matrix(1 0 0 1 79.2955 114.6951)">
					</image>
					<image overflow="visible" width="7" height="7" xlink:href="C1CE3E36.png"  transform="matrix(1 0 0 1 80.2955 116.6951)">
					</image>
					<path fill="#FFFFFF" d="M81.3,122.3l5-5.1c0,0,0-0.1-0.1-0.1l-5.1,5.1C81.2,122.3,81.2,122.3,81.3,122.3z"/>
					<path fill="#FFFFFF" d="M80.3,121.4c0,0,0,0.1,0.1,0.1l5.1-5.1c0,0-0.1,0-0.1-0.1L80.3,121.4z"/>
					
						<linearGradient id="SVGID_8_" gradientUnits="userSpaceOnUse" x1="-411.2415" y1="708.3675" x2="-404.3948" y2="714.7908" gradientTransform="matrix(-1 2.838720e-004 -2.838720e-004 -1 -324.7338 830.574)">
						<stop  offset="0" style="stop-color:#FFFFFF"/>
						<stop  offset="0.1169" style="stop-color:#F9F9F9"/>
						<stop  offset="0.2734" style="stop-color:#E8E8E8"/>
						<stop  offset="0.4523" style="stop-color:#CCCCCC"/>
						<stop  offset="0.6478" style="stop-color:#A5A5A5"/>
						<stop  offset="0.8544" style="stop-color:#747474"/>
						<stop  offset="0.9946" style="stop-color:#4E4E4E"/>
					</linearGradient>
					<path fill="url(#SVGID_8_)" d="M80.4,121.5L80.4,121.5c0.3,0.2,0.6,0.5,0.8,0.8l5.1-5.1c-0.2-0.3-0.5-0.6-0.8-0.8L80.4,121.5
						L80.4,121.5z"/>
					
						<linearGradient id="SVGID_9_" gradientUnits="userSpaceOnUse" x1="-403.8553" y1="711.8014" x2="-402.9617" y2="712.6954" gradientTransform="matrix(-1 2.838720e-004 -2.838720e-004 -1 -319.9191 831.6079)">
						<stop  offset="0" style="stop-color:#000000"/>
						<stop  offset="1.849813e-002" style="stop-color:#0B0B0B"/>
						<stop  offset="7.129517e-002" style="stop-color:#232323"/>
						<stop  offset="0.1307" style="stop-color:#363636"/>
						<stop  offset="0.1997" style="stop-color:#444444"/>
						<stop  offset="0.2868" style="stop-color:#4C4C4C"/>
						<stop  offset="0.4516" style="stop-color:#4E4E4E"/>
						<stop  offset="0.5288" style="stop-color:#545454"/>
						<stop  offset="0.6312" style="stop-color:#656565"/>
						<stop  offset="0.7477" style="stop-color:#808080"/>
						<stop  offset="0.8739" style="stop-color:#A6A6A6"/>
						<stop  offset="1" style="stop-color:#D4D4D4"/>
					</linearGradient>
					<path fill="url(#SVGID_9_)" d="M80.4,121.5L80.4,121.5c0.3,0.2,0.6,0.5,0.8,0.8l5.1-5.1c-0.2-0.3-0.5-0.6-0.8-0.8L80.4,121.5
						L80.4,121.5z"/>
				</g>
			</g>
			<g>
				<g opacity="0.4">
					<image overflow="visible" width="81" height="81" xlink:href="C1CE3E37.png"  transform="matrix(1 0 0 1 68.2955 67.6951)">
					</image>
				</g>
				<g>
					
						<linearGradient id="SVGID_10_" gradientUnits="userSpaceOnUse" x1="28.4406" y1="-117.3345" x2="22.6604" y2="-121.6739" gradientTransform="matrix(-0.7069 0.7073 -0.7073 -0.7069 41.8967 6.3332)">
						<stop  offset="0" style="stop-color:#000000"/>
						<stop  offset="0.3009" style="stop-color:#030303"/>
						<stop  offset="0.5047" style="stop-color:#0C0C0C"/>
						<stop  offset="0.6798" style="stop-color:#1B1B1B"/>
						<stop  offset="0.8377" style="stop-color:#303030"/>
						<stop  offset="0.9844" style="stop-color:#4C4C4C"/>
						<stop  offset="0.9946" style="stop-color:#4E4E4E"/>
					</linearGradient>
					<path fill="url(#SVGID_10_)" d="M109.2,112.5c0.8-0.1,1.5-0.4,2.1-1c1.4-1.4,1.4-3.8,0-5.2c-0.6-0.6-1.3-0.9-2.1-1
						c-0.4-0.1-0.7-0.1-1.1,0c-0.8,0.1-1.5,0.4-2.1,1c-1.4,1.4-1.4,3.8,0,5.2c0.6,0.6,1.3,0.9,2.1,1l0,0l0,0
						C108.5,112.4,108.9,112.4,109.2,112.5z"/>
					<image overflow="visible" width="4" height="8" xlink:href="C1CE3E48.png"  transform="matrix(1 0 0 1 104.2955 104.6951)">
					</image>
					<image overflow="visible" width="4" height="8" xlink:href="C1CE3E4B.png"  transform="matrix(1 0 0 1 109.2955 104.6951)">
					</image>
					<path fill="#FFFFFF" d="M109.5,112.3l0-7.1c0,0-0.1,0-0.1,0l0,7.2C109.4,112.4,109.4,112.3,109.5,112.3z"/>
					<path fill="#FFFFFF" d="M108.1,112.3c0,0,0.1,0,0.1,0l0-7.2c0,0-0.1,0-0.1,0L108.1,112.3z"/>
					
						<linearGradient id="SVGID_11_" gradientUnits="userSpaceOnUse" x1="17.3715" y1="-123.5256" x2="24.2231" y2="-117.0977" gradientTransform="matrix(-0.7069 0.7073 -0.7073 -0.7069 37.7607 9.0057)">
						<stop  offset="0" style="stop-color:#FFFFFF"/>
						<stop  offset="0.1169" style="stop-color:#F9F9F9"/>
						<stop  offset="0.2734" style="stop-color:#E8E8E8"/>
						<stop  offset="0.4523" style="stop-color:#CCCCCC"/>
						<stop  offset="0.6478" style="stop-color:#A5A5A5"/>
						<stop  offset="0.8544" style="stop-color:#747474"/>
						<stop  offset="0.9946" style="stop-color:#4E4E4E"/>
					</linearGradient>
					<path fill="url(#SVGID_11_)" d="M108.2,112.4L108.2,112.4c0.4-0.1,0.7-0.1,1.1,0l0-7.2c-0.4-0.1-0.7-0.1-1.1,0L108.2,112.4
						L108.2,112.4z"/>
					
						<linearGradient id="SVGID_12_" gradientUnits="userSpaceOnUse" x1="24.7595" y1="-120.09" x2="25.6529" y2="-119.1963" gradientTransform="matrix(-0.7069 0.7073 -0.7073 -0.7069 41.8967 6.3332)">
						<stop  offset="0" style="stop-color:#000000"/>
						<stop  offset="1.849813e-002" style="stop-color:#0B0B0B"/>
						<stop  offset="7.129517e-002" style="stop-color:#232323"/>
						<stop  offset="0.1307" style="stop-color:#363636"/>
						<stop  offset="0.1997" style="stop-color:#444444"/>
						<stop  offset="0.2868" style="stop-color:#4C4C4C"/>
						<stop  offset="0.4516" style="stop-color:#4E4E4E"/>
						<stop  offset="0.5288" style="stop-color:#545454"/>
						<stop  offset="0.6312" style="stop-color:#656565"/>
						<stop  offset="0.7477" style="stop-color:#808080"/>
						<stop  offset="0.8739" style="stop-color:#A6A6A6"/>
						<stop  offset="1" style="stop-color:#D4D4D4"/>
					</linearGradient>
					<path fill="url(#SVGID_12_)" d="M108.2,112.4L108.2,112.4c0.4-0.1,0.7-0.1,1.1,0l0-7.2c-0.4-0.1-0.7-0.1-1.1,0L108.2,112.4
						L108.2,112.4z"/>
				</g>
			</g>
			<g>
				<g opacity="0.4">
					<image overflow="visible" width="81" height="81" xlink:href="2CEFE67.png"  transform="matrix(1 0 0 1 68.2955 17.6951)">
					</image>
				</g>
				<g>
					
						<linearGradient id="SVGID_13_" gradientUnits="userSpaceOnUse" x1="1751.7345" y1="25.9319" x2="1745.9546" y2="21.5927" gradientTransform="matrix(0.7073 0.7069 -0.7069 0.7073 -1111.2804 -1194.8032)">
						<stop  offset="0" style="stop-color:#000000"/>
						<stop  offset="0.3009" style="stop-color:#030303"/>
						<stop  offset="0.5047" style="stop-color:#0C0C0C"/>
						<stop  offset="0.6798" style="stop-color:#1B1B1B"/>
						<stop  offset="0.8377" style="stop-color:#303030"/>
						<stop  offset="0.9844" style="stop-color:#4C4C4C"/>
						<stop  offset="0.9946" style="stop-color:#4E4E4E"/>
					</linearGradient>
					<path fill="url(#SVGID_13_)" d="M112.5,57.4c-0.1-0.8-0.4-1.5-1-2.1c-1.4-1.4-3.8-1.4-5.2,0c-0.6,0.6-0.9,1.3-1,2.1
						c-0.1,0.4-0.1,0.7,0,1.1c0.1,0.8,0.4,1.5,1,2.1c1.4,1.4,3.8,1.4,5.2,0c0.6-0.6,0.9-1.3,1-2.1l0,0l0,0
						C112.4,58.1,112.4,57.8,112.5,57.4z"/>
					<image overflow="visible" width="9" height="4" xlink:href="2CEFE65.png"  transform="matrix(1 0 0 1 104.2955 57.6951)">
					</image>
					<image overflow="visible" width="9" height="4" xlink:href="2CEFE63.png"  transform="matrix(1 0 0 1 104.2955 53.6951)">
					</image>
					<path fill="#FFFFFF" d="M112.3,57.2l-7.1,0c0,0,0,0.1,0,0.1l7.2,0C112.4,57.3,112.3,57.2,112.3,57.2z"/>
					<path fill="#FFFFFF" d="M112.3,58.5c0,0,0-0.1,0-0.1l-7.2,0c0,0,0,0.1,0,0.1L112.3,58.5z"/>
					
						<linearGradient id="SVGID_14_" gradientUnits="userSpaceOnUse" x1="1740.6707" y1="19.7452" x2="1747.5114" y2="26.1629" gradientTransform="matrix(0.7073 0.7069 -0.7069 0.7073 -1108.6083 -1190.6672)">
						<stop  offset="0" style="stop-color:#FFFFFF"/>
						<stop  offset="0.1169" style="stop-color:#F9F9F9"/>
						<stop  offset="0.2734" style="stop-color:#E8E8E8"/>
						<stop  offset="0.4523" style="stop-color:#CCCCCC"/>
						<stop  offset="0.6478" style="stop-color:#A5A5A5"/>
						<stop  offset="0.8544" style="stop-color:#747474"/>
						<stop  offset="0.9946" style="stop-color:#4E4E4E"/>
					</linearGradient>
					<path fill="url(#SVGID_14_)" d="M112.4,58.4L112.4,58.4c-0.1-0.4-0.1-0.7,0-1.1l-7.2,0c-0.1,0.4-0.1,0.7,0,1.1L112.4,58.4
						L112.4,58.4z"/>
					
						<linearGradient id="SVGID_15_" gradientUnits="userSpaceOnUse" x1="1748.0525" y1="23.1763" x2="1748.9473" y2="24.0714" gradientTransform="matrix(0.7073 0.7069 -0.7069 0.7073 -1111.2804 -1194.8032)">
						<stop  offset="0" style="stop-color:#000000"/>
						<stop  offset="1.849813e-002" style="stop-color:#0B0B0B"/>
						<stop  offset="7.129517e-002" style="stop-color:#232323"/>
						<stop  offset="0.1307" style="stop-color:#363636"/>
						<stop  offset="0.1997" style="stop-color:#444444"/>
						<stop  offset="0.2868" style="stop-color:#4C4C4C"/>
						<stop  offset="0.4516" style="stop-color:#4E4E4E"/>
						<stop  offset="0.5288" style="stop-color:#545454"/>
						<stop  offset="0.6312" style="stop-color:#656565"/>
						<stop  offset="0.7477" style="stop-color:#808080"/>
						<stop  offset="0.8739" style="stop-color:#A6A6A6"/>
						<stop  offset="1" style="stop-color:#D4D4D4"/>
					</linearGradient>
					<path fill="url(#SVGID_15_)" d="M112.4,58.4L112.4,58.4c-0.1-0.4-0.1-0.7,0-1.1l-7.2,0c-0.1,0.4-0.1,0.7,0,1.1L112.4,58.4
						L112.4,58.4z"/>
				</g>
			</g>
			<g>
				<g opacity="0.4">
					<image overflow="visible" width="82" height="81" xlink:href="2CEFE7D.png"  transform="matrix(1 0 0 1 42.2955 6.6951)">
					</image>
				</g>
				<g>
					
						<linearGradient id="SVGID_16_" gradientUnits="userSpaceOnUse" x1="2036.9095" y1="917.1643" x2="2031.1292" y2="912.8249" gradientTransform="matrix(1 -2.838720e-004 2.838720e-004 1 -1950.6017 -866.9008)">
						<stop  offset="0" style="stop-color:#000000"/>
						<stop  offset="0.3009" style="stop-color:#030303"/>
						<stop  offset="0.5047" style="stop-color:#0C0C0C"/>
						<stop  offset="0.6798" style="stop-color:#1B1B1B"/>
						<stop  offset="0.8377" style="stop-color:#303030"/>
						<stop  offset="0.9844" style="stop-color:#4C4C4C"/>
						<stop  offset="0.9946" style="stop-color:#4E4E4E"/>
					</linearGradient>
					<path fill="url(#SVGID_16_)" d="M85.6,44.4c-0.6-0.5-1.4-0.7-2.2-0.7c-2,0-3.7,1.7-3.7,3.7c0,0.8,0.3,1.6,0.7,2.2
						c0.2,0.3,0.5,0.6,0.8,0.8c0.6,0.5,1.4,0.7,2.2,0.7c2,0,3.7-1.7,3.7-3.7c0-0.8-0.3-1.6-0.7-2.2l0,0l0,0
						C86.1,44.9,85.8,44.7,85.6,44.4z"/>
					<image overflow="visible" width="7" height="7" xlink:href="2CEFE7F.png"  transform="matrix(1 0 0 1 80.2955 44.6951)">
					</image>
					<image overflow="visible" width="7" height="7" xlink:href="2CEFE62.png"  transform="matrix(1 0 0 1 79.2955 42.6951)">
					</image>
					<path fill="#FFFFFF" d="M85.3,44.3l-5,5.1c0,0,0,0.1,0.1,0.1l5.1-5.1C85.4,44.4,85.4,44.3,85.3,44.3z"/>
					<path fill="#FFFFFF" d="M86.3,45.3c0,0,0-0.1-0.1-0.1l-5.1,5.1c0,0,0.1,0,0.1,0.1L86.3,45.3z"/>
					
						<linearGradient id="SVGID_17_" gradientUnits="userSpaceOnUse" x1="2025.845" y1="910.9776" x2="2032.6857" y2="917.3953" gradientTransform="matrix(1 -2.838720e-004 2.838720e-004 1 -1945.787 -865.8651)">
						<stop  offset="0" style="stop-color:#FFFFFF"/>
						<stop  offset="0.1169" style="stop-color:#F9F9F9"/>
						<stop  offset="0.2734" style="stop-color:#E8E8E8"/>
						<stop  offset="0.4523" style="stop-color:#CCCCCC"/>
						<stop  offset="0.6478" style="stop-color:#A5A5A5"/>
						<stop  offset="0.8544" style="stop-color:#747474"/>
						<stop  offset="0.9946" style="stop-color:#4E4E4E"/>
					</linearGradient>
					<path fill="url(#SVGID_17_)" d="M86.2,45.2L86.2,45.2c-0.3-0.2-0.6-0.5-0.8-0.8l-5.1,5.1c0.2,0.3,0.5,0.6,0.8,0.8L86.2,45.2
						L86.2,45.2z"/>
					
						<linearGradient id="SVGID_18_" gradientUnits="userSpaceOnUse" x1="2033.2279" y1="914.4093" x2="2034.1215" y2="915.3033" gradientTransform="matrix(1 -2.838720e-004 2.838720e-004 1 -1950.6017 -866.9008)">
						<stop  offset="0" style="stop-color:#000000"/>
						<stop  offset="1.849813e-002" style="stop-color:#0B0B0B"/>
						<stop  offset="7.129517e-002" style="stop-color:#232323"/>
						<stop  offset="0.1307" style="stop-color:#363636"/>
						<stop  offset="0.1997" style="stop-color:#444444"/>
						<stop  offset="0.2868" style="stop-color:#4C4C4C"/>
						<stop  offset="0.4516" style="stop-color:#4E4E4E"/>
						<stop  offset="0.5288" style="stop-color:#545454"/>
						<stop  offset="0.6312" style="stop-color:#656565"/>
						<stop  offset="0.7477" style="stop-color:#808080"/>
						<stop  offset="0.8739" style="stop-color:#A6A6A6"/>
						<stop  offset="1" style="stop-color:#D4D4D4"/>
					</linearGradient>
					<path fill="url(#SVGID_18_)" d="M86.2,45.2L86.2,45.2c-0.3-0.2-0.6-0.5-0.8-0.8l-5.1,5.1c0.2,0.3,0.5,0.6,0.8,0.8L86.2,45.2
						L86.2,45.2z"/>
				</g>
			</g>
			<g>
				<g opacity="0.4">
					<image overflow="visible" width="81" height="81" xlink:href="2CEFE61.png"  transform="matrix(1 0 0 1 17.2955 17.6951)">
					</image>
				</g>
				<g>
					
						<linearGradient id="SVGID_19_" gradientUnits="userSpaceOnUse" x1="1608.4668" y1="1749.2268" x2="1602.6865" y2="1744.8875" gradientTransform="matrix(0.7069 -0.7073 0.7073 0.7069 -2312.4172 -41.6266)">
						<stop  offset="0" style="stop-color:#000000"/>
						<stop  offset="0.3009" style="stop-color:#030303"/>
						<stop  offset="0.5047" style="stop-color:#0C0C0C"/>
						<stop  offset="0.6798" style="stop-color:#1B1B1B"/>
						<stop  offset="0.8377" style="stop-color:#303030"/>
						<stop  offset="0.9844" style="stop-color:#4C4C4C"/>
						<stop  offset="0.9946" style="stop-color:#4E4E4E"/>
					</linearGradient>
					<path fill="url(#SVGID_19_)" d="M57.4,54.2c-0.7,0.1-1.5,0.4-2.1,1c-1.4,1.4-1.4,3.8,0,5.2c0.6,0.6,1.3,0.9,2.1,1
						c0.4,0.1,0.7,0.1,1.1,0c0.8-0.1,1.5-0.4,2.1-1c1.4-1.4,1.4-3.8,0-5.2c-0.6-0.6-1.3-0.9-2.1-1l0,0l0,0
						C58.1,54.2,57.8,54.2,57.4,54.2z"/>
					<image overflow="visible" width="4" height="8" xlink:href="2CEFE66.png"  transform="matrix(1 0 0 1 58.2955 53.6951)">
					</image>
					<image overflow="visible" width="5" height="8" xlink:href="2CEFE60.png"  transform="matrix(1 0 0 1 53.2955 53.6951)">
					</image>
					<path fill="#FFFFFF" d="M57.2,54.3l0,7.1c0,0,0.1,0,0.1,0l0-7.2C57.3,54.3,57.2,54.3,57.2,54.3z"/>
					<path fill="#FFFFFF" d="M58.5,54.3c0,0-0.1,0-0.1,0l0,7.2c0,0,0.1,0,0.1,0L58.5,54.3z"/>
					
						<linearGradient id="SVGID_20_" gradientUnits="userSpaceOnUse" x1="1597.4073" y1="1743.043" x2="1604.2396" y2="1749.4529" gradientTransform="matrix(0.7069 -0.7073 0.7073 0.7069 -2308.2813 -44.2992)">
						<stop  offset="0" style="stop-color:#FFFFFF"/>
						<stop  offset="0.1169" style="stop-color:#F9F9F9"/>
						<stop  offset="0.2734" style="stop-color:#E8E8E8"/>
						<stop  offset="0.4523" style="stop-color:#CCCCCC"/>
						<stop  offset="0.6478" style="stop-color:#A5A5A5"/>
						<stop  offset="0.8544" style="stop-color:#747474"/>
						<stop  offset="0.9946" style="stop-color:#4E4E4E"/>
					</linearGradient>
					<path fill="url(#SVGID_20_)" d="M58.4,54.3L58.4,54.3c-0.4,0.1-0.7,0.1-1.1,0l0,7.2c0.4,0.1,0.7,0.1,1.1,0L58.4,54.3L58.4,54.3
						z"/>
					
						<linearGradient id="SVGID_21_" gradientUnits="userSpaceOnUse" x1="1604.7864" y1="1746.4712" x2="1605.6797" y2="1747.3649" gradientTransform="matrix(0.7069 -0.7073 0.7073 0.7069 -2312.4172 -41.6266)">
						<stop  offset="0" style="stop-color:#000000"/>
						<stop  offset="1.849813e-002" style="stop-color:#0B0B0B"/>
						<stop  offset="7.129517e-002" style="stop-color:#232323"/>
						<stop  offset="0.1307" style="stop-color:#363636"/>
						<stop  offset="0.1997" style="stop-color:#444444"/>
						<stop  offset="0.2868" style="stop-color:#4C4C4C"/>
						<stop  offset="0.4516" style="stop-color:#4E4E4E"/>
						<stop  offset="0.5288" style="stop-color:#545454"/>
						<stop  offset="0.6312" style="stop-color:#656565"/>
						<stop  offset="0.7477" style="stop-color:#808080"/>
						<stop  offset="0.8739" style="stop-color:#A6A6A6"/>
						<stop  offset="1" style="stop-color:#D4D4D4"/>
					</linearGradient>
					<path fill="url(#SVGID_21_)" d="M58.4,54.3L58.4,54.3c-0.4,0.1-0.7,0.1-1.1,0l0,7.2c0.4,0.1,0.7,0.1,1.1,0L58.4,54.3L58.4,54.3
						z"/>
				</g>
			</g>
			<g>
				<g opacity="0.4">
					<image overflow="visible" width="81" height="81" xlink:href="2CEFE6E.png"  transform="matrix(1 0 0 1 7.2955 42.6951)">
					</image>
				</g>
				<g>
					
						<linearGradient id="SVGID_22_" gradientUnits="userSpaceOnUse" x1="717.061" y1="2034.4021" x2="711.2808" y2="2030.0627" gradientTransform="matrix(-2.838721e-004 -1 1 -2.838721e-004 -1984.5148 797.6928)">
						<stop  offset="0" style="stop-color:#000000"/>
						<stop  offset="0.3009" style="stop-color:#030303"/>
						<stop  offset="0.5047" style="stop-color:#0C0C0C"/>
						<stop  offset="0.6798" style="stop-color:#1B1B1B"/>
						<stop  offset="0.8377" style="stop-color:#303030"/>
						<stop  offset="0.9844" style="stop-color:#4C4C4C"/>
						<stop  offset="0.9946" style="stop-color:#4E4E4E"/>
					</linearGradient>
					<path fill="url(#SVGID_22_)" d="M44.4,81c-0.5,0.6-0.7,1.4-0.7,2.2c0,2,1.7,3.7,3.7,3.7c0.8,0,1.6-0.3,2.2-0.7
						c0.3-0.2,0.6-0.5,0.8-0.8c0.4-0.6,0.7-1.4,0.7-2.2c0-2-1.7-3.7-3.7-3.7c-0.8,0-1.6,0.3-2.2,0.7l0,0l0,0
						C44.9,80.5,44.7,80.8,44.4,81z"/>
					<image overflow="visible" width="7" height="7" xlink:href="2CEFE86.png"  transform="matrix(1 0 0 1 44.2955 78.6951)">
					</image>
					<image overflow="visible" width="7" height="7" xlink:href="2CEFE85.png"  transform="matrix(1 0 0 1 43.2955 80.6951)">
					</image>
					<path fill="#FFFFFF" d="M44.3,81.3l5.1,5c0,0,0.1,0,0.1-0.1l-5.1-5.1C44.3,81.2,44.3,81.2,44.3,81.3z"/>
					<path fill="#FFFFFF" d="M45.3,80.3c0,0-0.1,0-0.1,0.1l5.1,5.1c0,0,0-0.1,0.1-0.1L45.3,80.3z"/>
					
						<linearGradient id="SVGID_23_" gradientUnits="userSpaceOnUse" x1="705.9995" y1="2028.2166" x2="712.8386" y2="2034.6328" gradientTransform="matrix(-2.838721e-004 -1 1 -2.838721e-004 -1983.481 792.8801)">
						<stop  offset="0" style="stop-color:#FFFFFF"/>
						<stop  offset="0.1169" style="stop-color:#F9F9F9"/>
						<stop  offset="0.2734" style="stop-color:#E8E8E8"/>
						<stop  offset="0.4523" style="stop-color:#CCCCCC"/>
						<stop  offset="0.6478" style="stop-color:#A5A5A5"/>
						<stop  offset="0.8544" style="stop-color:#747474"/>
						<stop  offset="0.9946" style="stop-color:#4E4E4E"/>
					</linearGradient>
					<path fill="url(#SVGID_23_)" d="M45.2,80.4L45.2,80.4c-0.2,0.3-0.5,0.6-0.8,0.8l5.1,5.1c0.3-0.2,0.6-0.5,0.8-0.8L45.2,80.4
						L45.2,80.4z"/>
					
						<linearGradient id="SVGID_24_" gradientUnits="userSpaceOnUse" x1="713.3801" y1="2031.6467" x2="714.2737" y2="2032.5408" gradientTransform="matrix(-2.838721e-004 -1 1 -2.838721e-004 -1984.5148 797.6928)">
						<stop  offset="0" style="stop-color:#000000"/>
						<stop  offset="1.849813e-002" style="stop-color:#0B0B0B"/>
						<stop  offset="7.129517e-002" style="stop-color:#232323"/>
						<stop  offset="0.1307" style="stop-color:#363636"/>
						<stop  offset="0.1997" style="stop-color:#444444"/>
						<stop  offset="0.2868" style="stop-color:#4C4C4C"/>
						<stop  offset="0.4516" style="stop-color:#4E4E4E"/>
						<stop  offset="0.5288" style="stop-color:#545454"/>
						<stop  offset="0.6312" style="stop-color:#656565"/>
						<stop  offset="0.7477" style="stop-color:#808080"/>
						<stop  offset="0.8739" style="stop-color:#A6A6A6"/>
						<stop  offset="1" style="stop-color:#D4D4D4"/>
					</linearGradient>
					<path fill="url(#SVGID_24_)" d="M45.2,80.4L45.2,80.4c-0.2,0.3-0.5,0.6-0.8,0.8l5.1,5.1c0.3-0.2,0.6-0.5,0.8-0.8L45.2,80.4
						L45.2,80.4z"/>
				</g>
			</g>
			<g>
				<g opacity="0.4">
					<image overflow="visible" width="81" height="81" xlink:href="2CEFE82.png"  transform="matrix(1 0 0 1 78.2955 42.6951)">
					</image>
				</g>
				<g>
					
						<linearGradient id="SVGID_25_" gradientUnits="userSpaceOnUse" x1="717.0612" y1="2105.9307" x2="711.2814" y2="2101.5916" gradientTransform="matrix(-2.838721e-004 -1 1 -2.838721e-004 -1984.5148 797.6928)">
						<stop  offset="0" style="stop-color:#000000"/>
						<stop  offset="0.3009" style="stop-color:#030303"/>
						<stop  offset="0.5047" style="stop-color:#0C0C0C"/>
						<stop  offset="0.6798" style="stop-color:#1B1B1B"/>
						<stop  offset="0.8377" style="stop-color:#303030"/>
						<stop  offset="0.9844" style="stop-color:#4C4C4C"/>
						<stop  offset="0.9946" style="stop-color:#4E4E4E"/>
					</linearGradient>
					<path fill="url(#SVGID_25_)" d="M115.9,81c-0.5,0.6-0.7,1.4-0.7,2.2c0,2,1.7,3.7,3.7,3.7c0.8,0,1.6-0.3,2.2-0.7
						c0.3-0.2,0.6-0.5,0.8-0.8c0.4-0.6,0.7-1.4,0.7-2.2c0-2-1.7-3.7-3.7-3.7c-0.8,0-1.6,0.3-2.2,0.7l0,0l0,0
						C116.5,80.5,116.2,80.8,115.9,81z"/>
					<image overflow="visible" width="7" height="7" xlink:href="2CEFE8D.png"  transform="matrix(1 0 0 1 116.2955 78.6951)">
					</image>
					<image overflow="visible" width="7" height="7" xlink:href="2CEFE8E.png"  transform="matrix(1 0 0 1 114.2955 80.6951)">
					</image>
					<path fill="#FFFFFF" d="M115.8,81.3l5.1,5c0,0,0.1,0,0.1-0.1l-5.1-5.1C115.9,81.2,115.9,81.2,115.8,81.3z"/>
					<path fill="#FFFFFF" d="M116.8,80.3c0,0-0.1,0-0.1,0.1l5.1,5.1c0,0,0-0.1,0.1-0.1L116.8,80.3z"/>
					
						<linearGradient id="SVGID_26_" gradientUnits="userSpaceOnUse" x1="705.9984" y1="2099.7446" x2="712.839" y2="2106.1621" gradientTransform="matrix(-2.838721e-004 -1 1 -2.838721e-004 -1983.481 792.8801)">
						<stop  offset="0" style="stop-color:#FFFFFF"/>
						<stop  offset="0.1169" style="stop-color:#F9F9F9"/>
						<stop  offset="0.2734" style="stop-color:#E8E8E8"/>
						<stop  offset="0.4523" style="stop-color:#CCCCCC"/>
						<stop  offset="0.6478" style="stop-color:#A5A5A5"/>
						<stop  offset="0.8544" style="stop-color:#747474"/>
						<stop  offset="0.9946" style="stop-color:#4E4E4E"/>
					</linearGradient>
					<path fill="url(#SVGID_26_)" d="M116.7,80.4L116.7,80.4c-0.2,0.3-0.5,0.6-0.8,0.8l5.1,5.1c0.3-0.2,0.6-0.5,0.8-0.8L116.7,80.4
						L116.7,80.4z"/>
					
						<linearGradient id="SVGID_27_" gradientUnits="userSpaceOnUse" x1="713.3807" y1="2103.1758" x2="714.2736" y2="2104.0691" gradientTransform="matrix(-2.838721e-004 -1 1 -2.838721e-004 -1984.5148 797.6928)">
						<stop  offset="0" style="stop-color:#000000"/>
						<stop  offset="1.849813e-002" style="stop-color:#0B0B0B"/>
						<stop  offset="7.129517e-002" style="stop-color:#232323"/>
						<stop  offset="0.1307" style="stop-color:#363636"/>
						<stop  offset="0.1997" style="stop-color:#444444"/>
						<stop  offset="0.2868" style="stop-color:#4C4C4C"/>
						<stop  offset="0.4516" style="stop-color:#4E4E4E"/>
						<stop  offset="0.5288" style="stop-color:#545454"/>
						<stop  offset="0.6312" style="stop-color:#656565"/>
						<stop  offset="0.7477" style="stop-color:#808080"/>
						<stop  offset="0.8739" style="stop-color:#A6A6A6"/>
						<stop  offset="1" style="stop-color:#D4D4D4"/>
					</linearGradient>
					<path fill="url(#SVGID_27_)" d="M116.7,80.4L116.7,80.4c-0.2,0.3-0.5,0.6-0.8,0.8l5.1,5.1c0.3-0.2,0.6-0.5,0.8-0.8L116.7,80.4
						L116.7,80.4z"/>
				</g>
			</g>
		</g>
	</g>
</g>
</svg>
