<?xml version="1.0" encoding="utf-8"?>
<!-- Generator: Adobe Illustrator 17.1.0, SVG Export Plug-In . SVG Version: 6.00 Build 0)  -->
<!DOCTYPE svg PUBLIC "-//W3C//DTD SVG 1.1//EN" "http://www.w3.org/Graphics/SVG/1.1/DTD/svg11.dtd">
<svg version="1.1" id="Слой_1" xmlns="http://www.w3.org/2000/svg" xmlns:xlink="http://www.w3.org/1999/xlink" x="0px" y="0px"
	 viewBox="0 0 132 132" enable-background="new 0 0 132 132" xml:space="preserve">
<g opacity="0.54">
	
		<linearGradient id="SVGID_1_" gradientUnits="userSpaceOnUse" x1="-593.0131" y1="642.1148" x2="-399.3788" y2="642.1148" gradientTransform="matrix(2.838720e-004 1 1 -2.838720e-004 -576.3505 576.5142)">
		<stop  offset="0" style="stop-color:#C6C6C6"/>
		<stop  offset="3.295243e-003" style="stop-color:#BEBEBE"/>
		<stop  offset="2.071793e-002" style="stop-color:#999898"/>
		<stop  offset="3.947986e-002" style="stop-color:#797777"/>
		<stop  offset="5.956119e-002" style="stop-color:#5E5C5C"/>
		<stop  offset="8.141900e-002" style="stop-color:#4A4848"/>
		<stop  offset="0.106" style="stop-color:#3C3939"/>
		<stop  offset="0.1354" style="stop-color:#343131"/>
		<stop  offset="0.1828" style="stop-color:#312E2E"/>
		<stop  offset="0.2261" style="stop-color:#373434"/>
		<stop  offset="0.2837" style="stop-color:#474545"/>
		<stop  offset="0.3493" style="stop-color:#636161"/>
		<stop  offset="0.421" style="stop-color:#888787"/>
		<stop  offset="0.4968" style="stop-color:#B8B8B8"/>
		<stop  offset="0.5161" style="stop-color:#C6C6C6"/>
		<stop  offset="0.7742" style="stop-color:#5B5A5A"/>
		<stop  offset="1" style="stop-color:#908E8E"/>
	</linearGradient>
	<path fill="url(#SVGID_1_)" d="M17.8,56.9c-0.6,3.5-0.9,6.9-0.7,10.4l-4.8,0.9l-9,6l0.9,5.5l10.4,2.8l5.1-1
		c1.1,3.3,2.6,6.4,4.4,9.4l-3.7,3.1l-4.9,9.7l3.4,4.3l10.5-2.7l4-3.4c1.1,0.9,2.2,1.8,3.3,2.7c1.7,1.2,3.4,2.3,5.2,3.3l-1.7,4.5
		l0.5,10.8l5.1,2.1l7.8-7.5l1.8-4.9c4.4,0.9,8.8,1.2,13.2,1l1,4.7l6.3,8.9l5.4-1l2.5-10.5l-1.1-5.1c3.2-1.2,6.4-2.8,9.3-4.7l3.2,3.6
		l9.8,4.6l4.2-3.6l-3-10.4l-3.5-3.9c0.6-0.7,1.2-1.5,1.8-2.3c1.5-2.1,2.9-4.2,4-6.4l4.6,1.6l10.8-0.8l1.9-5.2l-7.7-7.6l-4.9-1.7
		c0.6-3.5,0.9-6.9,0.7-10.4l4.8-0.9l9-6l-0.9-5.5l-10.4-2.8l-5.1,1c-1.1-3.3-2.6-6.4-4.5-9.4l3.7-3.1l4.9-9.7l-3.4-4.3l-10.5,2.7
		l-4,3.4c-1.1-0.9-2.2-1.8-3.3-2.7c-1.7-1.2-3.4-2.3-5.2-3.3l1.7-4.5L90.5,7.8l-5.1-2.1l-7.8,7.5l-1.8,4.9c-4.4-0.9-8.8-1.2-13.2-1
		l-1-4.7l-6.3-8.9l-5.4,1l-2.5,10.5l1.1,5.1c-3.2,1.2-6.4,2.8-9.3,4.7l-3.2-3.6l-9.8-4.6l-4.2,3.6l3,10.4l3.5,3.9
		c-0.6,0.7-1.2,1.5-1.8,2.3c-1.5,2.1-2.9,4.2-4,6.4l-4.6-1.6L7.1,42.4l-1.9,5.2l7.7,7.6L17.8,56.9z M65.6,33.8
		c17.6,0,31.8,14.2,31.8,31.8c0,17.6-14.2,31.8-31.8,31.8c-17.6,0-31.8-14.2-31.8-31.8C33.8,48,48,33.8,65.6,33.8z"/>
	
		<linearGradient id="SVGID_2_" gradientUnits="userSpaceOnUse" x1="-580.7722" y1="572.0558" x2="-415.9344" y2="736.8937" gradientTransform="matrix(2.838720e-004 1 1 -2.838720e-004 -576.3505 576.5142)">
		<stop  offset="0" style="stop-color:#C6C6C6"/>
		<stop  offset="4.328320e-002" style="stop-color:#AFAFAF"/>
		<stop  offset="0.1437" style="stop-color:#807E7E"/>
		<stop  offset="0.1935" style="stop-color:#6D6B6B"/>
		<stop  offset="0.2664" style="stop-color:#7C7A7A"/>
		<stop  offset="0.4067" style="stop-color:#A3A2A2"/>
		<stop  offset="0.5161" style="stop-color:#C6C6C6"/>
		<stop  offset="0.5667" style="stop-color:#C0C0C0"/>
		<stop  offset="0.6351" style="stop-color:#AFAFAF"/>
		<stop  offset="0.7137" style="stop-color:#939292"/>
		<stop  offset="0.7992" style="stop-color:#6C6B6B"/>
		<stop  offset="0.8172" style="stop-color:#636262"/>
		<stop  offset="1" style="stop-color:#908E8E"/>
	</linearGradient>
	<path fill="url(#SVGID_2_)" d="M65.6,103.4c20.8,0,37.7-16.9,37.7-37.7c0-20.8-16.9-37.7-37.7-37.7c-20.8,0-37.7,16.9-37.7,37.7
		C27.9,86.5,44.8,103.4,65.6,103.4z M49.2,53.5c6.7-9.1,19.5-11,28.5-4.3c9.1,6.7,11,19.5,4.3,28.5c-6.7,9.1-19.5,11-28.5,4.3
		C44.4,75.4,42.5,62.6,49.2,53.5z"/>
	
		<linearGradient id="SVGID_3_" gradientUnits="userSpaceOnUse" x1="-546.0836" y1="606.7444" x2="-462.861" y2="689.9671" gradientTransform="matrix(2.838720e-004 1 1 -2.838720e-004 -576.3505 576.5142)">
		<stop  offset="0" style="stop-color:#626262"/>
		<stop  offset="0.1799" style="stop-color:#313131"/>
		<stop  offset="0.2688" style="stop-color:#1E1E1E"/>
		<stop  offset="0.425" style="stop-color:#3E3E3E"/>
		<stop  offset="0.7581" style="stop-color:#8D8D8D"/>
		<stop  offset="0.9892" style="stop-color:#3F3F3F"/>
	</linearGradient>
	<path fill="url(#SVGID_3_)" d="M65.6,103.4c20.8,0,37.7-16.9,37.7-37.7c0-20.8-16.9-37.7-37.7-37.7c-20.8,0-37.7,16.9-37.7,37.7
		C27.9,86.5,44.8,103.4,65.6,103.4z M49.2,53.5c6.7-9.1,19.5-11,28.5-4.3c9.1,6.7,11,19.5,4.3,28.5c-6.7,9.1-19.5,11-28.5,4.3
		C44.4,75.4,42.5,62.6,49.2,53.5z"/>
	
		<linearGradient id="SVGID_4_" gradientUnits="userSpaceOnUse" x1="-550.7075" y1="642.1155" x2="-470.7167" y2="642.1155" gradientTransform="matrix(2.838720e-004 1 1 -2.838720e-004 -576.3505 576.5142)">
		<stop  offset="0" style="stop-color:#626262"/>
		<stop  offset="1.478066e-002" style="stop-color:#6C6C6C"/>
		<stop  offset="0.138" style="stop-color:#BBBBBB"/>
		<stop  offset="0.2256" style="stop-color:#ECECEC"/>
		<stop  offset="0.2688" style="stop-color:#FFFFFF"/>
		<stop  offset="0.4212" style="stop-color:#DFDFDF"/>
		<stop  offset="0.7544" style="stop-color:#8E8E8E"/>
		<stop  offset="0.7581" style="stop-color:#8D8D8D"/>
		<stop  offset="0.9892" style="stop-color:#3F3F3F"/>
	</linearGradient>
	
		<linearGradient id="SVGID_5_" gradientUnits="userSpaceOnUse" x1="-551.2075" y1="642.1155" x2="-470.2167" y2="642.1155" gradientTransform="matrix(2.838720e-004 1 1 -2.838720e-004 -576.3505 576.5142)">
		<stop  offset="1.075270e-002" style="stop-color:#3F3F3F"/>
		<stop  offset="0.2419" style="stop-color:#8D8D8D"/>
		<stop  offset="0.2456" style="stop-color:#8E8E8E"/>
		<stop  offset="0.5788" style="stop-color:#DFDFDF"/>
		<stop  offset="0.7312" style="stop-color:#FFFFFF"/>
		<stop  offset="0.7744" style="stop-color:#ECECEC"/>
		<stop  offset="0.862" style="stop-color:#BBBBBB"/>
		<stop  offset="0.9852" style="stop-color:#6C6C6C"/>
		<stop  offset="1" style="stop-color:#626262"/>
	</linearGradient>
	<path fill="url(#SVGID_4_)" stroke="url(#SVGID_5_)" stroke-miterlimit="10" d="M65.6,25.6c22.1,0,40,17.9,40,40
		c0,22.1-17.9,40-40,40c-22.1,0-40-17.9-40-40C25.6,43.6,43.6,25.6,65.6,25.6z M65.6,101.1c19.6,0,35.5-15.9,35.5-35.5
		c0-19.6-15.9-35.5-35.5-35.5c-19.6,0-35.5,15.9-35.5,35.5C30.1,85.2,46.1,101.1,65.6,101.1z M65.6,42.9c4.9,0,9.5,1.5,13.4,4.4
		c4.9,3.6,8.1,8.9,9,14.9c0.9,6-0.6,12-4.2,16.8c-4.3,5.8-11.1,9.2-18.3,9.2c-4.9,0-9.5-1.5-13.4-4.4c-4.9-3.6-8.1-8.9-9-14.9
		c-0.9-6,0.6-12,4.2-16.8C51.6,46.4,58.4,42.9,65.6,42.9z M65.6,83.8c5.8,0,11.2-2.8,14.6-7.4c2.9-3.9,4.1-8.7,3.3-13.5
		c-0.7-4.8-3.3-9-7.2-11.9c-3.1-2.3-6.9-3.5-10.8-3.5c-5.8,0-11.2,2.8-14.6,7.4c-2.9,3.9-4.1,8.7-3.3,13.5c0.7,4.8,3.3,9,7.2,11.9
		C58,82.6,61.7,83.8,65.6,83.8z"/>
	<g>
		<g>
			<g opacity="0.4">
				<image overflow="visible" width="77" height="77" xlink:href="464A4F51.png"  transform="matrix(1 0 0 1 27 55)">
				</image>
			</g>
			<g>
				
					<linearGradient id="SVGID_6_" gradientUnits="userSpaceOnUse" x1="927.3724" y1="-386.3421" x2="924.6648" y2="-388.3747" gradientTransform="matrix(2.838721e-004 1 -1 2.838721e-004 -321.9927 -832.3823)">
					<stop  offset="0" style="stop-color:#000000"/>
					<stop  offset="0.3009" style="stop-color:#030303"/>
					<stop  offset="0.5047" style="stop-color:#0C0C0C"/>
					<stop  offset="0.6798" style="stop-color:#1B1B1B"/>
					<stop  offset="0.8377" style="stop-color:#303030"/>
					<stop  offset="0.9844" style="stop-color:#4C4C4C"/>
					<stop  offset="0.9946" style="stop-color:#4E4E4E"/>
				</linearGradient>
				<path fill="url(#SVGID_6_)" d="M67.1,94.4c0.2-0.3,0.3-0.6,0.3-1c0-1-0.8-1.7-1.7-1.7c-0.4,0-0.7,0.1-1,0.3
					c-0.1,0.1-0.3,0.2-0.4,0.4c-0.2,0.3-0.3,0.6-0.3,1c0,1,0.8,1.7,1.7,1.7c0.4,0,0.7-0.1,1-0.3l0,0l0,0
					C66.8,94.7,67,94.5,67.1,94.4z"/>
				<image overflow="visible" width="3" height="4" xlink:href="464A4F53.png"  transform="matrix(1 0 0 1 64 92)">
				</image>
				<image overflow="visible" width="4" height="4" xlink:href="464A4F56.png"  transform="matrix(1 0 0 1 64 91)">
				</image>
				<path fill="#FFFFFF" d="M67.1,94.3l-2.4-2.4c0,0,0,0-0.1,0L67.1,94.3C67.1,94.3,67.1,94.3,67.1,94.3z"/>
				<path fill="#FFFFFF" d="M66.7,94.8C66.7,94.7,66.7,94.7,66.7,94.8l-2.3-2.4c0,0,0,0,0,0.1L66.7,94.8z"/>
				
					<linearGradient id="SVGID_7_" gradientUnits="userSpaceOnUse" x1="919.6273" y1="-389.7922" x2="922.838" y2="-386.78" gradientTransform="matrix(2.838721e-004 1 -1 2.838721e-004 -323.0264 -827.5676)">
					<stop  offset="0" style="stop-color:#FFFFFF"/>
					<stop  offset="0.1169" style="stop-color:#F9F9F9"/>
					<stop  offset="0.2734" style="stop-color:#E8E8E8"/>
					<stop  offset="0.4523" style="stop-color:#CCCCCC"/>
					<stop  offset="0.6478" style="stop-color:#A5A5A5"/>
					<stop  offset="0.8544" style="stop-color:#747474"/>
					<stop  offset="0.9946" style="stop-color:#4E4E4E"/>
				</linearGradient>
				<path fill="url(#SVGID_7_)" d="M66.7,94.7L66.7,94.7c0.1-0.1,0.2-0.3,0.4-0.4L64.7,92c-0.1,0.1-0.3,0.2-0.4,0.4L66.7,94.7
					L66.7,94.7z"/>
				
					<linearGradient id="SVGID_8_" gradientUnits="userSpaceOnUse" x1="925.6472" y1="-387.6329" x2="926.0679" y2="-387.2119" gradientTransform="matrix(2.838721e-004 1 -1 2.838721e-004 -321.9927 -832.3823)">
					<stop  offset="0" style="stop-color:#000000"/>
					<stop  offset="1.849813e-002" style="stop-color:#0B0B0B"/>
					<stop  offset="7.129517e-002" style="stop-color:#232323"/>
					<stop  offset="0.1307" style="stop-color:#363636"/>
					<stop  offset="0.1997" style="stop-color:#444444"/>
					<stop  offset="0.2868" style="stop-color:#4C4C4C"/>
					<stop  offset="0.4516" style="stop-color:#4E4E4E"/>
					<stop  offset="0.5288" style="stop-color:#545454"/>
					<stop  offset="0.6312" style="stop-color:#656565"/>
					<stop  offset="0.7477" style="stop-color:#808080"/>
					<stop  offset="0.8739" style="stop-color:#A6A6A6"/>
					<stop  offset="1" style="stop-color:#D4D4D4"/>
				</linearGradient>
				<path fill="url(#SVGID_8_)" d="M66.7,94.7L66.7,94.7c0.1-0.1,0.2-0.3,0.4-0.4L64.7,92c-0.1,0.1-0.3,0.2-0.4,0.4L66.7,94.7
					L66.7,94.7z"/>
			</g>
		</g>
		<g>
			<g opacity="0.4">
				<image overflow="visible" width="77" height="77" xlink:href="464A4F57.png"  transform="matrix(1 0 0 1 47 47)">
				</image>
			</g>
			<g>
				
					<linearGradient id="SVGID_9_" gradientUnits="userSpaceOnUse" x1="1874.1593" y1="-223.5951" x2="1871.4526" y2="-225.6271" gradientTransform="matrix(0.7073 0.7069 -0.7069 0.7073 -1398.056 -1079.6704)">
					<stop  offset="0" style="stop-color:#000000"/>
					<stop  offset="0.3009" style="stop-color:#030303"/>
					<stop  offset="0.5047" style="stop-color:#0C0C0C"/>
					<stop  offset="0.6798" style="stop-color:#1B1B1B"/>
					<stop  offset="0.8377" style="stop-color:#303030"/>
					<stop  offset="0.9844" style="stop-color:#4C4C4C"/>
					<stop  offset="0.9946" style="stop-color:#4E4E4E"/>
				</linearGradient>
				<path fill="url(#SVGID_9_)" d="M87,84.9c-0.1-0.4-0.2-0.7-0.5-1c-0.7-0.7-1.8-0.7-2.4,0c-0.3,0.3-0.4,0.6-0.5,1
					c0,0.2,0,0.3,0,0.5c0.1,0.4,0.2,0.7,0.5,1c0.7,0.7,1.8,0.7,2.4,0c0.3-0.3,0.4-0.6,0.5-1l0,0l0,0C87,85.3,87,85.1,87,84.9z"/>
				<image overflow="visible" width="4" height="2" xlink:href="464A4F52.png"  transform="matrix(1 0 0 1 83 85)">
				</image>
				<image overflow="visible" width="4" height="2" xlink:href="464A4F5D.png"  transform="matrix(1 0 0 1 83 83)">
				</image>
				<path fill="#FFFFFF" d="M87,84.8l-3.3,0c0,0,0,0,0,0.1L87,84.8C87,84.9,87,84.9,87,84.8z"/>
				<path fill="#FFFFFF" d="M87,85.5C87,85.5,87,85.4,87,85.5l-3.4-0.1c0,0,0,0,0,0.1L87,85.5z"/>
				
					<linearGradient id="SVGID_10_" gradientUnits="userSpaceOnUse" x1="1866.415" y1="-227.0458" x2="1869.6251" y2="-224.0342" gradientTransform="matrix(0.7073 0.7069 -0.7069 0.7073 -1395.3829 -1075.5344)">
					<stop  offset="0" style="stop-color:#FFFFFF"/>
					<stop  offset="0.1169" style="stop-color:#F9F9F9"/>
					<stop  offset="0.2734" style="stop-color:#E8E8E8"/>
					<stop  offset="0.4523" style="stop-color:#CCCCCC"/>
					<stop  offset="0.6478" style="stop-color:#A5A5A5"/>
					<stop  offset="0.8544" style="stop-color:#747474"/>
					<stop  offset="0.9946" style="stop-color:#4E4E4E"/>
				</linearGradient>
				<path fill="url(#SVGID_10_)" d="M87,85.4L87,85.4c0-0.2,0-0.3,0-0.5l-3.4,0c0,0.2,0,0.3,0,0.5L87,85.4L87,85.4z"/>
				
					<linearGradient id="SVGID_11_" gradientUnits="userSpaceOnUse" x1="1872.4349" y1="-224.8859" x2="1872.8546" y2="-224.466" gradientTransform="matrix(0.7073 0.7069 -0.7069 0.7073 -1398.056 -1079.6704)">
					<stop  offset="0" style="stop-color:#000000"/>
					<stop  offset="1.849813e-002" style="stop-color:#0B0B0B"/>
					<stop  offset="7.129517e-002" style="stop-color:#232323"/>
					<stop  offset="0.1307" style="stop-color:#363636"/>
					<stop  offset="0.1997" style="stop-color:#444444"/>
					<stop  offset="0.2868" style="stop-color:#4C4C4C"/>
					<stop  offset="0.4516" style="stop-color:#4E4E4E"/>
					<stop  offset="0.5288" style="stop-color:#545454"/>
					<stop  offset="0.6312" style="stop-color:#656565"/>
					<stop  offset="0.7477" style="stop-color:#808080"/>
					<stop  offset="0.8739" style="stop-color:#A6A6A6"/>
					<stop  offset="1" style="stop-color:#D4D4D4"/>
				</linearGradient>
				<path fill="url(#SVGID_11_)" d="M87,85.4L87,85.4c0-0.2,0-0.3,0-0.5l-3.4,0c0,0.2,0,0.3,0,0.5L87,85.4L87,85.4z"/>
			</g>
		</g>
		<g>
			<g opacity="0.4">
				<image overflow="visible" width="77" height="77" xlink:href="464A4F5E.png"  transform="matrix(1 0 0 1 55 27)">
				</image>
			</g>
			<g>
				
					<linearGradient id="SVGID_12_" gradientUnits="userSpaceOnUse" x1="2428.4504" y1="560.7664" x2="2425.7439" y2="558.7345" gradientTransform="matrix(1 -2.838720e-004 2.838720e-004 1 -2333.729 -493.4496)">
					<stop  offset="0" style="stop-color:#000000"/>
					<stop  offset="0.3009" style="stop-color:#030303"/>
					<stop  offset="0.5047" style="stop-color:#0C0C0C"/>
					<stop  offset="0.6798" style="stop-color:#1B1B1B"/>
					<stop  offset="0.8377" style="stop-color:#303030"/>
					<stop  offset="0.9844" style="stop-color:#4C4C4C"/>
					<stop  offset="0.9946" style="stop-color:#4E4E4E"/>
				</linearGradient>
				<path fill="url(#SVGID_12_)" d="M94.4,64.1c-0.3-0.2-0.6-0.3-1-0.3c-1,0-1.7,0.8-1.7,1.7c0,0.4,0.1,0.7,0.3,1
					c0.1,0.1,0.2,0.3,0.4,0.4c0.3,0.2,0.6,0.3,1,0.3c1,0,1.7-0.8,1.7-1.7c0-0.4-0.1-0.7-0.3-1l0,0l0,0
					C94.7,64.4,94.5,64.3,94.4,64.1z"/>
				<image overflow="visible" width="4" height="4" xlink:href="464A4F5F.png"  transform="matrix(1 0 0 1 92 64)">
				</image>
				<image overflow="visible" width="4" height="4" xlink:href="464A4F54.png"  transform="matrix(1 0 0 1 91 63)">
				</image>
				<path fill="#FFFFFF" d="M94.3,64.1l-2.4,2.4c0,0,0,0,0,0.1L94.3,64.1C94.3,64.1,94.3,64.1,94.3,64.1z"/>
				<path fill="#FFFFFF" d="M94.8,64.6C94.7,64.5,94.7,64.5,94.8,64.6l-2.4,2.3c0,0,0,0,0.1,0L94.8,64.6z"/>
				
					<linearGradient id="SVGID_13_" gradientUnits="userSpaceOnUse" x1="2420.707" y1="557.3154" x2="2423.915" y2="560.3251" gradientTransform="matrix(1 -2.838720e-004 2.838720e-004 1 -2328.9143 -492.4138)">
					<stop  offset="0" style="stop-color:#FFFFFF"/>
					<stop  offset="0.1169" style="stop-color:#F9F9F9"/>
					<stop  offset="0.2734" style="stop-color:#E8E8E8"/>
					<stop  offset="0.4523" style="stop-color:#CCCCCC"/>
					<stop  offset="0.6478" style="stop-color:#A5A5A5"/>
					<stop  offset="0.8544" style="stop-color:#747474"/>
					<stop  offset="0.9946" style="stop-color:#4E4E4E"/>
				</linearGradient>
				<path fill="url(#SVGID_13_)" d="M94.7,64.5L94.7,64.5c-0.1-0.1-0.3-0.2-0.4-0.4L92,66.5c0.1,0.1,0.2,0.3,0.4,0.4L94.7,64.5
					L94.7,64.5z"/>
				
					<linearGradient id="SVGID_14_" gradientUnits="userSpaceOnUse" x1="2426.7258" y1="559.4753" x2="2427.1453" y2="559.895" gradientTransform="matrix(1 -2.838720e-004 2.838720e-004 1 -2333.729 -493.4496)">
					<stop  offset="0" style="stop-color:#000000"/>
					<stop  offset="1.849813e-002" style="stop-color:#0B0B0B"/>
					<stop  offset="7.129517e-002" style="stop-color:#232323"/>
					<stop  offset="0.1307" style="stop-color:#363636"/>
					<stop  offset="0.1997" style="stop-color:#444444"/>
					<stop  offset="0.2868" style="stop-color:#4C4C4C"/>
					<stop  offset="0.4516" style="stop-color:#4E4E4E"/>
					<stop  offset="0.5288" style="stop-color:#545454"/>
					<stop  offset="0.6312" style="stop-color:#656565"/>
					<stop  offset="0.7477" style="stop-color:#808080"/>
					<stop  offset="0.8739" style="stop-color:#A6A6A6"/>
					<stop  offset="1" style="stop-color:#D4D4D4"/>
				</linearGradient>
				<path fill="url(#SVGID_14_)" d="M94.7,64.5L94.7,64.5c-0.1-0.1-0.3-0.2-0.4-0.4L92,66.5c0.1,0.1,0.2,0.3,0.4,0.4L94.7,64.5
					L94.7,64.5z"/>
			</g>
		</g>
		<g>
			<g opacity="0.4">
				<image overflow="visible" width="77" height="76" xlink:href="28BD76CA.png"  transform="matrix(1 0 0 1 47 8)">
				</image>
			</g>
			<g>
				
					<linearGradient id="SVGID_15_" gradientUnits="userSpaceOnUse" x1="2265.8806" y1="1507.5496" x2="2263.1736" y2="1505.5172" gradientTransform="matrix(0.7069 -0.7073 0.7073 0.7069 -2581.0171 582.6149)">
					<stop  offset="0" style="stop-color:#000000"/>
					<stop  offset="0.3009" style="stop-color:#030303"/>
					<stop  offset="0.5047" style="stop-color:#0C0C0C"/>
					<stop  offset="0.6798" style="stop-color:#1B1B1B"/>
					<stop  offset="0.8377" style="stop-color:#303030"/>
					<stop  offset="0.9844" style="stop-color:#4C4C4C"/>
					<stop  offset="0.9946" style="stop-color:#4E4E4E"/>
				</linearGradient>
				<path fill="url(#SVGID_15_)" d="M84.9,44.2c-0.4,0.1-0.7,0.2-1,0.5c-0.7,0.7-0.7,1.8,0,2.4c0.3,0.3,0.6,0.4,1,0.5
					c0.2,0,0.3,0,0.5,0c0.4-0.1,0.7-0.2,1-0.5c0.7-0.7,0.7-1.8,0-2.4c-0.3-0.3-0.6-0.4-1-0.5l0,0l0,0C85.3,44.2,85.1,44.2,84.9,44.2
					z"/>
				<image overflow="visible" width="2" height="4" xlink:href="28BD76CD.png"  transform="matrix(1 0 0 1 85 44)">
				</image>
				<image overflow="visible" width="2" height="4" xlink:href="28BD76CE.png"  transform="matrix(1 0 0 1 83 44)">
				</image>
				<path fill="#FFFFFF" d="M84.8,44.3l0,3.3c0,0,0,0,0.1,0L84.8,44.3C84.9,44.3,84.9,44.3,84.8,44.3z"/>
				<path fill="#FFFFFF" d="M85.5,44.3C85.5,44.3,85.4,44.3,85.5,44.3l-0.1,3.4c0,0,0,0,0.1,0L85.5,44.3z"/>
				
					<linearGradient id="SVGID_16_" gradientUnits="userSpaceOnUse" x1="2258.1382" y1="1504.0994" x2="2261.3445" y2="1507.1073" gradientTransform="matrix(0.7069 -0.7073 0.7073 0.7069 -2576.8811 579.9429)">
					<stop  offset="0" style="stop-color:#FFFFFF"/>
					<stop  offset="0.1169" style="stop-color:#F9F9F9"/>
					<stop  offset="0.2734" style="stop-color:#E8E8E8"/>
					<stop  offset="0.4523" style="stop-color:#CCCCCC"/>
					<stop  offset="0.6478" style="stop-color:#A5A5A5"/>
					<stop  offset="0.8544" style="stop-color:#747474"/>
					<stop  offset="0.9946" style="stop-color:#4E4E4E"/>
				</linearGradient>
				<path fill="url(#SVGID_16_)" d="M85.4,44.3L85.4,44.3c-0.2,0-0.3,0-0.5,0l0,3.4c0.2,0,0.3,0,0.5,0L85.4,44.3L85.4,44.3z"/>
				
					<linearGradient id="SVGID_17_" gradientUnits="userSpaceOnUse" x1="2264.156" y1="1506.2587" x2="2264.5757" y2="1506.6786" gradientTransform="matrix(0.7069 -0.7073 0.7073 0.7069 -2581.0171 582.6149)">
					<stop  offset="0" style="stop-color:#000000"/>
					<stop  offset="1.849813e-002" style="stop-color:#0B0B0B"/>
					<stop  offset="7.129517e-002" style="stop-color:#232323"/>
					<stop  offset="0.1307" style="stop-color:#363636"/>
					<stop  offset="0.1997" style="stop-color:#444444"/>
					<stop  offset="0.2868" style="stop-color:#4C4C4C"/>
					<stop  offset="0.4516" style="stop-color:#4E4E4E"/>
					<stop  offset="0.5288" style="stop-color:#545454"/>
					<stop  offset="0.6312" style="stop-color:#656565"/>
					<stop  offset="0.7477" style="stop-color:#808080"/>
					<stop  offset="0.8739" style="stop-color:#A6A6A6"/>
					<stop  offset="1" style="stop-color:#D4D4D4"/>
				</linearGradient>
				<path fill="url(#SVGID_17_)" d="M85.4,44.3L85.4,44.3c-0.2,0-0.3,0-0.5,0l0,3.4c0.2,0,0.3,0,0.5,0L85.4,44.3L85.4,44.3z"/>
			</g>
		</g>
		<g>
			<g opacity="0.4">
				<image overflow="visible" width="77" height="76" xlink:href="28BD76CC.png"  transform="matrix(1 0 0 1 27 0)">
				</image>
			</g>
			<g>
				
					<linearGradient id="SVGID_18_" gradientUnits="userSpaceOnUse" x1="1481.3436" y1="2061.8445" x2="1478.6365" y2="2059.812" gradientTransform="matrix(-2.838721e-004 -1 1 -2.838721e-004 -1994.7961 1518.288)">
					<stop  offset="0" style="stop-color:#000000"/>
					<stop  offset="0.3009" style="stop-color:#030303"/>
					<stop  offset="0.5047" style="stop-color:#0C0C0C"/>
					<stop  offset="0.6798" style="stop-color:#1B1B1B"/>
					<stop  offset="0.8377" style="stop-color:#303030"/>
					<stop  offset="0.9844" style="stop-color:#4C4C4C"/>
					<stop  offset="0.9946" style="stop-color:#4E4E4E"/>
				</linearGradient>
				<path fill="url(#SVGID_18_)" d="M64.1,36.8c-0.2,0.3-0.3,0.6-0.3,1c0,1,0.8,1.7,1.7,1.7c0.4,0,0.7-0.1,1-0.3
					c0.1-0.1,0.3-0.2,0.4-0.4c0.2-0.3,0.3-0.6,0.3-1c0-1-0.8-1.7-1.7-1.7c-0.4,0-0.7,0.1-1,0.3l0,0l0,0
					C64.4,36.6,64.3,36.7,64.1,36.8z"/>
				<image overflow="visible" width="4" height="3" xlink:href="28BD76CB.png"  transform="matrix(1 0 0 1 64 36)">
				</image>
				<image overflow="visible" width="4" height="4" xlink:href="28BD76D5.png"  transform="matrix(1 0 0 1 63 36)">
				</image>
				<path fill="#FFFFFF" d="M64.1,36.9l2.4,2.4c0,0,0,0,0.1,0L64.1,36.9C64.1,36.9,64.1,36.9,64.1,36.9z"/>
				<path fill="#FFFFFF" d="M64.6,36.5C64.5,36.5,64.5,36.5,64.6,36.5l2.3,2.4c0,0,0,0,0-0.1L64.6,36.5z"/>
				
					<linearGradient id="SVGID_19_" gradientUnits="userSpaceOnUse" x1="1473.6013" y1="2058.3945" x2="1476.8062" y2="2061.4014" gradientTransform="matrix(-2.838721e-004 -1 1 -2.838721e-004 -1993.7604 1513.4731)">
					<stop  offset="0" style="stop-color:#FFFFFF"/>
					<stop  offset="0.1169" style="stop-color:#F9F9F9"/>
					<stop  offset="0.2734" style="stop-color:#E8E8E8"/>
					<stop  offset="0.4523" style="stop-color:#CCCCCC"/>
					<stop  offset="0.6478" style="stop-color:#A5A5A5"/>
					<stop  offset="0.8544" style="stop-color:#747474"/>
					<stop  offset="0.9946" style="stop-color:#4E4E4E"/>
				</linearGradient>
				<path fill="url(#SVGID_19_)" d="M64.5,36.5L64.5,36.5c-0.1,0.1-0.2,0.3-0.4,0.4l2.4,2.4c0.1-0.1,0.3-0.2,0.4-0.4L64.5,36.5
					L64.5,36.5z"/>
				
					<linearGradient id="SVGID_20_" gradientUnits="userSpaceOnUse" x1="1479.6191" y1="2060.554" x2="1480.0385" y2="2060.9734" gradientTransform="matrix(-2.838721e-004 -1 1 -2.838721e-004 -1994.7961 1518.288)">
					<stop  offset="0" style="stop-color:#000000"/>
					<stop  offset="1.849813e-002" style="stop-color:#0B0B0B"/>
					<stop  offset="7.129517e-002" style="stop-color:#232323"/>
					<stop  offset="0.1307" style="stop-color:#363636"/>
					<stop  offset="0.1997" style="stop-color:#444444"/>
					<stop  offset="0.2868" style="stop-color:#4C4C4C"/>
					<stop  offset="0.4516" style="stop-color:#4E4E4E"/>
					<stop  offset="0.5288" style="stop-color:#545454"/>
					<stop  offset="0.6312" style="stop-color:#656565"/>
					<stop  offset="0.7477" style="stop-color:#808080"/>
					<stop  offset="0.8739" style="stop-color:#A6A6A6"/>
					<stop  offset="1" style="stop-color:#D4D4D4"/>
				</linearGradient>
				<path fill="url(#SVGID_20_)" d="M64.5,36.5L64.5,36.5c-0.1,0.1-0.2,0.3-0.4,0.4l2.4,2.4c0.1-0.1,0.3-0.2,0.4-0.4L64.5,36.5
					L64.5,36.5z"/>
			</g>
		</g>
		<g>
			<g opacity="0.4">
				<image overflow="visible" width="76" height="76" xlink:href="28BD76D6.png"  transform="matrix(1 0 0 1 8 8)">
				</image>
			</g>
			<g>
				
					<linearGradient id="SVGID_21_" gradientUnits="userSpaceOnUse" x1="534.7349" y1="1899.2706" x2="532.0278" y2="1897.2383" gradientTransform="matrix(-0.7073 -0.7069 0.7069 -0.7073 -918.7323 1765.576)">
					<stop  offset="0" style="stop-color:#000000"/>
					<stop  offset="0.3009" style="stop-color:#030303"/>
					<stop  offset="0.5047" style="stop-color:#0C0C0C"/>
					<stop  offset="0.6798" style="stop-color:#1B1B1B"/>
					<stop  offset="0.8377" style="stop-color:#303030"/>
					<stop  offset="0.9844" style="stop-color:#4C4C4C"/>
					<stop  offset="0.9946" style="stop-color:#4E4E4E"/>
				</linearGradient>
				<path fill="url(#SVGID_21_)" d="M44.2,46.3c0.1,0.4,0.2,0.7,0.5,1c0.7,0.7,1.8,0.7,2.4,0c0.3-0.3,0.4-0.6,0.5-1
					c0-0.2,0-0.3,0-0.5c-0.1-0.4-0.2-0.7-0.5-1c-0.7-0.7-1.8-0.7-2.4,0c-0.3,0.3-0.4,0.6-0.5,1l0,0l0,0C44.2,46,44.2,46.1,44.2,46.3
					z"/>
				<image overflow="visible" width="4" height="2" xlink:href="28BD76D4.png"  transform="matrix(1 0 0 1 44 44)">
				</image>
				<image overflow="visible" width="4" height="2" xlink:href="28BD76DA.png"  transform="matrix(1 0 0 1 44 46)">
				</image>
				<path fill="#FFFFFF" d="M44.3,46.4l3.3,0c0,0,0,0,0-0.1L44.3,46.4C44.3,46.4,44.3,46.4,44.3,46.4z"/>
				<path fill="#FFFFFF" d="M44.3,45.8C44.3,45.8,44.3,45.8,44.3,45.8l3.4,0.1c0,0,0,0,0-0.1L44.3,45.8z"/>
				
					<linearGradient id="SVGID_22_" gradientUnits="userSpaceOnUse" x1="526.9933" y1="1895.8209" x2="530.1994" y2="1898.8289" gradientTransform="matrix(-0.7073 -0.7069 0.7069 -0.7073 -921.4039 1761.4401)">
					<stop  offset="0" style="stop-color:#FFFFFF"/>
					<stop  offset="0.1169" style="stop-color:#F9F9F9"/>
					<stop  offset="0.2734" style="stop-color:#E8E8E8"/>
					<stop  offset="0.4523" style="stop-color:#CCCCCC"/>
					<stop  offset="0.6478" style="stop-color:#A5A5A5"/>
					<stop  offset="0.8544" style="stop-color:#747474"/>
					<stop  offset="0.9946" style="stop-color:#4E4E4E"/>
				</linearGradient>
				<path fill="url(#SVGID_22_)" d="M44.3,45.8L44.3,45.8c0,0.2,0,0.3,0,0.5l3.4,0c0-0.2,0-0.3,0-0.5L44.3,45.8L44.3,45.8z"/>
				
					<linearGradient id="SVGID_23_" gradientUnits="userSpaceOnUse" x1="533.0106" y1="1897.9805" x2="533.4302" y2="1898.4004" gradientTransform="matrix(-0.7073 -0.7069 0.7069 -0.7073 -918.7323 1765.576)">
					<stop  offset="0" style="stop-color:#000000"/>
					<stop  offset="1.849813e-002" style="stop-color:#0B0B0B"/>
					<stop  offset="7.129517e-002" style="stop-color:#232323"/>
					<stop  offset="0.1307" style="stop-color:#363636"/>
					<stop  offset="0.1997" style="stop-color:#444444"/>
					<stop  offset="0.2868" style="stop-color:#4C4C4C"/>
					<stop  offset="0.4516" style="stop-color:#4E4E4E"/>
					<stop  offset="0.5288" style="stop-color:#545454"/>
					<stop  offset="0.6312" style="stop-color:#656565"/>
					<stop  offset="0.7477" style="stop-color:#808080"/>
					<stop  offset="0.8739" style="stop-color:#A6A6A6"/>
					<stop  offset="1" style="stop-color:#D4D4D4"/>
				</linearGradient>
				<path fill="url(#SVGID_23_)" d="M44.3,45.8L44.3,45.8c0,0.2,0,0.3,0,0.5l3.4,0c0-0.2,0-0.3,0-0.5L44.3,45.8L44.3,45.8z"/>
			</g>
		</g>
		<g>
			<g opacity="0.4">
				<image overflow="visible" width="76" height="77" xlink:href="28BD76DD.png"  transform="matrix(1 0 0 1 0 27)">
				</image>
			</g>
			<g>
				
					<linearGradient id="SVGID_24_" gradientUnits="userSpaceOnUse" x1="-19.7347" y1="1114.7382" x2="-22.4421" y2="1112.7057" gradientTransform="matrix(-1 2.838720e-004 -2.838720e-004 -1 16.9414 1179.3552)">
					<stop  offset="0" style="stop-color:#000000"/>
					<stop  offset="0.3009" style="stop-color:#030303"/>
					<stop  offset="0.5047" style="stop-color:#0C0C0C"/>
					<stop  offset="0.6798" style="stop-color:#1B1B1B"/>
					<stop  offset="0.8377" style="stop-color:#303030"/>
					<stop  offset="0.9844" style="stop-color:#4C4C4C"/>
					<stop  offset="0.9946" style="stop-color:#4E4E4E"/>
				</linearGradient>
				<path fill="url(#SVGID_24_)" d="M36.8,67.1c0.3,0.2,0.6,0.3,1,0.3c1,0,1.7-0.8,1.7-1.7c0-0.4-0.1-0.7-0.3-1
					c-0.1-0.1-0.2-0.3-0.4-0.4c-0.3-0.2-0.6-0.3-1-0.3c-1,0-1.7,0.8-1.7,1.7c0,0.4,0.1,0.7,0.3,1l0,0l0,0
					C36.6,66.8,36.7,67,36.8,67.1z"/>
				<image overflow="visible" width="3" height="3" xlink:href="28BD76F1.png"  transform="matrix(1 0 0 1 36 64)">
				</image>
				<image overflow="visible" width="4" height="4" xlink:href="28BD76F3.png"  transform="matrix(1 0 0 1 36 64)">
				</image>
				<path fill="#FFFFFF" d="M36.9,67.1l2.4-2.4c0,0,0,0,0-0.1L36.9,67.1C36.9,67.1,36.9,67.1,36.9,67.1z"/>
				<path fill="#FFFFFF" d="M36.5,66.7C36.5,66.7,36.5,66.7,36.5,66.7l2.4-2.3c0,0,0,0-0.1,0L36.5,66.7z"/>
				
					<linearGradient id="SVGID_25_" gradientUnits="userSpaceOnUse" x1="-27.4769" y1="1111.2877" x2="-24.2705" y2="1114.2959" gradientTransform="matrix(-1 2.838720e-004 -2.838720e-004 -1 12.1266 1178.3195)">
					<stop  offset="0" style="stop-color:#FFFFFF"/>
					<stop  offset="0.1169" style="stop-color:#F9F9F9"/>
					<stop  offset="0.2734" style="stop-color:#E8E8E8"/>
					<stop  offset="0.4523" style="stop-color:#CCCCCC"/>
					<stop  offset="0.6478" style="stop-color:#A5A5A5"/>
					<stop  offset="0.8544" style="stop-color:#747474"/>
					<stop  offset="0.9946" style="stop-color:#4E4E4E"/>
				</linearGradient>
				<path fill="url(#SVGID_25_)" d="M36.5,66.7L36.5,66.7c0.1,0.1,0.3,0.2,0.4,0.4l2.4-2.4c-0.1-0.1-0.2-0.3-0.4-0.4L36.5,66.7
					L36.5,66.7z"/>
				
					<linearGradient id="SVGID_26_" gradientUnits="userSpaceOnUse" x1="-21.4591" y1="1113.447" x2="-21.0397" y2="1113.8666" gradientTransform="matrix(-1 2.838720e-004 -2.838720e-004 -1 16.9414 1179.3552)">
					<stop  offset="0" style="stop-color:#000000"/>
					<stop  offset="1.849813e-002" style="stop-color:#0B0B0B"/>
					<stop  offset="7.129517e-002" style="stop-color:#232323"/>
					<stop  offset="0.1307" style="stop-color:#363636"/>
					<stop  offset="0.1997" style="stop-color:#444444"/>
					<stop  offset="0.2868" style="stop-color:#4C4C4C"/>
					<stop  offset="0.4516" style="stop-color:#4E4E4E"/>
					<stop  offset="0.5288" style="stop-color:#545454"/>
					<stop  offset="0.6312" style="stop-color:#656565"/>
					<stop  offset="0.7477" style="stop-color:#808080"/>
					<stop  offset="0.8739" style="stop-color:#A6A6A6"/>
					<stop  offset="1" style="stop-color:#D4D4D4"/>
				</linearGradient>
				<path fill="url(#SVGID_26_)" d="M36.5,66.7L36.5,66.7c0.1,0.1,0.3,0.2,0.4,0.4l2.4-2.4c-0.1-0.1-0.2-0.3-0.4-0.4L36.5,66.7
					L36.5,66.7z"/>
			</g>
		</g>
		<g>
			<g opacity="0.4">
				<image overflow="visible" width="76" height="77" xlink:href="28BD76F0.png"  transform="matrix(1 0 0 1 8 47)">
				</image>
			</g>
			<g>
				
					<linearGradient id="SVGID_27_" gradientUnits="userSpaceOnUse" x1="143.0159" y1="168.1246" x2="140.3084" y2="166.092" gradientTransform="matrix(-0.7069 0.7073 -0.7073 -0.7069 264.2298 103.2897)">
					<stop  offset="0" style="stop-color:#000000"/>
					<stop  offset="0.3009" style="stop-color:#030303"/>
					<stop  offset="0.5047" style="stop-color:#0C0C0C"/>
					<stop  offset="0.6798" style="stop-color:#1B1B1B"/>
					<stop  offset="0.8377" style="stop-color:#303030"/>
					<stop  offset="0.9844" style="stop-color:#4C4C4C"/>
					<stop  offset="0.9946" style="stop-color:#4E4E4E"/>
				</linearGradient>
				<path fill="url(#SVGID_27_)" d="M46.3,87c0.4-0.1,0.7-0.2,1-0.5c0.7-0.7,0.7-1.8,0-2.4c-0.3-0.3-0.6-0.4-1-0.5
					c-0.2,0-0.3,0-0.5,0c-0.4,0.1-0.7,0.2-1,0.5c-0.7,0.7-0.7,1.8,0,2.4c0.3,0.3,0.6,0.4,1,0.5l0,0l0,0C46,87,46.1,87,46.3,87z"/>
				<image overflow="visible" width="2" height="4" xlink:href="28BD76FF.png"  transform="matrix(1 0 0 1 44 83)">
				</image>
				<image overflow="visible" width="2" height="4" xlink:href="28BD76F2.png"  transform="matrix(1 0 0 1 46 83)">
				</image>
				<path fill="#FFFFFF" d="M46.4,87l0-3.3c0,0,0,0-0.1,0L46.4,87C46.4,87,46.4,87,46.4,87z"/>
				<path fill="#FFFFFF" d="M45.8,87C45.8,87,45.8,87,45.8,87l0.1-3.4c0,0,0,0-0.1,0L45.8,87z"/>
				
					<linearGradient id="SVGID_28_" gradientUnits="userSpaceOnUse" x1="135.2709" y1="164.6726" x2="138.4808" y2="167.684" gradientTransform="matrix(-0.7069 0.7073 -0.7073 -0.7069 260.0919 105.9618)">
					<stop  offset="0" style="stop-color:#FFFFFF"/>
					<stop  offset="0.1169" style="stop-color:#F9F9F9"/>
					<stop  offset="0.2734" style="stop-color:#E8E8E8"/>
					<stop  offset="0.4523" style="stop-color:#CCCCCC"/>
					<stop  offset="0.6478" style="stop-color:#A5A5A5"/>
					<stop  offset="0.8544" style="stop-color:#747474"/>
					<stop  offset="0.9946" style="stop-color:#4E4E4E"/>
				</linearGradient>
				<path fill="url(#SVGID_28_)" d="M45.8,87L45.8,87c0.2,0,0.3,0,0.5,0l0-3.4c-0.2,0-0.3,0-0.5,0L45.8,87L45.8,87z"/>
				
					<linearGradient id="SVGID_29_" gradientUnits="userSpaceOnUse" x1="141.2912" y1="166.8343" x2="141.7109" y2="167.2542" gradientTransform="matrix(-0.7069 0.7073 -0.7073 -0.7069 264.2298 103.2897)">
					<stop  offset="0" style="stop-color:#000000"/>
					<stop  offset="1.849813e-002" style="stop-color:#0B0B0B"/>
					<stop  offset="7.129517e-002" style="stop-color:#232323"/>
					<stop  offset="0.1307" style="stop-color:#363636"/>
					<stop  offset="0.1997" style="stop-color:#444444"/>
					<stop  offset="0.2868" style="stop-color:#4C4C4C"/>
					<stop  offset="0.4516" style="stop-color:#4E4E4E"/>
					<stop  offset="0.5288" style="stop-color:#545454"/>
					<stop  offset="0.6312" style="stop-color:#656565"/>
					<stop  offset="0.7477" style="stop-color:#808080"/>
					<stop  offset="0.8739" style="stop-color:#A6A6A6"/>
					<stop  offset="1" style="stop-color:#D4D4D4"/>
				</linearGradient>
				<path fill="url(#SVGID_29_)" d="M45.8,87L45.8,87c0.2,0,0.3,0,0.5,0l0-3.4c-0.2,0-0.3,0-0.5,0L45.8,87L45.8,87z"/>
			</g>
		</g>
	</g>
</g>
</svg>
